<mxfile host="app.diagrams.net" agent="Mozilla/5.0 (Macintosh; Intel Mac OS X 10_15_7) AppleWebKit/537.36 (KHTML, like Gecko) Chrome/127.0.0.0 Safari/537.36" version="24.7.17">
  <diagram id="kgpKYQtTHZ0yAKxKKP6v" name="Page-1">
    <mxGraphModel dx="5293" dy="4370" grid="1" gridSize="10" guides="1" tooltips="1" connect="1" arrows="1" fold="1" page="1" pageScale="1" pageWidth="2339" pageHeight="3300" math="0" shadow="0">
      <root>
        <mxCell id="0" />
        <mxCell id="1" parent="0" />
        <mxCell id="LSZJkecF79FRnBt_k18C-3" value="" style="verticalLabelPosition=bottom;verticalAlign=top;html=1;shape=mxgraph.basic.rect;fillColor2=none;strokeWidth=1;size=20;indent=5;fillColor=#dae8fc;strokeColor=#6c8ebf;" parent="1" vertex="1">
          <mxGeometry x="-40" y="-90" width="1950" height="6650" as="geometry" />
        </mxCell>
        <mxCell id="LSZJkecF79FRnBt_k18C-6" value="" style="rounded=0;whiteSpace=wrap;html=1;fillColor=#fff2cc;strokeColor=#d6b656;" parent="1" vertex="1">
          <mxGeometry x="1260" y="120" width="630" height="6380" as="geometry" />
        </mxCell>
        <mxCell id="LSZJkecF79FRnBt_k18C-5" value="" style="rounded=0;whiteSpace=wrap;html=1;fillColor=#d5e8d4;strokeColor=#82b366;" parent="1" vertex="1">
          <mxGeometry x="-20" y="20" width="1240" height="6510" as="geometry" />
        </mxCell>
        <mxCell id="LSZJkecF79FRnBt_k18C-13" value="" style="rounded=0;whiteSpace=wrap;html=1;labelBackgroundColor=none;labelBorderColor=none;fontFamily=Helvetica;fontSize=26;fillColor=#fff2cc;strokeColor=#d6b656;" parent="1" vertex="1">
          <mxGeometry x="80" y="120" width="560" height="6380" as="geometry" />
        </mxCell>
        <mxCell id="LSZJkecF79FRnBt_k18C-14" value="" style="rounded=0;whiteSpace=wrap;html=1;labelBackgroundColor=none;labelBorderColor=none;fontFamily=Helvetica;fontSize=26;fillColor=#fff2cc;strokeColor=#d6b656;" parent="1" vertex="1">
          <mxGeometry x="670" y="120" width="520" height="6380" as="geometry" />
        </mxCell>
        <mxCell id="LSZJkecF79FRnBt_k18C-104" value="" style="rounded=0;whiteSpace=wrap;html=1;labelBackgroundColor=none;labelBorderColor=none;fontFamily=Helvetica;fontSize=26;fillColor=#DAE8FC;fontColor=#333333;strokeColor=#000000;gradientColor=none;strokeWidth=5;opacity=40;" parent="1" vertex="1">
          <mxGeometry x="80" y="1200" width="1780" height="1190" as="geometry" />
        </mxCell>
        <mxCell id="g-a9l5bh9RtnpEigGKmV-79" value="" style="rounded=0;whiteSpace=wrap;html=1;dashed=1;fillColor=#f8cecc;strokeColor=#000000;opacity=20;strokeWidth=3;" parent="1" vertex="1">
          <mxGeometry x="120" y="1350" width="545" height="530" as="geometry" />
        </mxCell>
        <mxCell id="LSZJkecF79FRnBt_k18C-7" value="Shop Software" style="text;html=1;strokeColor=none;fillColor=none;align=left;verticalAlign=middle;whiteSpace=wrap;rounded=0;labelBackgroundColor=none;fontSize=32;fontFamily=Helvetica;fontStyle=1" parent="1" vertex="1">
          <mxGeometry x="50" y="-50" width="300" height="30" as="geometry" />
        </mxCell>
        <mxCell id="LSZJkecF79FRnBt_k18C-10" value="&lt;meta charset=&quot;utf-8&quot; style=&quot;font-size: 32px;&quot;&gt;&lt;span style=&quot;color: rgb(0, 0, 0); font-size: 32px; font-style: normal; font-weight: 400; letter-spacing: normal; text-indent: 0px; text-transform: none; word-spacing: 0px; display: inline; float: none;&quot;&gt;Connector Layer&lt;/span&gt;" style="text;html=1;strokeColor=none;fillColor=none;align=left;verticalAlign=middle;whiteSpace=wrap;rounded=0;labelBackgroundColor=none;fontFamily=Helvetica;fontSize=32;labelBorderColor=none;" parent="1" vertex="1">
          <mxGeometry x="80" y="50" width="250" height="30" as="geometry" />
        </mxCell>
        <mxCell id="LSZJkecF79FRnBt_k18C-11" value="&lt;span style=&quot;color: rgb(0, 0, 0); font-size: 24px; font-style: normal; font-weight: 400; letter-spacing: normal; text-indent: 0px; text-transform: none; word-spacing: 0px; display: inline; float: none;&quot;&gt;Base Layer&lt;/span&gt;" style="text;html=1;strokeColor=none;fillColor=none;align=left;verticalAlign=middle;whiteSpace=wrap;rounded=0;labelBackgroundColor=none;fontFamily=Helvetica;fontSize=24;labelBorderColor=none;" parent="1" vertex="1">
          <mxGeometry x="1285" y="150" width="250" height="30" as="geometry" />
        </mxCell>
        <mxCell id="LSZJkecF79FRnBt_k18C-15" value="&lt;span style=&quot;color: rgb(0, 0, 0); font-size: 24px; font-style: normal; font-weight: 400; letter-spacing: normal; text-indent: 0px; text-transform: none; word-spacing: 0px; display: inline; float: none;&quot;&gt;Connector component&lt;/span&gt;" style="text;html=1;strokeColor=none;fillColor=none;align=left;verticalAlign=middle;whiteSpace=wrap;rounded=0;labelBackgroundColor=none;fontFamily=Helvetica;fontSize=24;labelBorderColor=none;" parent="1" vertex="1">
          <mxGeometry x="110" y="150" width="300" height="30" as="geometry" />
        </mxCell>
        <mxCell id="LSZJkecF79FRnBt_k18C-16" value="&lt;span style=&quot;color: rgb(0, 0, 0); font-size: 24px; font-style: normal; font-weight: 400; letter-spacing: normal; text-indent: 0px; text-transform: none; word-spacing: 0px; display: inline; float: none;&quot;&gt;Event container&lt;/span&gt;" style="text;html=1;strokeColor=none;fillColor=none;align=left;verticalAlign=middle;whiteSpace=wrap;rounded=0;labelBackgroundColor=none;fontFamily=Helvetica;fontSize=24;labelBorderColor=none;" parent="1" vertex="1">
          <mxGeometry x="690" y="150" width="250" height="30" as="geometry" />
        </mxCell>
        <mxCell id="LSZJkecF79FRnBt_k18C-17" value="" style="rounded=0;whiteSpace=wrap;html=1;labelBackgroundColor=none;labelBorderColor=none;fontFamily=Helvetica;fontSize=26;fillColor=#dae8fc;strokeColor=#6C8EBF;strokeWidth=4;opacity=40;" parent="1" vertex="1">
          <mxGeometry x="80" y="210" width="1650" height="830" as="geometry" />
        </mxCell>
        <mxCell id="LSZJkecF79FRnBt_k18C-29" style="edgeStyle=orthogonalEdgeStyle;rounded=0;orthogonalLoop=1;jettySize=auto;html=1;fontFamily=Helvetica;fontSize=26;" parent="1" source="LSZJkecF79FRnBt_k18C-19" target="LSZJkecF79FRnBt_k18C-20" edge="1">
          <mxGeometry relative="1" as="geometry">
            <Array as="points">
              <mxPoint x="590" y="370" />
              <mxPoint x="590" y="370" />
            </Array>
          </mxGeometry>
        </mxCell>
        <mxCell id="LSZJkecF79FRnBt_k18C-19" value="&lt;span style=&quot;color: rgb(0, 0, 0); font-family: helvetica; font-size: 26px; font-style: normal; font-weight: 400; letter-spacing: normal; text-align: center; text-indent: 0px; text-transform: none; word-spacing: 0px; display: inline; float: none;&quot;&gt;Connector initialization&lt;/span&gt;" style="rounded=1;whiteSpace=wrap;html=1;arcSize=50;fontSize=16;labelBackgroundColor=default;" parent="1" vertex="1">
          <mxGeometry x="97.5" y="327.5" width="405" height="85" as="geometry" />
        </mxCell>
        <mxCell id="LSZJkecF79FRnBt_k18C-20" value="" style="rounded=0;whiteSpace=wrap;html=1;labelBackgroundColor=none;labelBorderColor=none;fontFamily=Helvetica;fontSize=26;strokeColor=#000000;strokeWidth=1;fillColor=#FF0000;gradientColor=none;" parent="1" vertex="1">
          <mxGeometry x="700" y="290" width="20" height="150" as="geometry" />
        </mxCell>
        <mxCell id="LSZJkecF79FRnBt_k18C-36" style="edgeStyle=orthogonalEdgeStyle;rounded=0;orthogonalLoop=1;jettySize=auto;html=1;entryX=1;entryY=0.5;entryDx=0;entryDy=0;fontFamily=Helvetica;fontSize=26;exitX=1;exitY=0.5;exitDx=0;exitDy=0;" parent="1" source="LSZJkecF79FRnBt_k18C-23" target="LSZJkecF79FRnBt_k18C-33" edge="1">
          <mxGeometry relative="1" as="geometry">
            <Array as="points">
              <mxPoint x="1715" y="320" />
              <mxPoint x="1715" y="610" />
            </Array>
          </mxGeometry>
        </mxCell>
        <mxCell id="LSZJkecF79FRnBt_k18C-23" value="" style="rounded=0;whiteSpace=wrap;html=1;labelBackgroundColor=none;labelBorderColor=none;fontFamily=Helvetica;fontSize=26;strokeColor=#000000;strokeWidth=1;fillColor=#FF0000;gradientColor=none;" parent="1" vertex="1">
          <mxGeometry x="1620" y="300" width="20" height="40" as="geometry" />
        </mxCell>
        <mxCell id="LSZJkecF79FRnBt_k18C-35" style="edgeStyle=orthogonalEdgeStyle;rounded=0;orthogonalLoop=1;jettySize=auto;html=1;entryX=1;entryY=0.5;entryDx=0;entryDy=0;fontFamily=Helvetica;fontSize=26;exitX=1;exitY=0.5;exitDx=0;exitDy=0;" parent="1" source="LSZJkecF79FRnBt_k18C-24" target="LSZJkecF79FRnBt_k18C-32" edge="1">
          <mxGeometry relative="1" as="geometry">
            <Array as="points">
              <mxPoint x="1685" y="370" />
              <mxPoint x="1685" y="560" />
            </Array>
          </mxGeometry>
        </mxCell>
        <mxCell id="LSZJkecF79FRnBt_k18C-24" value="" style="rounded=0;whiteSpace=wrap;html=1;labelBackgroundColor=none;labelBorderColor=none;fontFamily=Helvetica;fontSize=26;strokeColor=#000000;strokeWidth=1;fillColor=#FF0000;gradientColor=none;" parent="1" vertex="1">
          <mxGeometry x="1620" y="350" width="20" height="40" as="geometry" />
        </mxCell>
        <mxCell id="LSZJkecF79FRnBt_k18C-34" style="edgeStyle=orthogonalEdgeStyle;rounded=0;orthogonalLoop=1;jettySize=auto;html=1;entryX=1;entryY=0.5;entryDx=0;entryDy=0;fontFamily=Helvetica;fontSize=26;exitX=1;exitY=0.5;exitDx=0;exitDy=0;" parent="1" source="LSZJkecF79FRnBt_k18C-25" target="LSZJkecF79FRnBt_k18C-31" edge="1">
          <mxGeometry relative="1" as="geometry" />
        </mxCell>
        <mxCell id="LSZJkecF79FRnBt_k18C-25" value="" style="rounded=0;whiteSpace=wrap;html=1;labelBackgroundColor=none;labelBorderColor=none;fontFamily=Helvetica;fontSize=26;strokeColor=#000000;strokeWidth=1;fillColor=#FF0000;gradientColor=none;" parent="1" vertex="1">
          <mxGeometry x="1620" y="400" width="20" height="40" as="geometry" />
        </mxCell>
        <mxCell id="LSZJkecF79FRnBt_k18C-26" value="&lt;font style=&quot;font-size: 20px&quot;&gt;&lt;b style=&quot;font-size: 20px&quot;&gt;G&lt;font style=&quot;font-size: 20px&quot;&gt;ET_INFORMATION_OF_SYSTEM&lt;/font&gt;&lt;/b&gt;&lt;/font&gt;" style="html=1;verticalAlign=bottom;startArrow=oval;startFill=1;endArrow=block;startSize=8;rounded=0;fontFamily=Helvetica;fontSize=20;entryX=0;entryY=0.5;entryDx=0;entryDy=0;labelBackgroundColor=none;exitX=1;exitY=0.5;exitDx=0;exitDy=0;" parent="1" source="LSZJkecF79FRnBt_k18C-20" target="LSZJkecF79FRnBt_k18C-24" edge="1">
          <mxGeometry x="-0.6222" y="1" width="60" relative="1" as="geometry">
            <mxPoint x="804.9999999999998" y="369.6199999999999" as="sourcePoint" />
            <mxPoint x="1285" y="370" as="targetPoint" />
            <mxPoint as="offset" />
          </mxGeometry>
        </mxCell>
        <mxCell id="LSZJkecF79FRnBt_k18C-27" value="GET_CREDENTIALS_PROVIDED" style="html=1;verticalAlign=bottom;startArrow=oval;startFill=1;endArrow=block;startSize=8;rounded=0;fontFamily=Helvetica;fontSize=20;entryX=0;entryY=0.5;entryDx=0;entryDy=0;fontStyle=1;exitX=0.958;exitY=0.874;exitDx=0;exitDy=0;exitPerimeter=0;labelBackgroundColor=none;" parent="1" source="LSZJkecF79FRnBt_k18C-20" target="LSZJkecF79FRnBt_k18C-25" edge="1">
          <mxGeometry x="-0.6207" y="1" width="60" relative="1" as="geometry">
            <mxPoint x="804.9999999999998" y="419.6199999999999" as="sourcePoint" />
            <mxPoint x="1285" y="420" as="targetPoint" />
            <mxPoint as="offset" />
          </mxGeometry>
        </mxCell>
        <mxCell id="LSZJkecF79FRnBt_k18C-28" value="&lt;div style=&quot;font-size: 20px;&quot;&gt;&lt;font style=&quot;font-size: 20px;&quot;&gt;GET_LOCALE&lt;/font&gt;&lt;/div&gt;" style="html=1;verticalAlign=bottom;startArrow=oval;startFill=1;endArrow=block;startSize=8;rounded=0;fontFamily=Helvetica;fontSize=20;entryX=0;entryY=0.5;entryDx=0;entryDy=0;fontStyle=1;align=right;labelPosition=left;verticalLabelPosition=top;labelBackgroundColor=none;" parent="1" target="LSZJkecF79FRnBt_k18C-23" edge="1">
          <mxGeometry x="-0.6667" width="60" relative="1" as="geometry">
            <mxPoint x="720" y="320" as="sourcePoint" />
            <mxPoint x="1285" y="320" as="targetPoint" />
            <mxPoint as="offset" />
          </mxGeometry>
        </mxCell>
        <mxCell id="LSZJkecF79FRnBt_k18C-31" value="" style="rounded=0;whiteSpace=wrap;html=1;labelBackgroundColor=none;labelBorderColor=none;fontFamily=Helvetica;fontSize=26;strokeColor=#000000;strokeWidth=1;fillColor=#FF0000;gradientColor=none;" parent="1" vertex="1">
          <mxGeometry x="1620" y="490" width="20" height="40" as="geometry" />
        </mxCell>
        <mxCell id="LSZJkecF79FRnBt_k18C-32" value="" style="rounded=0;whiteSpace=wrap;html=1;labelBackgroundColor=none;labelBorderColor=none;fontFamily=Helvetica;fontSize=26;strokeColor=#000000;strokeWidth=1;fillColor=#FF0000;gradientColor=none;" parent="1" vertex="1">
          <mxGeometry x="1620" y="540" width="20" height="40" as="geometry" />
        </mxCell>
        <mxCell id="LSZJkecF79FRnBt_k18C-33" value="" style="rounded=0;whiteSpace=wrap;html=1;labelBackgroundColor=none;labelBorderColor=none;fontFamily=Helvetica;fontSize=26;strokeColor=#000000;strokeWidth=1;fillColor=#FF0000;gradientColor=none;" parent="1" vertex="1">
          <mxGeometry x="1620" y="590" width="20" height="40" as="geometry" />
        </mxCell>
        <mxCell id="LSZJkecF79FRnBt_k18C-100" style="edgeStyle=orthogonalEdgeStyle;rounded=0;orthogonalLoop=1;jettySize=auto;html=1;entryX=1;entryY=0.5;entryDx=0;entryDy=0;labelBackgroundColor=none;fontFamily=Helvetica;fontSize=26;fontColor=#000000;strokeColor=#000000;" parent="1" source="LSZJkecF79FRnBt_k18C-38" target="LSZJkecF79FRnBt_k18C-51" edge="1">
          <mxGeometry relative="1" as="geometry" />
        </mxCell>
        <mxCell id="LSZJkecF79FRnBt_k18C-38" value="" style="rounded=0;whiteSpace=wrap;html=1;labelBackgroundColor=none;labelBorderColor=none;fontFamily=Helvetica;fontSize=26;strokeColor=#000000;strokeWidth=1;fillColor=#FF0000;gradientColor=none;" parent="1" vertex="1">
          <mxGeometry x="700" y="490" width="20" height="40" as="geometry" />
        </mxCell>
        <mxCell id="LSZJkecF79FRnBt_k18C-39" value="" style="rounded=0;whiteSpace=wrap;html=1;labelBackgroundColor=none;labelBorderColor=none;fontFamily=Helvetica;fontSize=26;strokeColor=#000000;strokeWidth=1;fillColor=#FF0000;gradientColor=none;" parent="1" vertex="1">
          <mxGeometry x="700" y="540" width="20" height="40" as="geometry" />
        </mxCell>
        <mxCell id="LSZJkecF79FRnBt_k18C-99" style="edgeStyle=orthogonalEdgeStyle;rounded=0;orthogonalLoop=1;jettySize=auto;html=1;entryX=1;entryY=0.5;entryDx=0;entryDy=0;labelBackgroundColor=none;fontFamily=Helvetica;fontSize=26;fontColor=#000000;strokeColor=#000000;" parent="1" source="LSZJkecF79FRnBt_k18C-40" target="LSZJkecF79FRnBt_k18C-45" edge="1">
          <mxGeometry relative="1" as="geometry" />
        </mxCell>
        <mxCell id="LSZJkecF79FRnBt_k18C-40" value="" style="rounded=0;whiteSpace=wrap;html=1;labelBackgroundColor=none;labelBorderColor=none;fontFamily=Helvetica;fontSize=26;strokeColor=#000000;strokeWidth=1;fillColor=#FF0000;gradientColor=none;" parent="1" vertex="1">
          <mxGeometry x="700" y="590" width="20" height="40" as="geometry" />
        </mxCell>
        <mxCell id="LSZJkecF79FRnBt_k18C-42" value="&lt;span style=&quot;font-weight: 700&quot;&gt;SET_CREDENTIALS_PROVIDED&lt;/span&gt;" style="html=1;verticalAlign=bottom;startArrow=oval;startFill=1;endArrow=block;startSize=8;rounded=0;labelBackgroundColor=none;fontFamily=Helvetica;fontSize=20;fontColor=#000000;exitX=0;exitY=0.5;exitDx=0;exitDy=0;entryX=1;entryY=0.5;entryDx=0;entryDy=0;" parent="1" source="LSZJkecF79FRnBt_k18C-31" target="LSZJkecF79FRnBt_k18C-38" edge="1">
          <mxGeometry x="-0.6" width="60" relative="1" as="geometry">
            <mxPoint x="1100" y="530" as="sourcePoint" />
            <mxPoint x="1160" y="530" as="targetPoint" />
            <mxPoint as="offset" />
          </mxGeometry>
        </mxCell>
        <mxCell id="LSZJkecF79FRnBt_k18C-43" value="&lt;b style=&quot;font-size: 20px&quot;&gt;&lt;font style=&quot;font-size: 20px&quot;&gt;SET_INFORMATION_OF_SYSTEM&lt;/font&gt;&lt;/b&gt;" style="html=1;verticalAlign=bottom;startArrow=oval;startFill=1;endArrow=block;startSize=8;rounded=0;labelBackgroundColor=none;fontFamily=Helvetica;fontSize=20;fontColor=#000000;exitX=0;exitY=0.5;exitDx=0;exitDy=0;entryX=1;entryY=0.5;entryDx=0;entryDy=0;" parent="1" source="LSZJkecF79FRnBt_k18C-32" target="LSZJkecF79FRnBt_k18C-39" edge="1">
          <mxGeometry x="-0.6222" width="60" relative="1" as="geometry">
            <mxPoint x="1510" y="559.6400000000003" as="sourcePoint" />
            <mxPoint x="805" y="559.6400000000003" as="targetPoint" />
            <mxPoint as="offset" />
          </mxGeometry>
        </mxCell>
        <mxCell id="LSZJkecF79FRnBt_k18C-44" value="&lt;span style=&quot;font-weight: 700 ; text-align: right&quot;&gt;SET_LOCALE&lt;/span&gt;" style="html=1;verticalAlign=bottom;startArrow=oval;startFill=1;endArrow=block;startSize=8;rounded=0;labelBackgroundColor=none;fontFamily=Helvetica;fontSize=20;fontColor=default;exitX=0;exitY=0.5;exitDx=0;exitDy=0;entryX=1;entryY=0.5;entryDx=0;entryDy=0;" parent="1" source="LSZJkecF79FRnBt_k18C-33" target="LSZJkecF79FRnBt_k18C-40" edge="1">
          <mxGeometry x="-0.4" width="60" relative="1" as="geometry">
            <mxPoint x="1510" y="609.6400000000003" as="sourcePoint" />
            <mxPoint x="805" y="609.6400000000003" as="targetPoint" />
            <mxPoint x="1" as="offset" />
          </mxGeometry>
        </mxCell>
        <mxCell id="LSZJkecF79FRnBt_k18C-45" value="&lt;font style=&quot;vertical-align: inherit; font-size: 16px;&quot;&gt;&lt;font style=&quot;vertical-align: inherit; font-size: 16px;&quot;&gt;Selecting a translation in the connector&lt;/font&gt;&lt;/font&gt;" style="rounded=0;whiteSpace=wrap;html=1;fontSize=16;" parent="1" vertex="1">
          <mxGeometry x="410" y="660" width="205" height="40" as="geometry" />
        </mxCell>
        <mxCell id="LSZJkecF79FRnBt_k18C-49" style="edgeStyle=orthogonalEdgeStyle;rounded=0;orthogonalLoop=1;jettySize=auto;html=1;labelBackgroundColor=none;fontFamily=Helvetica;fontSize=16;fontColor=default;" parent="1" target="LSZJkecF79FRnBt_k18C-50" edge="1">
          <mxGeometry relative="1" as="geometry">
            <mxPoint x="700" y="560" as="sourcePoint" />
          </mxGeometry>
        </mxCell>
        <mxCell id="LSZJkecF79FRnBt_k18C-50" value="&lt;font style=&quot;vertical-align: inherit; font-size: 16px;&quot;&gt;&lt;font style=&quot;vertical-align: inherit; font-size: 16px;&quot;&gt;&lt;font style=&quot;vertical-align: inherit; font-size: 16px;&quot;&gt;&lt;font style=&quot;vertical-align: inherit; font-size: 16px;&quot;&gt;System information processing&lt;/font&gt;&lt;/font&gt;&lt;/font&gt;&lt;/font&gt;" style="rounded=0;whiteSpace=wrap;html=1;fontSize=16;" parent="1" vertex="1">
          <mxGeometry x="410" y="610" width="205" height="40" as="geometry" />
        </mxCell>
        <mxCell id="LSZJkecF79FRnBt_k18C-58" style="edgeStyle=orthogonalEdgeStyle;rounded=0;orthogonalLoop=1;jettySize=auto;html=1;labelBackgroundColor=none;fontFamily=Helvetica;fontSize=16;fontColor=default;strokeColor=#000000;exitX=0.5;exitY=1;exitDx=0;exitDy=0;entryX=1;entryY=0.5;entryDx=0;entryDy=0;" parent="1" source="LSZJkecF79FRnBt_k18C-51" target="LSZJkecF79FRnBt_k18C-55" edge="1">
          <mxGeometry relative="1" as="geometry">
            <Array as="points" />
          </mxGeometry>
        </mxCell>
        <mxCell id="LSZJkecF79FRnBt_k18C-97" style="edgeStyle=orthogonalEdgeStyle;rounded=0;orthogonalLoop=1;jettySize=auto;html=1;entryX=0.5;entryY=0;entryDx=0;entryDy=0;labelBackgroundColor=none;fontFamily=Helvetica;fontSize=26;fontColor=#000000;strokeColor=#000000;exitX=0;exitY=0.5;exitDx=0;exitDy=0;" parent="1" source="LSZJkecF79FRnBt_k18C-51" target="LSZJkecF79FRnBt_k18C-54" edge="1">
          <mxGeometry relative="1" as="geometry">
            <Array as="points">
              <mxPoint x="235" y="510" />
            </Array>
          </mxGeometry>
        </mxCell>
        <mxCell id="LSZJkecF79FRnBt_k18C-51" value="&lt;font style=&quot;vertical-align: inherit&quot;&gt;&lt;font style=&quot;vertical-align: inherit&quot;&gt;Are credentials present?&lt;/font&gt;&lt;/font&gt;" style="rhombus;whiteSpace=wrap;html=1;labelBackgroundColor=none;labelBorderColor=none;fontFamily=Helvetica;fontSize=16;" parent="1" vertex="1">
          <mxGeometry x="286.25" y="440" width="147.5" height="140" as="geometry" />
        </mxCell>
        <mxCell id="LSZJkecF79FRnBt_k18C-94" style="edgeStyle=orthogonalEdgeStyle;rounded=0;orthogonalLoop=1;jettySize=auto;html=1;entryX=0.5;entryY=0;entryDx=0;entryDy=0;labelBackgroundColor=none;fontFamily=Helvetica;fontSize=26;fontColor=#000000;strokeColor=#000000;" parent="1" source="LSZJkecF79FRnBt_k18C-54" target="LSZJkecF79FRnBt_k18C-62" edge="1">
          <mxGeometry relative="1" as="geometry" />
        </mxCell>
        <mxCell id="LSZJkecF79FRnBt_k18C-54" value="&lt;font style=&quot;vertical-align: inherit; font-size: 16px;&quot;&gt;&lt;font style=&quot;vertical-align: inherit; font-size: 16px;&quot;&gt;&lt;font style=&quot;vertical-align: inherit; font-size: 16px;&quot;&gt;&lt;font style=&quot;vertical-align: inherit; font-size: 16px;&quot;&gt;Automatic login&lt;/font&gt;&lt;/font&gt;&lt;/font&gt;&lt;/font&gt;" style="rounded=0;whiteSpace=wrap;html=1;fontSize=16;" parent="1" vertex="1">
          <mxGeometry x="150" y="595" width="170" height="50" as="geometry" />
        </mxCell>
        <mxCell id="LSZJkecF79FRnBt_k18C-70" style="edgeStyle=orthogonalEdgeStyle;rounded=0;orthogonalLoop=1;jettySize=auto;html=1;labelBackgroundColor=none;fontFamily=Helvetica;fontSize=16;fontColor=#000000;strokeColor=#000000;" parent="1" source="LSZJkecF79FRnBt_k18C-55" target="LSZJkecF79FRnBt_k18C-68" edge="1">
          <mxGeometry relative="1" as="geometry" />
        </mxCell>
        <mxCell id="LSZJkecF79FRnBt_k18C-55" value="&lt;font style=&quot;vertical-align: inherit ; font-size: 16px&quot;&gt;&lt;font style=&quot;vertical-align: inherit ; font-size: 16px&quot;&gt;&lt;font style=&quot;vertical-align: inherit ; font-size: 16px&quot;&gt;&lt;font style=&quot;vertical-align: inherit ; font-size: 16px&quot;&gt;Loading page of authentication&lt;/font&gt;&lt;/font&gt;&lt;/font&gt;&lt;/font&gt;" style="rounded=0;whiteSpace=wrap;html=1;fontSize=16;" parent="1" vertex="1">
          <mxGeometry x="162.5" y="760" width="145" height="40" as="geometry" />
        </mxCell>
        <mxCell id="LSZJkecF79FRnBt_k18C-60" value="no" style="text;html=1;strokeColor=none;fillColor=none;align=center;verticalAlign=middle;whiteSpace=wrap;rounded=0;labelBackgroundColor=none;labelBorderColor=none;fontFamily=Helvetica;fontSize=16;fontColor=default;" parent="1" vertex="1">
          <mxGeometry x="350" y="595" width="60" height="30" as="geometry" />
        </mxCell>
        <mxCell id="LSZJkecF79FRnBt_k18C-61" value="yes" style="text;html=1;strokeColor=none;fillColor=none;align=center;verticalAlign=middle;whiteSpace=wrap;rounded=0;labelBackgroundColor=none;labelBorderColor=none;fontFamily=Helvetica;fontSize=16;fontColor=default;" parent="1" vertex="1">
          <mxGeometry x="240" y="480" width="60" height="30" as="geometry" />
        </mxCell>
        <mxCell id="LSZJkecF79FRnBt_k18C-62" value="Successfully?" style="rhombus;whiteSpace=wrap;html=1;labelBackgroundColor=none;labelBorderColor=none;fontFamily=Helvetica;fontSize=16;" parent="1" vertex="1">
          <mxGeometry x="170" y="660" width="130" height="80" as="geometry" />
        </mxCell>
        <mxCell id="LSZJkecF79FRnBt_k18C-63" value="no" style="edgeStyle=orthogonalEdgeStyle;html=1;align=left;verticalAlign=bottom;endArrow=open;endSize=8;strokeColor=#000000;rounded=0;labelBackgroundColor=none;fontFamily=Helvetica;fontSize=16;fontColor=#000000;entryX=0.5;entryY=0;entryDx=0;entryDy=0;" parent="1" source="LSZJkecF79FRnBt_k18C-62" target="LSZJkecF79FRnBt_k18C-55" edge="1">
          <mxGeometry y="5" relative="1" as="geometry">
            <mxPoint x="400" y="620" as="targetPoint" />
            <mxPoint y="-1" as="offset" />
          </mxGeometry>
        </mxCell>
        <mxCell id="LSZJkecF79FRnBt_k18C-74" value="" style="edgeStyle=orthogonalEdgeStyle;rounded=0;orthogonalLoop=1;jettySize=auto;html=1;labelBackgroundColor=none;fontFamily=Helvetica;fontSize=16;fontColor=#000000;strokeColor=#000000;" parent="1" source="LSZJkecF79FRnBt_k18C-68" target="LSZJkecF79FRnBt_k18C-71" edge="1">
          <mxGeometry relative="1" as="geometry" />
        </mxCell>
        <mxCell id="LSZJkecF79FRnBt_k18C-68" value="&lt;font style=&quot;vertical-align: inherit ; font-size: 16px&quot;&gt;&lt;font style=&quot;vertical-align: inherit ; font-size: 16px&quot;&gt;&lt;font style=&quot;vertical-align: inherit ; font-size: 16px&quot;&gt;&lt;font style=&quot;vertical-align: inherit ; font-size: 16px&quot;&gt;Submit Credentials&lt;/font&gt;&lt;/font&gt;&lt;/font&gt;&lt;/font&gt;" style="rounded=0;whiteSpace=wrap;html=1;fontSize=16;" parent="1" vertex="1">
          <mxGeometry x="162.5" y="820" width="145" height="40" as="geometry" />
        </mxCell>
        <mxCell id="LSZJkecF79FRnBt_k18C-86" style="edgeStyle=orthogonalEdgeStyle;rounded=0;orthogonalLoop=1;jettySize=auto;html=1;entryX=0;entryY=0.5;entryDx=0;entryDy=0;labelBackgroundColor=none;fontFamily=Helvetica;fontSize=16;fontColor=#000000;strokeColor=#000000;" parent="1" source="LSZJkecF79FRnBt_k18C-71" target="LSZJkecF79FRnBt_k18C-85" edge="1">
          <mxGeometry relative="1" as="geometry" />
        </mxCell>
        <mxCell id="LSZJkecF79FRnBt_k18C-71" value="Successfully?" style="rhombus;whiteSpace=wrap;html=1;labelBackgroundColor=none;labelBorderColor=none;fontFamily=Helvetica;fontSize=16;" parent="1" vertex="1">
          <mxGeometry x="170" y="880" width="130" height="80" as="geometry" />
        </mxCell>
        <mxCell id="LSZJkecF79FRnBt_k18C-72" value="no" style="edgeStyle=orthogonalEdgeStyle;html=1;align=left;verticalAlign=bottom;endArrow=open;endSize=8;strokeColor=#000000;rounded=0;labelBackgroundColor=none;fontFamily=Helvetica;fontSize=16;fontColor=#000000;entryX=0;entryY=0.5;entryDx=0;entryDy=0;exitX=0;exitY=0.5;exitDx=0;exitDy=0;" parent="1" source="LSZJkecF79FRnBt_k18C-71" target="LSZJkecF79FRnBt_k18C-55" edge="1">
          <mxGeometry x="-0.6" relative="1" as="geometry">
            <mxPoint x="235" y="1060" as="targetPoint" />
            <mxPoint as="offset" />
            <Array as="points">
              <mxPoint x="130" y="920" />
              <mxPoint x="130" y="780" />
            </Array>
          </mxGeometry>
        </mxCell>
        <mxCell id="LSZJkecF79FRnBt_k18C-73" value="yes" style="edgeStyle=orthogonalEdgeStyle;html=1;align=left;verticalAlign=top;endArrow=open;endSize=8;strokeColor=#000000;rounded=0;labelBackgroundColor=none;fontFamily=Helvetica;fontSize=16;fontColor=#000000;exitX=0.5;exitY=1;exitDx=0;exitDy=0;" parent="1" source="LSZJkecF79FRnBt_k18C-71" edge="1">
          <mxGeometry x="-0.4286" relative="1" as="geometry">
            <mxPoint x="100" y="980" as="targetPoint" />
            <Array as="points">
              <mxPoint x="235" y="980" />
              <mxPoint x="100" y="980" />
            </Array>
            <mxPoint as="offset" />
          </mxGeometry>
        </mxCell>
        <mxCell id="LSZJkecF79FRnBt_k18C-77" style="edgeStyle=orthogonalEdgeStyle;rounded=0;orthogonalLoop=1;jettySize=auto;html=1;entryX=1;entryY=0.5;entryDx=0;entryDy=0;fontFamily=Helvetica;fontSize=26;exitX=1;exitY=0.5;exitDx=0;exitDy=0;" parent="1" source="LSZJkecF79FRnBt_k18C-83" target="LSZJkecF79FRnBt_k18C-78" edge="1">
          <mxGeometry relative="1" as="geometry">
            <mxPoint x="1640" y="900" as="sourcePoint" />
          </mxGeometry>
        </mxCell>
        <mxCell id="LSZJkecF79FRnBt_k18C-78" value="" style="rounded=0;whiteSpace=wrap;html=1;labelBackgroundColor=none;labelBorderColor=none;fontFamily=Helvetica;fontSize=26;strokeColor=#000000;strokeWidth=1;fillColor=#FF0000;gradientColor=none;" parent="1" vertex="1">
          <mxGeometry x="1620" y="970" width="20" height="40" as="geometry" />
        </mxCell>
        <mxCell id="LSZJkecF79FRnBt_k18C-79" value="&lt;div style=&quot;text-align: right; font-size: 20px;&quot;&gt;&lt;span style=&quot;font-size: 20px;&quot;&gt;&lt;b style=&quot;font-size: 20px;&quot;&gt;NOTIFICATION&lt;/b&gt;&lt;/span&gt;&lt;/div&gt;" style="html=1;verticalAlign=bottom;startArrow=oval;startFill=1;endArrow=block;startSize=8;rounded=0;labelBackgroundColor=none;fontFamily=Helvetica;fontSize=20;fontColor=#000000;exitX=0;exitY=0.5;exitDx=0;exitDy=0;entryX=1;entryY=0.5;entryDx=0;entryDy=0;" parent="1" source="LSZJkecF79FRnBt_k18C-78" edge="1">
          <mxGeometry x="-0.4" width="60" relative="1" as="geometry">
            <mxPoint x="1100" y="1010" as="sourcePoint" />
            <mxPoint x="720" y="990" as="targetPoint" />
            <mxPoint as="offset" />
          </mxGeometry>
        </mxCell>
        <mxCell id="LSZJkecF79FRnBt_k18C-83" value="" style="rounded=0;whiteSpace=wrap;html=1;labelBackgroundColor=none;labelBorderColor=none;fontFamily=Helvetica;fontSize=26;strokeColor=#000000;strokeWidth=1;fillColor=#FF0000;gradientColor=none;" parent="1" vertex="1">
          <mxGeometry x="1620" y="900" width="20" height="40" as="geometry" />
        </mxCell>
        <mxCell id="LSZJkecF79FRnBt_k18C-85" value="" style="rounded=0;whiteSpace=wrap;html=1;labelBackgroundColor=none;labelBorderColor=none;fontFamily=Helvetica;fontSize=26;strokeColor=#000000;strokeWidth=1;fillColor=#FF0000;gradientColor=none;" parent="1" vertex="1">
          <mxGeometry x="700" y="900" width="20" height="40" as="geometry" />
        </mxCell>
        <mxCell id="LSZJkecF79FRnBt_k18C-88" value="yes" style="text;html=1;strokeColor=none;fillColor=none;align=center;verticalAlign=middle;whiteSpace=wrap;rounded=0;labelBackgroundColor=none;labelBorderColor=none;fontFamily=Helvetica;fontSize=16;fontColor=default;" parent="1" vertex="1">
          <mxGeometry x="300" y="885" width="60" height="30" as="geometry" />
        </mxCell>
        <mxCell id="LSZJkecF79FRnBt_k18C-91" style="edgeStyle=orthogonalEdgeStyle;rounded=0;orthogonalLoop=1;jettySize=auto;html=1;entryX=1;entryY=0.5;entryDx=0;entryDy=0;labelBackgroundColor=none;fontFamily=Helvetica;fontSize=20;fontColor=#000000;strokeColor=#000000;" parent="1" source="LSZJkecF79FRnBt_k18C-89" target="LSZJkecF79FRnBt_k18C-90" edge="1">
          <mxGeometry relative="1" as="geometry" />
        </mxCell>
        <mxCell id="LSZJkecF79FRnBt_k18C-89" value="" style="rounded=0;whiteSpace=wrap;html=1;labelBackgroundColor=none;labelBorderColor=none;fontFamily=Helvetica;fontSize=26;strokeColor=#000000;strokeWidth=1;fillColor=#FF0000;gradientColor=none;" parent="1" vertex="1">
          <mxGeometry x="700" y="970" width="20" height="40" as="geometry" />
        </mxCell>
        <mxCell id="LSZJkecF79FRnBt_k18C-90" value="&lt;font style=&quot;vertical-align: inherit ; font-size: 16px&quot;&gt;&lt;font style=&quot;vertical-align: inherit ; font-size: 16px&quot;&gt;Notification: data saved&lt;/font&gt;&lt;/font&gt;" style="rounded=0;whiteSpace=wrap;html=1;fontSize=16;" parent="1" vertex="1">
          <mxGeometry x="410" y="970" width="205" height="40" as="geometry" />
        </mxCell>
        <mxCell id="LSZJkecF79FRnBt_k18C-64" value="yes" style="edgeStyle=orthogonalEdgeStyle;html=1;align=left;verticalAlign=top;endArrow=open;endSize=8;strokeColor=#000000;rounded=0;labelBackgroundColor=none;fontFamily=Helvetica;fontSize=16;fontColor=#000000;exitX=0;exitY=0.5;exitDx=0;exitDy=0;entryX=0;entryY=0.5;entryDx=0;entryDy=0;" parent="1" source="LSZJkecF79FRnBt_k18C-62" target="LSZJkecF79FRnBt_k18C-106" edge="1">
          <mxGeometry x="-0.828" relative="1" as="geometry">
            <mxPoint x="96.25" y="1395" as="targetPoint" />
            <mxPoint x="140" y="700" as="sourcePoint" />
            <Array as="points">
              <mxPoint x="100" y="700" />
              <mxPoint x="100" y="1103" />
            </Array>
            <mxPoint as="offset" />
          </mxGeometry>
        </mxCell>
        <mxCell id="LSZJkecF79FRnBt_k18C-229" style="edgeStyle=orthogonalEdgeStyle;rounded=0;orthogonalLoop=1;jettySize=auto;html=1;labelBackgroundColor=#FFF2CC;fontFamily=Helvetica;fontSize=16;fontColor=#FFF2CC;strokeColor=#000000;exitX=0.5;exitY=1;exitDx=0;exitDy=0;" parent="1" source="LSZJkecF79FRnBt_k18C-106" target="LSZJkecF79FRnBt_k18C-203" edge="1">
          <mxGeometry relative="1" as="geometry">
            <Array as="points">
              <mxPoint x="323" y="1170" />
              <mxPoint x="50" y="1170" />
              <mxPoint x="50" y="2780" />
            </Array>
            <mxPoint x="168.75" y="2392.5" as="targetPoint" />
          </mxGeometry>
        </mxCell>
        <mxCell id="5D_WGOOgCdQyPNJXZ3vt-7" style="edgeStyle=orthogonalEdgeStyle;rounded=0;orthogonalLoop=1;jettySize=auto;html=1;labelBackgroundColor=none;fontSize=24;fontColor=#FFFFFF;" parent="1" source="LSZJkecF79FRnBt_k18C-106" target="LSZJkecF79FRnBt_k18C-114" edge="1">
          <mxGeometry relative="1" as="geometry">
            <mxPoint x="322.5" y="1255" as="targetPoint" />
            <Array as="points">
              <mxPoint x="550" y="1103" />
              <mxPoint x="550" y="1303" />
            </Array>
          </mxGeometry>
        </mxCell>
        <mxCell id="LSZJkecF79FRnBt_k18C-106" value="Loading dashboard" style="rounded=1;whiteSpace=wrap;html=1;arcSize=50;fontSize=26;" parent="1" vertex="1">
          <mxGeometry x="120" y="1060" width="405" height="85" as="geometry" />
        </mxCell>
        <mxCell id="LSZJkecF79FRnBt_k18C-84" value="&lt;span style=&quot;font-size: 20px; text-align: center;&quot;&gt;SAVE_CREDENTIALS&lt;/span&gt;" style="html=1;verticalAlign=bottom;startArrow=oval;startFill=1;endArrow=block;startSize=8;rounded=0;fontFamily=Helvetica;fontSize=20;entryX=0;entryY=0.5;entryDx=0;entryDy=0;fontStyle=1;align=right;labelPosition=left;verticalLabelPosition=top;exitX=1;exitY=0.5;exitDx=0;exitDy=0;labelBackgroundColor=none;" parent="1" source="LSZJkecF79FRnBt_k18C-85" target="LSZJkecF79FRnBt_k18C-83" edge="1">
          <mxGeometry x="-0.4889" width="60" relative="1" as="geometry">
            <mxPoint x="730" y="920" as="sourcePoint" />
            <mxPoint x="1285" y="920" as="targetPoint" />
            <mxPoint as="offset" />
          </mxGeometry>
        </mxCell>
        <mxCell id="LSZJkecF79FRnBt_k18C-110" style="edgeStyle=orthogonalEdgeStyle;rounded=0;orthogonalLoop=1;jettySize=auto;html=1;entryX=1;entryY=0.5;entryDx=0;entryDy=0;fontFamily=Helvetica;fontSize=26;exitX=1;exitY=0.5;exitDx=0;exitDy=0;" parent="1" source="LSZJkecF79FRnBt_k18C-113" target="LSZJkecF79FRnBt_k18C-111" edge="1">
          <mxGeometry relative="1" as="geometry">
            <mxPoint x="1650" y="1380" as="sourcePoint" />
            <Array as="points">
              <mxPoint x="1650" y="1280" />
              <mxPoint x="1700" y="1280" />
              <mxPoint x="1700" y="1450" />
            </Array>
          </mxGeometry>
        </mxCell>
        <mxCell id="LSZJkecF79FRnBt_k18C-111" value="" style="rounded=0;whiteSpace=wrap;html=1;labelBackgroundColor=none;labelBorderColor=none;fontFamily=Helvetica;fontSize=26;strokeColor=#000000;strokeWidth=1;fillColor=#FF0000;gradientColor=none;" parent="1" vertex="1">
          <mxGeometry x="1620" y="1450" width="20" height="40" as="geometry" />
        </mxCell>
        <mxCell id="LSZJkecF79FRnBt_k18C-112" value="&lt;div style=&quot;text-align: right&quot;&gt;&lt;b&gt;SET_MAPPED_CHANNELS&lt;/b&gt;&lt;br&gt;&lt;/div&gt;" style="html=1;verticalAlign=bottom;startArrow=oval;startFill=1;endArrow=block;startSize=8;rounded=0;labelBackgroundColor=none;fontFamily=Helvetica;fontSize=20;fontColor=#000000;exitX=0;exitY=0.5;exitDx=0;exitDy=0;entryX=1;entryY=0.5;entryDx=0;entryDy=0;" parent="1" source="LSZJkecF79FRnBt_k18C-111" target="LSZJkecF79FRnBt_k18C-115" edge="1">
          <mxGeometry x="-0.4945" width="60" relative="1" as="geometry">
            <mxPoint x="1110" y="1490" as="sourcePoint" />
            <mxPoint x="730" y="1470" as="targetPoint" />
            <mxPoint x="1" as="offset" />
          </mxGeometry>
        </mxCell>
        <mxCell id="LSZJkecF79FRnBt_k18C-113" value="" style="rounded=0;whiteSpace=wrap;html=1;labelBackgroundColor=none;labelBorderColor=none;fontFamily=Helvetica;fontSize=26;strokeColor=#000000;strokeWidth=1;fillColor=#FF0000;gradientColor=none;" parent="1" vertex="1">
          <mxGeometry x="1620" y="1255" width="20" height="40" as="geometry" />
        </mxCell>
        <mxCell id="LSZJkecF79FRnBt_k18C-114" value="" style="rounded=0;whiteSpace=wrap;html=1;labelBackgroundColor=none;labelBorderColor=none;fontFamily=Helvetica;fontSize=26;strokeColor=#000000;strokeWidth=1;fillColor=#FF0000;gradientColor=none;" parent="1" vertex="1">
          <mxGeometry x="700" y="1255" width="20" height="95" as="geometry" />
        </mxCell>
        <mxCell id="LSZJkecF79FRnBt_k18C-147" style="edgeStyle=orthogonalEdgeStyle;rounded=0;orthogonalLoop=1;jettySize=auto;html=1;labelBackgroundColor=none;fontFamily=Helvetica;fontSize=26;fontColor=#000000;strokeColor=#000000;" parent="1" source="LSZJkecF79FRnBt_k18C-115" edge="1">
          <mxGeometry relative="1" as="geometry">
            <mxPoint x="370" y="1410" as="targetPoint" />
          </mxGeometry>
        </mxCell>
        <mxCell id="LSZJkecF79FRnBt_k18C-115" value="" style="rounded=0;whiteSpace=wrap;html=1;labelBackgroundColor=none;labelBorderColor=none;fontFamily=Helvetica;fontSize=26;strokeColor=#000000;strokeWidth=1;fillColor=#FF0000;gradientColor=none;" parent="1" vertex="1">
          <mxGeometry x="700" y="1450" width="20" height="40" as="geometry" />
        </mxCell>
        <mxCell id="LSZJkecF79FRnBt_k18C-116" value="&lt;div style=&quot;text-align: center&quot;&gt;GET_MAPPED_CHANNELS&lt;/div&gt;" style="html=1;verticalAlign=bottom;startArrow=oval;startFill=1;endArrow=block;startSize=8;rounded=0;fontFamily=Helvetica;fontSize=20;entryX=0;entryY=0.5;entryDx=0;entryDy=0;fontStyle=1;align=right;labelPosition=left;verticalLabelPosition=top;exitX=0.961;exitY=0.218;exitDx=0;exitDy=0;exitPerimeter=0;labelBackgroundColor=none;" parent="1" source="LSZJkecF79FRnBt_k18C-114" target="LSZJkecF79FRnBt_k18C-113" edge="1">
          <mxGeometry x="-0.3834" width="60" relative="1" as="geometry">
            <mxPoint x="730" y="1275" as="sourcePoint" />
            <mxPoint x="1295" y="1275" as="targetPoint" />
            <mxPoint as="offset" />
          </mxGeometry>
        </mxCell>
        <mxCell id="LSZJkecF79FRnBt_k18C-124" style="edgeStyle=orthogonalEdgeStyle;rounded=0;orthogonalLoop=1;jettySize=auto;html=1;entryX=1;entryY=0.5;entryDx=0;entryDy=0;fontFamily=Helvetica;fontSize=26;exitX=1;exitY=0.5;exitDx=0;exitDy=0;" parent="1" source="LSZJkecF79FRnBt_k18C-127" target="LSZJkecF79FRnBt_k18C-125" edge="1">
          <mxGeometry relative="1" as="geometry">
            <mxPoint x="1650" y="1315" as="sourcePoint" />
          </mxGeometry>
        </mxCell>
        <mxCell id="LSZJkecF79FRnBt_k18C-125" value="" style="rounded=0;whiteSpace=wrap;html=1;labelBackgroundColor=none;labelBorderColor=none;fontFamily=Helvetica;fontSize=26;strokeColor=#000000;strokeWidth=1;fillColor=#FF0000;gradientColor=none;" parent="1" vertex="1">
          <mxGeometry x="1620" y="1385" width="20" height="40" as="geometry" />
        </mxCell>
        <mxCell id="LSZJkecF79FRnBt_k18C-126" value="&lt;div style=&quot;text-align: right&quot;&gt;&lt;b&gt;SET_SALES_CHANNELS_PROVIDED&lt;/b&gt;&lt;br&gt;&lt;/div&gt;" style="html=1;verticalAlign=bottom;startArrow=oval;startFill=1;endArrow=block;startSize=8;rounded=0;labelBackgroundColor=none;fontFamily=Helvetica;fontSize=20;fontColor=#000000;exitX=0;exitY=0.5;exitDx=0;exitDy=0;entryX=1;entryY=0.5;entryDx=0;entryDy=0;" parent="1" source="LSZJkecF79FRnBt_k18C-125" target="LSZJkecF79FRnBt_k18C-129" edge="1">
          <mxGeometry x="-0.6044" width="60" relative="1" as="geometry">
            <mxPoint x="1110" y="1425" as="sourcePoint" />
            <mxPoint x="730" y="1405" as="targetPoint" />
            <mxPoint as="offset" />
          </mxGeometry>
        </mxCell>
        <mxCell id="LSZJkecF79FRnBt_k18C-127" value="" style="rounded=0;whiteSpace=wrap;html=1;labelBackgroundColor=none;labelBorderColor=none;fontFamily=Helvetica;fontSize=26;strokeColor=#000000;strokeWidth=1;fillColor=#FF0000;gradientColor=none;" parent="1" vertex="1">
          <mxGeometry x="1620" y="1315" width="20" height="40" as="geometry" />
        </mxCell>
        <mxCell id="LSZJkecF79FRnBt_k18C-144" style="edgeStyle=orthogonalEdgeStyle;rounded=0;orthogonalLoop=1;jettySize=auto;html=1;labelBackgroundColor=none;fontFamily=Helvetica;fontSize=26;fontColor=#000000;strokeColor=#000000;" parent="1" source="LSZJkecF79FRnBt_k18C-129" target="LSZJkecF79FRnBt_k18C-133" edge="1">
          <mxGeometry relative="1" as="geometry" />
        </mxCell>
        <mxCell id="LSZJkecF79FRnBt_k18C-129" value="" style="rounded=0;whiteSpace=wrap;html=1;labelBackgroundColor=none;labelBorderColor=none;fontFamily=Helvetica;fontSize=26;strokeColor=#000000;strokeWidth=1;fillColor=#FF0000;gradientColor=none;" parent="1" vertex="1">
          <mxGeometry x="700" y="1385" width="20" height="40" as="geometry" />
        </mxCell>
        <mxCell id="LSZJkecF79FRnBt_k18C-130" value="&lt;div style=&quot;text-align: center&quot;&gt;GET_SALES_CHANNELS_PROVIDED&lt;/div&gt;" style="html=1;verticalAlign=bottom;startArrow=oval;startFill=1;endArrow=block;startSize=8;rounded=0;fontFamily=Helvetica;fontSize=20;entryX=0;entryY=0.5;entryDx=0;entryDy=0;fontStyle=1;align=right;labelPosition=left;verticalLabelPosition=top;exitX=1;exitY=0.5;exitDx=0;exitDy=0;labelBackgroundColor=none;" parent="1" target="LSZJkecF79FRnBt_k18C-127" edge="1">
          <mxGeometry x="-0.1648" width="60" relative="1" as="geometry">
            <mxPoint x="720" y="1335" as="sourcePoint" />
            <mxPoint x="1295" y="1335" as="targetPoint" />
            <mxPoint as="offset" />
          </mxGeometry>
        </mxCell>
        <mxCell id="LSZJkecF79FRnBt_k18C-133" value="Channel mapping present" style="rhombus;whiteSpace=wrap;html=1;labelBackgroundColor=none;labelBorderColor=none;fontFamily=Helvetica;fontSize=19;" parent="1" vertex="1">
          <mxGeometry x="230" y="1350" width="140" height="110" as="geometry" />
        </mxCell>
        <mxCell id="LSZJkecF79FRnBt_k18C-134" value="no" style="edgeStyle=orthogonalEdgeStyle;html=1;align=left;verticalAlign=bottom;endArrow=open;endSize=8;strokeColor=#000000;rounded=0;labelBackgroundColor=none;fontFamily=Helvetica;fontSize=26;fontColor=#000000;exitX=0.5;exitY=1;exitDx=0;exitDy=0;entryX=0.5;entryY=0;entryDx=0;entryDy=0;" parent="1" source="LSZJkecF79FRnBt_k18C-133" target="LSZJkecF79FRnBt_k18C-140" edge="1">
          <mxGeometry x="-0.2" y="10" relative="1" as="geometry">
            <mxPoint x="300" y="1475" as="targetPoint" />
            <Array as="points" />
            <mxPoint as="offset" />
          </mxGeometry>
        </mxCell>
        <mxCell id="LSZJkecF79FRnBt_k18C-135" value="yes" style="edgeStyle=orthogonalEdgeStyle;html=1;align=left;verticalAlign=top;endArrow=open;endSize=8;strokeColor=#000000;rounded=0;labelBackgroundColor=none;fontFamily=Helvetica;fontSize=26;fontColor=#000000;exitX=0;exitY=0.5;exitDx=0;exitDy=0;entryX=0;entryY=0.5;entryDx=0;entryDy=0;" parent="1" source="LSZJkecF79FRnBt_k18C-133" target="LSZJkecF79FRnBt_k18C-173" edge="1">
          <mxGeometry x="-0.8712" y="-50" relative="1" as="geometry">
            <mxPoint x="220" y="1485" as="targetPoint" />
            <Array as="points">
              <mxPoint x="200" y="1405" />
              <mxPoint x="200" y="1810" />
            </Array>
            <mxPoint y="1" as="offset" />
          </mxGeometry>
        </mxCell>
        <mxCell id="LSZJkecF79FRnBt_k18C-140" value="Automatic matching" style="rhombus;whiteSpace=wrap;html=1;labelBackgroundColor=none;labelBorderColor=none;fontFamily=Helvetica;fontSize=19;" parent="1" vertex="1">
          <mxGeometry x="230" y="1515" width="140" height="110" as="geometry" />
        </mxCell>
        <mxCell id="LSZJkecF79FRnBt_k18C-141" value="no" style="edgeStyle=orthogonalEdgeStyle;html=1;align=left;verticalAlign=bottom;endArrow=open;endSize=8;strokeColor=#000000;rounded=0;labelBackgroundColor=none;fontFamily=Helvetica;fontSize=26;fontColor=#000000;exitX=0.5;exitY=1;exitDx=0;exitDy=0;" parent="1" source="LSZJkecF79FRnBt_k18C-140" target="LSZJkecF79FRnBt_k18C-165" edge="1">
          <mxGeometry x="0.4286" relative="1" as="geometry">
            <mxPoint x="300" y="1635" as="targetPoint" />
            <Array as="points" />
            <mxPoint as="offset" />
          </mxGeometry>
        </mxCell>
        <mxCell id="LSZJkecF79FRnBt_k18C-142" value="yes" style="edgeStyle=orthogonalEdgeStyle;html=1;align=left;verticalAlign=top;endArrow=open;endSize=8;strokeColor=#000000;rounded=0;labelBackgroundColor=none;fontFamily=Helvetica;fontSize=26;fontColor=#000000;exitX=1;exitY=0.5;exitDx=0;exitDy=0;entryX=0;entryY=0.5;entryDx=0;entryDy=0;" parent="1" source="LSZJkecF79FRnBt_k18C-140" target="LSZJkecF79FRnBt_k18C-161" edge="1">
          <mxGeometry x="-0.8788" y="10" relative="1" as="geometry">
            <mxPoint x="380" y="1570" as="targetPoint" />
            <mxPoint as="offset" />
          </mxGeometry>
        </mxCell>
        <mxCell id="LSZJkecF79FRnBt_k18C-157" style="edgeStyle=orthogonalEdgeStyle;rounded=0;orthogonalLoop=1;jettySize=auto;html=1;entryX=1;entryY=0.5;entryDx=0;entryDy=0;fontFamily=Helvetica;fontSize=26;exitX=1;exitY=0.5;exitDx=0;exitDy=0;" parent="1" source="LSZJkecF79FRnBt_k18C-160" target="LSZJkecF79FRnBt_k18C-158" edge="1">
          <mxGeometry relative="1" as="geometry">
            <mxPoint x="1640" y="1550" as="sourcePoint" />
          </mxGeometry>
        </mxCell>
        <mxCell id="LSZJkecF79FRnBt_k18C-158" value="" style="rounded=0;whiteSpace=wrap;html=1;labelBackgroundColor=none;labelBorderColor=none;fontFamily=Helvetica;fontSize=26;strokeColor=#000000;strokeWidth=1;fillColor=#FF0000;gradientColor=none;" parent="1" vertex="1">
          <mxGeometry x="1620" y="1730" width="20" height="40" as="geometry" />
        </mxCell>
        <mxCell id="LSZJkecF79FRnBt_k18C-159" value="&lt;b style=&quot;text-align: right&quot;&gt;NOTIFICATION&lt;br&gt;&lt;/b&gt;" style="html=1;verticalAlign=bottom;startArrow=oval;startFill=1;endArrow=block;startSize=8;rounded=0;labelBackgroundColor=none;fontFamily=Helvetica;fontSize=20;fontColor=#000000;exitX=0;exitY=0.5;exitDx=0;exitDy=0;entryX=1;entryY=0.5;entryDx=0;entryDy=0;" parent="1" source="LSZJkecF79FRnBt_k18C-158" edge="1">
          <mxGeometry x="-0.4" width="60" relative="1" as="geometry">
            <mxPoint x="1100" y="1770" as="sourcePoint" />
            <mxPoint x="720" y="1750" as="targetPoint" />
            <mxPoint as="offset" />
          </mxGeometry>
        </mxCell>
        <mxCell id="LSZJkecF79FRnBt_k18C-170" style="edgeStyle=orthogonalEdgeStyle;rounded=0;orthogonalLoop=1;jettySize=auto;html=1;entryX=1;entryY=0.5;entryDx=0;entryDy=0;labelBackgroundColor=none;fontFamily=Helvetica;fontSize=19;fontColor=#000000;strokeColor=#000000;" parent="1" source="LSZJkecF79FRnBt_k18C-160" target="LSZJkecF79FRnBt_k18C-167" edge="1">
          <mxGeometry relative="1" as="geometry">
            <Array as="points">
              <mxPoint x="1660" y="1570" />
              <mxPoint x="1660" y="1810" />
            </Array>
          </mxGeometry>
        </mxCell>
        <mxCell id="LSZJkecF79FRnBt_k18C-160" value="" style="rounded=0;whiteSpace=wrap;html=1;labelBackgroundColor=none;labelBorderColor=none;fontFamily=Helvetica;fontSize=26;strokeColor=#000000;strokeWidth=1;fillColor=#FF0000;gradientColor=none;" parent="1" vertex="1">
          <mxGeometry x="1620" y="1550" width="20" height="40" as="geometry" />
        </mxCell>
        <mxCell id="LSZJkecF79FRnBt_k18C-161" value="" style="rounded=0;whiteSpace=wrap;html=1;labelBackgroundColor=none;labelBorderColor=none;fontFamily=Helvetica;fontSize=26;strokeColor=#000000;strokeWidth=1;fillColor=#FF0000;gradientColor=none;" parent="1" vertex="1">
          <mxGeometry x="700" y="1550" width="20" height="40" as="geometry" />
        </mxCell>
        <mxCell id="LSZJkecF79FRnBt_k18C-162" value="" style="rounded=0;whiteSpace=wrap;html=1;labelBackgroundColor=none;labelBorderColor=none;fontFamily=Helvetica;fontSize=26;strokeColor=#000000;strokeWidth=1;fillColor=#FF0000;gradientColor=none;" parent="1" vertex="1">
          <mxGeometry x="700" y="1730" width="20" height="40" as="geometry" />
        </mxCell>
        <mxCell id="LSZJkecF79FRnBt_k18C-163" value="&lt;div style=&quot;text-align: center&quot;&gt;SAVE_MAPPED_CHANNEL&lt;/div&gt;" style="html=1;verticalAlign=bottom;startArrow=oval;startFill=1;endArrow=block;startSize=8;rounded=0;fontFamily=Helvetica;fontSize=20;entryX=0;entryY=0.5;entryDx=0;entryDy=0;fontStyle=1;align=right;labelPosition=left;verticalLabelPosition=top;exitX=1;exitY=0.5;exitDx=0;exitDy=0;labelBackgroundColor=none;" parent="1" source="LSZJkecF79FRnBt_k18C-161" target="LSZJkecF79FRnBt_k18C-160" edge="1">
          <mxGeometry x="-0.4" width="60" relative="1" as="geometry">
            <mxPoint x="730" y="1570" as="sourcePoint" />
            <mxPoint x="1285" y="1570" as="targetPoint" />
            <mxPoint as="offset" />
          </mxGeometry>
        </mxCell>
        <mxCell id="LSZJkecF79FRnBt_k18C-166" style="edgeStyle=orthogonalEdgeStyle;rounded=0;orthogonalLoop=1;jettySize=auto;html=1;labelBackgroundColor=none;fontFamily=Helvetica;fontSize=19;fontColor=#000000;strokeColor=#000000;" parent="1" source="LSZJkecF79FRnBt_k18C-165" edge="1">
          <mxGeometry relative="1" as="geometry">
            <mxPoint x="620" y="1570" as="targetPoint" />
          </mxGeometry>
        </mxCell>
        <mxCell id="LSZJkecF79FRnBt_k18C-165" value="&lt;font style=&quot;vertical-align: inherit ; font-size: 16px&quot;&gt;&lt;font style=&quot;vertical-align: inherit ; font-size: 16px&quot;&gt;&lt;font style=&quot;vertical-align: inherit ; font-size: 16px&quot;&gt;&lt;font style=&quot;vertical-align: inherit ; font-size: 16px&quot;&gt;Mapping in a modal window. Save&lt;/font&gt;&lt;/font&gt;&lt;/font&gt;&lt;/font&gt;" style="rounded=0;whiteSpace=wrap;html=1;fontSize=16;" parent="1" vertex="1">
          <mxGeometry x="227.5" y="1660" width="145" height="40" as="geometry" />
        </mxCell>
        <mxCell id="LSZJkecF79FRnBt_k18C-167" value="" style="rounded=0;whiteSpace=wrap;html=1;labelBackgroundColor=none;labelBorderColor=none;fontFamily=Helvetica;fontSize=26;strokeColor=#000000;strokeWidth=1;fillColor=#FF0000;gradientColor=none;" parent="1" vertex="1">
          <mxGeometry x="1620" y="1790" width="20" height="40" as="geometry" />
        </mxCell>
        <mxCell id="LSZJkecF79FRnBt_k18C-168" value="&lt;div style=&quot;text-align: right ; font-size: 20px&quot;&gt;&lt;b&gt;SET_MAPPED_CHANNELS&lt;/b&gt;&lt;br&gt;&lt;/div&gt;" style="html=1;verticalAlign=bottom;startArrow=oval;startFill=1;endArrow=block;startSize=8;rounded=0;labelBackgroundColor=none;fontFamily=Helvetica;fontSize=20;fontColor=#000000;exitX=0;exitY=0.5;exitDx=0;exitDy=0;entryX=1;entryY=0.5;entryDx=0;entryDy=0;" parent="1" source="LSZJkecF79FRnBt_k18C-167" edge="1">
          <mxGeometry x="-0.5333" width="60" relative="1" as="geometry">
            <mxPoint x="1100" y="1830" as="sourcePoint" />
            <mxPoint x="720" y="1810" as="targetPoint" />
            <mxPoint as="offset" />
          </mxGeometry>
        </mxCell>
        <mxCell id="LSZJkecF79FRnBt_k18C-174" style="edgeStyle=orthogonalEdgeStyle;rounded=0;orthogonalLoop=1;jettySize=auto;html=1;entryX=1;entryY=0.5;entryDx=0;entryDy=0;labelBackgroundColor=none;fontFamily=Helvetica;fontSize=19;fontColor=#000000;strokeColor=#000000;" parent="1" source="LSZJkecF79FRnBt_k18C-169" target="LSZJkecF79FRnBt_k18C-173" edge="1">
          <mxGeometry relative="1" as="geometry" />
        </mxCell>
        <mxCell id="LSZJkecF79FRnBt_k18C-169" value="" style="rounded=0;whiteSpace=wrap;html=1;labelBackgroundColor=none;labelBorderColor=none;fontFamily=Helvetica;fontSize=26;strokeColor=#000000;strokeWidth=1;fillColor=#FF0000;gradientColor=none;" parent="1" vertex="1">
          <mxGeometry x="700" y="1790" width="20" height="40" as="geometry" />
        </mxCell>
        <mxCell id="LSZJkecF79FRnBt_k18C-171" style="edgeStyle=orthogonalEdgeStyle;rounded=0;orthogonalLoop=1;jettySize=auto;html=1;entryX=1;entryY=0.5;entryDx=0;entryDy=0;labelBackgroundColor=none;fontFamily=Helvetica;fontSize=20;fontColor=#000000;strokeColor=#000000;" parent="1" target="LSZJkecF79FRnBt_k18C-172" edge="1">
          <mxGeometry relative="1" as="geometry">
            <mxPoint x="700" y="1750" as="sourcePoint" />
          </mxGeometry>
        </mxCell>
        <mxCell id="LSZJkecF79FRnBt_k18C-172" value="&lt;font style=&quot;vertical-align: inherit ; font-size: 16px&quot;&gt;&lt;font style=&quot;vertical-align: inherit ; font-size: 16px&quot;&gt;Notification: data saved&lt;/font&gt;&lt;/font&gt;" style="rounded=0;whiteSpace=wrap;html=1;fontSize=16;" parent="1" vertex="1">
          <mxGeometry x="410" y="1730" width="205" height="40" as="geometry" />
        </mxCell>
        <mxCell id="LSZJkecF79FRnBt_k18C-211" style="edgeStyle=orthogonalEdgeStyle;rounded=0;orthogonalLoop=1;jettySize=auto;html=1;entryX=0.5;entryY=0;entryDx=0;entryDy=0;entryPerimeter=0;labelBackgroundColor=#FFF2CC;fontFamily=Helvetica;fontSize=19;fontColor=#FFF2CC;strokeColor=#000000;" parent="1" source="LSZJkecF79FRnBt_k18C-173" target="LSZJkecF79FRnBt_k18C-209" edge="1">
          <mxGeometry relative="1" as="geometry" />
        </mxCell>
        <mxCell id="LSZJkecF79FRnBt_k18C-173" value="&lt;font style=&quot;vertical-align: inherit ; font-size: 16px&quot;&gt;&lt;font style=&quot;vertical-align: inherit ; font-size: 16px&quot;&gt;&lt;font style=&quot;vertical-align: inherit ; font-size: 16px&quot;&gt;&lt;font style=&quot;vertical-align: inherit ; font-size: 16px&quot;&gt;Auto-select first matched element&lt;/font&gt;&lt;/font&gt;&lt;/font&gt;&lt;/font&gt;" style="rounded=0;whiteSpace=wrap;html=1;fontSize=16;" parent="1" vertex="1">
          <mxGeometry x="230" y="1790" width="145" height="40" as="geometry" />
        </mxCell>
        <mxCell id="g-a9l5bh9RtnpEigGKmV-9" style="edgeStyle=orthogonalEdgeStyle;rounded=0;orthogonalLoop=1;jettySize=auto;html=1;entryX=1;entryY=0.5;entryDx=0;entryDy=0;" parent="1" source="LSZJkecF79FRnBt_k18C-178" target="g-a9l5bh9RtnpEigGKmV-6" edge="1">
          <mxGeometry relative="1" as="geometry">
            <Array as="points">
              <mxPoint x="1820" y="1940" />
              <mxPoint x="1820" y="4360" />
            </Array>
          </mxGeometry>
        </mxCell>
        <mxCell id="LSZJkecF79FRnBt_k18C-178" value="" style="rounded=0;whiteSpace=wrap;html=1;labelBackgroundColor=none;labelBorderColor=none;fontFamily=Helvetica;fontSize=26;strokeColor=#000000;strokeWidth=1;fillColor=#FF0000;gradientColor=none;" parent="1" vertex="1">
          <mxGeometry x="1620" y="1920" width="20" height="40" as="geometry" />
        </mxCell>
        <mxCell id="LSZJkecF79FRnBt_k18C-179" value="" style="rounded=0;whiteSpace=wrap;html=1;labelBackgroundColor=none;labelBorderColor=none;fontFamily=Helvetica;fontSize=26;strokeColor=#000000;strokeWidth=1;fillColor=#FF0000;gradientColor=none;" parent="1" vertex="1">
          <mxGeometry x="700" y="1920" width="20" height="450" as="geometry" />
        </mxCell>
        <mxCell id="LSZJkecF79FRnBt_k18C-180" value="&lt;div style=&quot;text-align: center&quot;&gt;GET_PRODUCT_REVIEW_FOR_CHANNEL&lt;/div&gt;" style="html=1;verticalAlign=bottom;startArrow=oval;startFill=1;endArrow=block;startSize=8;rounded=0;fontFamily=Helvetica;fontSize=20;entryX=0;entryY=0.5;entryDx=0;entryDy=0;fontStyle=1;align=right;labelPosition=left;verticalLabelPosition=top;exitX=1.009;exitY=0.061;exitDx=0;exitDy=0;exitPerimeter=0;labelBackgroundColor=none;" parent="1" source="LSZJkecF79FRnBt_k18C-179" target="LSZJkecF79FRnBt_k18C-178" edge="1">
          <mxGeometry x="-0.0667" width="60" relative="1" as="geometry">
            <mxPoint x="730" y="1940" as="sourcePoint" />
            <mxPoint x="1285" y="1940" as="targetPoint" />
            <mxPoint as="offset" />
          </mxGeometry>
        </mxCell>
        <mxCell id="g-a9l5bh9RtnpEigGKmV-5" style="edgeStyle=orthogonalEdgeStyle;rounded=0;orthogonalLoop=1;jettySize=auto;html=1;entryX=1;entryY=0.5;entryDx=0;entryDy=0;" parent="1" source="LSZJkecF79FRnBt_k18C-181" target="g-a9l5bh9RtnpEigGKmV-2" edge="1">
          <mxGeometry relative="1" as="geometry">
            <Array as="points">
              <mxPoint x="1800" y="2000" />
              <mxPoint x="1800" y="4280" />
            </Array>
          </mxGeometry>
        </mxCell>
        <mxCell id="LSZJkecF79FRnBt_k18C-181" value="" style="rounded=0;whiteSpace=wrap;html=1;labelBackgroundColor=none;labelBorderColor=none;fontFamily=Helvetica;fontSize=26;strokeColor=#000000;strokeWidth=1;fillColor=#FF0000;gradientColor=none;" parent="1" vertex="1">
          <mxGeometry x="1620" y="1980" width="20" height="40" as="geometry" />
        </mxCell>
        <mxCell id="LSZJkecF79FRnBt_k18C-183" value="&lt;div style=&quot;text-align: center&quot;&gt;GET_USE_ESTIMATED_DELIVERY_DATE_FOR_CHANNEL&lt;/div&gt;" style="html=1;verticalAlign=bottom;startArrow=oval;startFill=1;endArrow=block;startSize=8;rounded=0;fontFamily=Helvetica;fontSize=20;entryX=0;entryY=0.5;entryDx=0;entryDy=0;fontStyle=1;align=right;labelPosition=left;verticalLabelPosition=top;labelBackgroundColor=none;" parent="1" target="LSZJkecF79FRnBt_k18C-181" edge="1">
          <mxGeometry x="0.662" width="60" relative="1" as="geometry">
            <mxPoint x="910" y="2000" as="sourcePoint" />
            <mxPoint x="1285" y="2000" as="targetPoint" />
            <mxPoint as="offset" />
          </mxGeometry>
        </mxCell>
        <mxCell id="5D_WGOOgCdQyPNJXZ3vt-21" style="edgeStyle=orthogonalEdgeStyle;rounded=0;orthogonalLoop=1;jettySize=auto;html=1;entryX=1;entryY=0.5;entryDx=0;entryDy=0;labelBackgroundColor=none;fontSize=29;fontColor=#FFFFFF;" parent="1" source="LSZJkecF79FRnBt_k18C-184" target="5D_WGOOgCdQyPNJXZ3vt-16" edge="1">
          <mxGeometry relative="1" as="geometry">
            <Array as="points">
              <mxPoint x="1740" y="2150" />
              <mxPoint x="1740" y="3540" />
            </Array>
          </mxGeometry>
        </mxCell>
        <mxCell id="LSZJkecF79FRnBt_k18C-184" value="" style="rounded=0;whiteSpace=wrap;html=1;labelBackgroundColor=none;labelBorderColor=none;fontFamily=Helvetica;fontSize=26;strokeColor=#000000;strokeWidth=1;fillColor=#FF0000;gradientColor=none;" parent="1" vertex="1">
          <mxGeometry x="1619" y="2130" width="20" height="40" as="geometry" />
        </mxCell>
        <mxCell id="LSZJkecF79FRnBt_k18C-186" value="&lt;div style=&quot;text-align: center&quot;&gt;GET_WIDGET_PROVIDED&lt;/div&gt;" style="html=1;verticalAlign=bottom;startArrow=oval;startFill=1;endArrow=block;startSize=8;rounded=0;fontFamily=Helvetica;fontSize=20;entryX=0;entryY=0.5;entryDx=0;entryDy=0;fontStyle=1;align=right;labelPosition=left;verticalLabelPosition=top;exitX=1;exitY=0.5;exitDx=0;exitDy=0;labelBackgroundColor=none;" parent="1" target="LSZJkecF79FRnBt_k18C-184" edge="1">
          <mxGeometry x="-0.4222" width="60" relative="1" as="geometry">
            <mxPoint x="719" y="2150" as="sourcePoint" />
            <mxPoint x="1284" y="2150" as="targetPoint" />
            <mxPoint as="offset" />
          </mxGeometry>
        </mxCell>
        <mxCell id="5D_WGOOgCdQyPNJXZ3vt-20" style="edgeStyle=orthogonalEdgeStyle;rounded=0;orthogonalLoop=1;jettySize=auto;html=1;entryX=1;entryY=0.5;entryDx=0;entryDy=0;labelBackgroundColor=none;fontSize=29;fontColor=#FFFFFF;" parent="1" source="LSZJkecF79FRnBt_k18C-190" target="5D_WGOOgCdQyPNJXZ3vt-13" edge="1">
          <mxGeometry relative="1" as="geometry">
            <Array as="points">
              <mxPoint x="1720" y="2210" />
              <mxPoint x="1720" y="3470" />
            </Array>
          </mxGeometry>
        </mxCell>
        <mxCell id="LSZJkecF79FRnBt_k18C-190" value="" style="rounded=0;whiteSpace=wrap;html=1;labelBackgroundColor=none;labelBorderColor=none;fontFamily=Helvetica;fontSize=26;strokeColor=#000000;strokeWidth=1;fillColor=#FF0000;gradientColor=none;" parent="1" vertex="1">
          <mxGeometry x="1619" y="2190" width="20" height="40" as="geometry" />
        </mxCell>
        <mxCell id="LSZJkecF79FRnBt_k18C-192" value="&lt;div style=&quot;text-align: center&quot;&gt;GET_LOCATION_FOR_WIDGET&lt;/div&gt;" style="html=1;verticalAlign=bottom;startArrow=oval;startFill=1;endArrow=block;startSize=8;rounded=0;fontFamily=Helvetica;fontSize=20;entryX=0;entryY=0.5;entryDx=0;entryDy=0;fontStyle=1;align=right;labelPosition=left;verticalLabelPosition=top;exitX=1;exitY=0.5;exitDx=0;exitDy=0;labelBackgroundColor=none;" parent="1" target="LSZJkecF79FRnBt_k18C-190" edge="1">
          <mxGeometry x="-0.3097" width="60" relative="1" as="geometry">
            <mxPoint x="718" y="2210" as="sourcePoint" />
            <mxPoint x="1283" y="2210" as="targetPoint" />
            <mxPoint as="offset" />
          </mxGeometry>
        </mxCell>
        <mxCell id="5D_WGOOgCdQyPNJXZ3vt-19" style="edgeStyle=orthogonalEdgeStyle;rounded=0;orthogonalLoop=1;jettySize=auto;html=1;entryX=1;entryY=0.5;entryDx=0;entryDy=0;labelBackgroundColor=none;fontSize=29;fontColor=#FFFFFF;" parent="1" source="LSZJkecF79FRnBt_k18C-193" target="5D_WGOOgCdQyPNJXZ3vt-10" edge="1">
          <mxGeometry relative="1" as="geometry">
            <Array as="points">
              <mxPoint x="1700" y="2270" />
              <mxPoint x="1700" y="3400" />
            </Array>
          </mxGeometry>
        </mxCell>
        <mxCell id="LSZJkecF79FRnBt_k18C-193" value="" style="rounded=0;whiteSpace=wrap;html=1;labelBackgroundColor=none;labelBorderColor=none;fontFamily=Helvetica;fontSize=26;strokeColor=#000000;strokeWidth=1;fillColor=#FF0000;gradientColor=none;" parent="1" vertex="1">
          <mxGeometry x="1619" y="2250" width="20" height="40" as="geometry" />
        </mxCell>
        <mxCell id="LSZJkecF79FRnBt_k18C-195" value="&lt;div style=&quot;text-align: center&quot;&gt;GET_AVAILABLE_PRODUCT_IDENTIFIERS&lt;/div&gt;" style="html=1;verticalAlign=bottom;startArrow=oval;startFill=1;endArrow=block;startSize=8;rounded=0;fontFamily=Helvetica;fontSize=20;entryX=0;entryY=0.5;entryDx=0;entryDy=0;fontStyle=1;align=right;labelPosition=left;verticalLabelPosition=top;exitX=1;exitY=0.5;exitDx=0;exitDy=0;labelBackgroundColor=none;" parent="1" target="LSZJkecF79FRnBt_k18C-193" edge="1">
          <mxGeometry x="-0.0667" width="60" relative="1" as="geometry">
            <mxPoint x="719" y="2270" as="sourcePoint" />
            <mxPoint x="1284" y="2270" as="targetPoint" />
            <mxPoint as="offset" />
          </mxGeometry>
        </mxCell>
        <mxCell id="LSZJkecF79FRnBt_k18C-205" style="edgeStyle=orthogonalEdgeStyle;rounded=0;orthogonalLoop=1;jettySize=auto;html=1;entryX=1;entryY=0.5;entryDx=0;entryDy=0;labelBackgroundColor=none;fontFamily=Helvetica;fontSize=19;fontColor=#000000;strokeColor=#000000;" parent="1" source="LSZJkecF79FRnBt_k18C-196" target="LSZJkecF79FRnBt_k18C-204" edge="1">
          <mxGeometry relative="1" as="geometry">
            <Array as="points">
              <mxPoint x="1650" y="2330" />
              <mxPoint x="1650" y="2510" />
            </Array>
          </mxGeometry>
        </mxCell>
        <mxCell id="LSZJkecF79FRnBt_k18C-196" value="" style="rounded=0;whiteSpace=wrap;html=1;labelBackgroundColor=none;labelBorderColor=none;fontFamily=Helvetica;fontSize=26;strokeColor=#000000;strokeWidth=1;fillColor=#FF0000;gradientColor=none;" parent="1" vertex="1">
          <mxGeometry x="1618" y="2310" width="20" height="40" as="geometry" />
        </mxCell>
        <mxCell id="LSZJkecF79FRnBt_k18C-198" value="&lt;div style=&quot;text-align: center&quot;&gt;GET_TRUSTBADGE_CONFIGURATION_PROVIDED&lt;/div&gt;" style="html=1;verticalAlign=bottom;startArrow=oval;startFill=1;endArrow=block;startSize=8;rounded=0;fontFamily=Helvetica;fontSize=20;entryX=0;entryY=0.5;entryDx=0;entryDy=0;fontStyle=1;align=right;labelPosition=left;verticalLabelPosition=top;exitX=1;exitY=0.5;exitDx=0;exitDy=0;labelBackgroundColor=none;" parent="1" target="LSZJkecF79FRnBt_k18C-196" edge="1">
          <mxGeometry x="0.1133" width="60" relative="1" as="geometry">
            <mxPoint x="718" y="2330" as="sourcePoint" />
            <mxPoint x="1283" y="2330" as="targetPoint" />
            <mxPoint x="-1" as="offset" />
          </mxGeometry>
        </mxCell>
        <mxCell id="LSZJkecF79FRnBt_k18C-212" style="edgeStyle=orthogonalEdgeStyle;rounded=0;orthogonalLoop=1;jettySize=auto;html=1;entryX=0.5;entryY=1;entryDx=0;entryDy=0;entryPerimeter=0;labelBackgroundColor=#FFF2CC;fontFamily=Helvetica;fontSize=19;fontColor=#FFF2CC;strokeColor=#000000;" parent="1" source="LSZJkecF79FRnBt_k18C-200" target="LSZJkecF79FRnBt_k18C-209" edge="1">
          <mxGeometry relative="1" as="geometry" />
        </mxCell>
        <mxCell id="LSZJkecF79FRnBt_k18C-200" value="&lt;font style=&quot;vertical-align: inherit ; font-size: 16px&quot;&gt;&lt;font style=&quot;vertical-align: inherit ; font-size: 16px&quot;&gt;&lt;font style=&quot;vertical-align: inherit ; font-size: 16px&quot;&gt;&lt;font style=&quot;vertical-align: inherit ; font-size: 16px&quot;&gt;Change channel selection&lt;/font&gt;&lt;/font&gt;&lt;/font&gt;&lt;/font&gt;" style="rounded=0;whiteSpace=wrap;html=1;fontSize=16;" parent="1" vertex="1">
          <mxGeometry x="230" y="2060" width="145" height="40" as="geometry" />
        </mxCell>
        <mxCell id="LSZJkecF79FRnBt_k18C-203" value="" style="rounded=0;whiteSpace=wrap;html=1;labelBackgroundColor=none;labelBorderColor=none;fontFamily=Helvetica;fontSize=26;fillColor=#dae8fc;strokeColor=#6c8ebf;strokeWidth=4;opacity=40;" parent="1" vertex="1">
          <mxGeometry x="80" y="2420" width="1600" height="800" as="geometry" />
        </mxCell>
        <mxCell id="LSZJkecF79FRnBt_k18C-204" value="" style="rounded=0;whiteSpace=wrap;html=1;labelBackgroundColor=none;labelBorderColor=none;fontFamily=Helvetica;fontSize=26;strokeColor=#000000;strokeWidth=1;fillColor=#FF0000;gradientColor=none;" parent="1" vertex="1">
          <mxGeometry x="1620" y="2490" width="20" height="40" as="geometry" />
        </mxCell>
        <mxCell id="LSZJkecF79FRnBt_k18C-206" value="&lt;div style=&quot;text-align: right&quot;&gt;&lt;span style=&quot;font-weight: 700; text-align: center;&quot;&gt;SET_TRUSTBADGE_CONFIGURATION_PROVIDED&lt;/span&gt;&lt;br&gt;&lt;/div&gt;" style="html=1;verticalAlign=bottom;startArrow=oval;startFill=1;endArrow=block;startSize=8;rounded=0;labelBackgroundColor=none;fontFamily=Helvetica;fontSize=20;fontColor=#000000;exitX=0;exitY=0.5;exitDx=0;exitDy=0;entryX=1;entryY=0.5;entryDx=0;entryDy=0;" parent="1" target="LSZJkecF79FRnBt_k18C-207" edge="1">
          <mxGeometry x="-0.4244" width="60" relative="1" as="geometry">
            <mxPoint x="1620" y="2510" as="sourcePoint" />
            <mxPoint x="730" y="2510" as="targetPoint" />
            <mxPoint as="offset" />
          </mxGeometry>
        </mxCell>
        <mxCell id="LSZJkecF79FRnBt_k18C-207" value="" style="rounded=0;whiteSpace=wrap;html=1;labelBackgroundColor=none;labelBorderColor=none;fontFamily=Helvetica;fontSize=26;strokeColor=#000000;strokeWidth=1;fillColor=#FF0000;gradientColor=none;" parent="1" vertex="1">
          <mxGeometry x="700" y="2490" width="20" height="40" as="geometry" />
        </mxCell>
        <mxCell id="LSZJkecF79FRnBt_k18C-213" style="edgeStyle=orthogonalEdgeStyle;rounded=0;orthogonalLoop=1;jettySize=auto;html=1;entryX=0.031;entryY=0.102;entryDx=0;entryDy=0;entryPerimeter=0;labelBackgroundColor=#FFF2CC;fontFamily=Helvetica;fontSize=19;fontColor=#FFF2CC;strokeColor=#000000;" parent="1" source="LSZJkecF79FRnBt_k18C-209" target="LSZJkecF79FRnBt_k18C-179" edge="1">
          <mxGeometry relative="1" as="geometry" />
        </mxCell>
        <mxCell id="LSZJkecF79FRnBt_k18C-209" value="" style="verticalLabelPosition=bottom;verticalAlign=top;html=1;shape=mxgraph.flowchart.summing_function;labelBackgroundColor=none;labelBorderColor=none;fontFamily=Helvetica;fontSize=19;fontColor=#FFF2CC;strokeColor=#000000;strokeWidth=1;fillColor=none;gradientColor=none;" parent="1" vertex="1">
          <mxGeometry x="276.25" y="1940" width="52.5" height="50" as="geometry" />
        </mxCell>
        <mxCell id="LSZJkecF79FRnBt_k18C-214" style="edgeStyle=orthogonalEdgeStyle;rounded=0;orthogonalLoop=1;jettySize=auto;html=1;labelBackgroundColor=none;fontFamily=Helvetica;fontSize=26;fontColor=#000000;strokeColor=#000000;exitX=0;exitY=0.5;exitDx=0;exitDy=0;entryX=0.5;entryY=0;entryDx=0;entryDy=0;" parent="1" source="LSZJkecF79FRnBt_k18C-207" target="LSZJkecF79FRnBt_k18C-215" edge="1">
          <mxGeometry relative="1" as="geometry">
            <mxPoint x="700" y="2515" as="sourcePoint" />
            <Array as="points">
              <mxPoint x="371" y="2510" />
            </Array>
          </mxGeometry>
        </mxCell>
        <mxCell id="LSZJkecF79FRnBt_k18C-215" value="Trustbadge attributes are present?" style="rhombus;whiteSpace=wrap;html=1;labelBackgroundColor=none;labelBorderColor=none;fontFamily=Helvetica;fontSize=19;" parent="1" vertex="1">
          <mxGeometry x="286.25" y="2530" width="170" height="130" as="geometry" />
        </mxCell>
        <mxCell id="LSZJkecF79FRnBt_k18C-216" value="no" style="edgeStyle=orthogonalEdgeStyle;html=1;align=left;verticalAlign=bottom;endArrow=open;endSize=8;strokeColor=#000000;rounded=0;labelBackgroundColor=none;fontFamily=Helvetica;fontSize=26;fontColor=#000000;exitX=1;exitY=0.5;exitDx=0;exitDy=0;entryX=0.5;entryY=0;entryDx=0;entryDy=0;" parent="1" source="LSZJkecF79FRnBt_k18C-215" target="LSZJkecF79FRnBt_k18C-218" edge="1">
          <mxGeometry x="-0.7017" y="15" relative="1" as="geometry">
            <mxPoint x="300" y="2695" as="targetPoint" />
            <Array as="points">
              <mxPoint x="543" y="2595" />
            </Array>
            <mxPoint as="offset" />
          </mxGeometry>
        </mxCell>
        <mxCell id="LSZJkecF79FRnBt_k18C-217" value="yes" style="edgeStyle=orthogonalEdgeStyle;html=1;align=left;verticalAlign=top;endArrow=open;endSize=8;strokeColor=#000000;rounded=0;labelBackgroundColor=none;fontFamily=Helvetica;fontSize=26;fontColor=#000000;exitX=0;exitY=0.5;exitDx=0;exitDy=0;" parent="1" source="LSZJkecF79FRnBt_k18C-215" target="LSZJkecF79FRnBt_k18C-220" edge="1">
          <mxGeometry x="-0.0521" y="-55" relative="1" as="geometry">
            <mxPoint x="182.5" y="2610" as="targetPoint" />
            <Array as="points">
              <mxPoint x="183" y="2595" />
            </Array>
            <mxPoint x="-1" as="offset" />
          </mxGeometry>
        </mxCell>
        <mxCell id="LSZJkecF79FRnBt_k18C-226" style="edgeStyle=orthogonalEdgeStyle;rounded=0;orthogonalLoop=1;jettySize=auto;html=1;labelBackgroundColor=#FFF2CC;fontFamily=Helvetica;fontSize=16;fontColor=#FFF2CC;strokeColor=#000000;" parent="1" source="LSZJkecF79FRnBt_k18C-218" target="LSZJkecF79FRnBt_k18C-225" edge="1">
          <mxGeometry relative="1" as="geometry" />
        </mxCell>
        <mxCell id="LSZJkecF79FRnBt_k18C-218" value="&lt;font style=&quot;vertical-align: inherit ; font-size: 16px&quot;&gt;&lt;font style=&quot;vertical-align: inherit ; font-size: 16px&quot;&gt;&lt;font style=&quot;vertical-align: inherit ; font-size: 16px&quot;&gt;&lt;font style=&quot;vertical-align: inherit ; font-size: 16px&quot;&gt;Render disabled elements&lt;/font&gt;&lt;/font&gt;&lt;/font&gt;&lt;/font&gt;" style="rounded=0;whiteSpace=wrap;html=1;fontSize=16;" parent="1" vertex="1">
          <mxGeometry x="470" y="2735" width="145" height="40" as="geometry" />
        </mxCell>
        <mxCell id="LSZJkecF79FRnBt_k18C-220" value="Attribute value &#39;data-disable-trustbadge&#39;" style="rhombus;whiteSpace=wrap;html=1;labelBackgroundColor=none;labelBorderColor=none;fontFamily=Helvetica;fontSize=16;" parent="1" vertex="1">
          <mxGeometry x="97.5" y="2680" width="170" height="150" as="geometry" />
        </mxCell>
        <mxCell id="LSZJkecF79FRnBt_k18C-221" value="true" style="edgeStyle=orthogonalEdgeStyle;html=1;align=left;verticalAlign=bottom;endArrow=open;endSize=8;strokeColor=#000000;rounded=0;labelBackgroundColor=none;fontFamily=Helvetica;fontSize=26;fontColor=#000000;exitX=1;exitY=0.5;exitDx=0;exitDy=0;entryX=0;entryY=0.5;entryDx=0;entryDy=0;" parent="1" source="LSZJkecF79FRnBt_k18C-220" target="LSZJkecF79FRnBt_k18C-218" edge="1">
          <mxGeometry x="-0.9213" relative="1" as="geometry">
            <mxPoint x="349.93" y="2760" as="targetPoint" />
            <Array as="points">
              <mxPoint x="450" y="2755" />
              <mxPoint x="450" y="2755" />
            </Array>
            <mxPoint as="offset" />
          </mxGeometry>
        </mxCell>
        <mxCell id="LSZJkecF79FRnBt_k18C-222" value="false" style="edgeStyle=orthogonalEdgeStyle;html=1;align=left;verticalAlign=top;endArrow=open;endSize=8;strokeColor=#000000;rounded=0;labelBackgroundColor=none;fontFamily=Helvetica;fontSize=26;fontColor=#000000;exitX=0.5;exitY=1;exitDx=0;exitDy=0;entryX=0.5;entryY=0;entryDx=0;entryDy=0;" parent="1" source="LSZJkecF79FRnBt_k18C-220" target="LSZJkecF79FRnBt_k18C-224" edge="1">
          <mxGeometry x="-1" y="-73" relative="1" as="geometry">
            <mxPoint x="-10.069999999999993" y="2760" as="targetPoint" />
            <Array as="points">
              <mxPoint x="183" y="2850" />
              <mxPoint x="183" y="2850" />
            </Array>
            <mxPoint y="-10" as="offset" />
          </mxGeometry>
        </mxCell>
        <mxCell id="LSZJkecF79FRnBt_k18C-232" style="edgeStyle=orthogonalEdgeStyle;rounded=0;orthogonalLoop=1;jettySize=auto;html=1;entryX=0.5;entryY=0;entryDx=0;entryDy=0;entryPerimeter=0;labelBackgroundColor=#FFF2CC;fontFamily=Helvetica;fontSize=16;fontColor=#FFF2CC;strokeColor=#000000;" parent="1" source="LSZJkecF79FRnBt_k18C-224" target="LSZJkecF79FRnBt_k18C-230" edge="1">
          <mxGeometry relative="1" as="geometry" />
        </mxCell>
        <mxCell id="LSZJkecF79FRnBt_k18C-224" value="&lt;font style=&quot;vertical-align: inherit ; font-size: 16px&quot;&gt;&lt;font style=&quot;vertical-align: inherit ; font-size: 16px&quot;&gt;&lt;font style=&quot;vertical-align: inherit ; font-size: 16px&quot;&gt;&lt;font style=&quot;vertical-align: inherit ; font-size: 16px&quot;&gt;Rendering values in elements&lt;/font&gt;&lt;/font&gt;&lt;/font&gt;&lt;/font&gt;" style="rounded=0;whiteSpace=wrap;html=1;fontSize=16;" parent="1" vertex="1">
          <mxGeometry x="110" y="2860" width="145" height="40" as="geometry" />
        </mxCell>
        <mxCell id="LSZJkecF79FRnBt_k18C-228" style="edgeStyle=orthogonalEdgeStyle;rounded=0;orthogonalLoop=1;jettySize=auto;html=1;entryX=0.5;entryY=0;entryDx=0;entryDy=0;labelBackgroundColor=#FFF2CC;fontFamily=Helvetica;fontSize=16;fontColor=#FFF2CC;strokeColor=#000000;" parent="1" source="LSZJkecF79FRnBt_k18C-225" target="LSZJkecF79FRnBt_k18C-227" edge="1">
          <mxGeometry relative="1" as="geometry" />
        </mxCell>
        <mxCell id="LSZJkecF79FRnBt_k18C-225" value="&lt;font style=&quot;vertical-align: inherit ; font-size: 16px&quot;&gt;&lt;font style=&quot;vertical-align: inherit ; font-size: 16px&quot;&gt;&lt;font style=&quot;vertical-align: inherit ; font-size: 16px&quot;&gt;&lt;font style=&quot;vertical-align: inherit ; font-size: 16px&quot;&gt;Change switch to active&lt;/font&gt;&lt;/font&gt;&lt;/font&gt;&lt;/font&gt;" style="rounded=0;whiteSpace=wrap;html=1;fontSize=16;" parent="1" vertex="1">
          <mxGeometry x="470" y="2830" width="145" height="40" as="geometry" />
        </mxCell>
        <mxCell id="LSZJkecF79FRnBt_k18C-241" style="edgeStyle=orthogonalEdgeStyle;rounded=0;orthogonalLoop=1;jettySize=auto;html=1;labelBackgroundColor=#FFF2CC;fontFamily=Helvetica;fontSize=16;fontColor=#FFF2CC;strokeColor=#000000;" parent="1" source="LSZJkecF79FRnBt_k18C-227" target="LSZJkecF79FRnBt_k18C-238" edge="1">
          <mxGeometry relative="1" as="geometry" />
        </mxCell>
        <mxCell id="LSZJkecF79FRnBt_k18C-227" value="&lt;font style=&quot;vertical-align: inherit ; font-size: 16px&quot;&gt;&lt;font style=&quot;vertical-align: inherit ; font-size: 16px&quot;&gt;&lt;font style=&quot;vertical-align: inherit ; font-size: 16px&quot;&gt;&lt;font style=&quot;vertical-align: inherit ; font-size: 16px&quot;&gt;Changing the value of fields&lt;/font&gt;&lt;/font&gt;&lt;/font&gt;&lt;/font&gt;" style="rounded=0;whiteSpace=wrap;html=1;fontSize=16;" parent="1" vertex="1">
          <mxGeometry x="470" y="2920" width="145" height="40" as="geometry" />
        </mxCell>
        <mxCell id="LSZJkecF79FRnBt_k18C-233" style="edgeStyle=orthogonalEdgeStyle;rounded=0;orthogonalLoop=1;jettySize=auto;html=1;labelBackgroundColor=#FFF2CC;fontFamily=Helvetica;fontSize=16;fontColor=#FFF2CC;strokeColor=#000000;" parent="1" source="LSZJkecF79FRnBt_k18C-230" target="LSZJkecF79FRnBt_k18C-227" edge="1">
          <mxGeometry relative="1" as="geometry" />
        </mxCell>
        <mxCell id="LSZJkecF79FRnBt_k18C-235" style="edgeStyle=orthogonalEdgeStyle;rounded=0;orthogonalLoop=1;jettySize=auto;html=1;entryX=0.5;entryY=0;entryDx=0;entryDy=0;labelBackgroundColor=#FFF2CC;fontFamily=Helvetica;fontSize=16;fontColor=#FFF2CC;strokeColor=#000000;" parent="1" source="LSZJkecF79FRnBt_k18C-230" target="LSZJkecF79FRnBt_k18C-234" edge="1">
          <mxGeometry relative="1" as="geometry" />
        </mxCell>
        <mxCell id="LSZJkecF79FRnBt_k18C-230" value="" style="verticalLabelPosition=bottom;verticalAlign=top;html=1;shape=mxgraph.flowchart.summing_function;labelBackgroundColor=none;labelBorderColor=none;fontFamily=Helvetica;fontSize=16;fontColor=#FFF2CC;strokeColor=#000000;strokeWidth=1;fillColor=none;gradientColor=none;" parent="1" vertex="1">
          <mxGeometry x="162.5" y="2920" width="40" height="40" as="geometry" />
        </mxCell>
        <mxCell id="LSZJkecF79FRnBt_k18C-237" style="edgeStyle=orthogonalEdgeStyle;rounded=0;orthogonalLoop=1;jettySize=auto;html=1;entryX=0.5;entryY=0;entryDx=0;entryDy=0;labelBackgroundColor=#FFF2CC;fontFamily=Helvetica;fontSize=16;fontColor=#FFF2CC;strokeColor=#000000;" parent="1" source="LSZJkecF79FRnBt_k18C-234" target="LSZJkecF79FRnBt_k18C-236" edge="1">
          <mxGeometry relative="1" as="geometry" />
        </mxCell>
        <mxCell id="LSZJkecF79FRnBt_k18C-234" value="&lt;font style=&quot;vertical-align: inherit ; font-size: 16px&quot;&gt;&lt;font style=&quot;vertical-align: inherit ; font-size: 16px&quot;&gt;&lt;font style=&quot;vertical-align: inherit ; font-size: 16px&quot;&gt;&lt;font style=&quot;vertical-align: inherit ; font-size: 16px&quot;&gt;Change switch to inactive&lt;/font&gt;&lt;/font&gt;&lt;/font&gt;&lt;/font&gt;" style="rounded=0;whiteSpace=wrap;html=1;fontSize=16;" parent="1" vertex="1">
          <mxGeometry x="110" y="2980" width="145" height="40" as="geometry" />
        </mxCell>
        <mxCell id="LSZJkecF79FRnBt_k18C-236" value="&lt;font style=&quot;vertical-align: inherit ; font-size: 16px&quot;&gt;&lt;font style=&quot;vertical-align: inherit ; font-size: 16px&quot;&gt;&lt;font style=&quot;vertical-align: inherit ; font-size: 16px&quot;&gt;&lt;font style=&quot;vertical-align: inherit ; font-size: 16px&quot;&gt;Opening a modal window for confirmation&lt;/font&gt;&lt;/font&gt;&lt;/font&gt;&lt;/font&gt;" style="rounded=0;whiteSpace=wrap;html=1;fontSize=16;" parent="1" vertex="1">
          <mxGeometry x="110" y="3040" width="145" height="60" as="geometry" />
        </mxCell>
        <mxCell id="LSZJkecF79FRnBt_k18C-244" style="edgeStyle=orthogonalEdgeStyle;rounded=0;orthogonalLoop=1;jettySize=auto;html=1;entryX=0.5;entryY=0;entryDx=0;entryDy=0;entryPerimeter=0;labelBackgroundColor=#FFF2CC;fontFamily=Helvetica;fontSize=16;fontColor=#FFF2CC;strokeColor=#000000;" parent="1" source="LSZJkecF79FRnBt_k18C-238" target="LSZJkecF79FRnBt_k18C-242" edge="1">
          <mxGeometry relative="1" as="geometry" />
        </mxCell>
        <mxCell id="LSZJkecF79FRnBt_k18C-238" value="&lt;font style=&quot;vertical-align: inherit ; font-size: 16px&quot;&gt;&lt;font style=&quot;vertical-align: inherit ; font-size: 16px&quot;&gt;&lt;font style=&quot;vertical-align: inherit ; font-size: 16px&quot;&gt;&lt;font style=&quot;vertical-align: inherit ; font-size: 16px&quot;&gt;Save сhanges&lt;/font&gt;&lt;/font&gt;&lt;/font&gt;&lt;/font&gt;" style="rounded=0;whiteSpace=wrap;html=1;fontSize=16;" parent="1" vertex="1">
          <mxGeometry x="470" y="3000" width="145" height="40" as="geometry" />
        </mxCell>
        <mxCell id="LSZJkecF79FRnBt_k18C-243" style="edgeStyle=orthogonalEdgeStyle;rounded=0;orthogonalLoop=1;jettySize=auto;html=1;entryX=0;entryY=0.5;entryDx=0;entryDy=0;entryPerimeter=0;labelBackgroundColor=#FFF2CC;fontFamily=Helvetica;fontSize=16;fontColor=#FFF2CC;strokeColor=#000000;" parent="1" source="LSZJkecF79FRnBt_k18C-239" target="LSZJkecF79FRnBt_k18C-242" edge="1">
          <mxGeometry relative="1" as="geometry" />
        </mxCell>
        <mxCell id="LSZJkecF79FRnBt_k18C-239" value="Deactivate" style="rounded=0;whiteSpace=wrap;html=1;fontSize=16;" parent="1" vertex="1">
          <mxGeometry x="110" y="3100" width="145" height="30" as="geometry" />
        </mxCell>
        <mxCell id="LSZJkecF79FRnBt_k18C-248" style="edgeStyle=orthogonalEdgeStyle;rounded=0;orthogonalLoop=1;jettySize=auto;html=1;entryX=0;entryY=0.5;entryDx=0;entryDy=0;labelBackgroundColor=#FFF2CC;fontFamily=Helvetica;fontSize=16;fontColor=#FFF2CC;strokeColor=#000000;" parent="1" source="LSZJkecF79FRnBt_k18C-242" target="LSZJkecF79FRnBt_k18C-246" edge="1">
          <mxGeometry relative="1" as="geometry" />
        </mxCell>
        <mxCell id="LSZJkecF79FRnBt_k18C-242" value="" style="verticalLabelPosition=bottom;verticalAlign=top;html=1;shape=mxgraph.flowchart.summing_function;labelBackgroundColor=none;labelBorderColor=none;fontFamily=Helvetica;fontSize=16;fontColor=#FFF2CC;strokeColor=#000000;strokeWidth=1;fillColor=none;gradientColor=none;" parent="1" vertex="1">
          <mxGeometry x="522.5" y="3095" width="40" height="40" as="geometry" />
        </mxCell>
        <mxCell id="LSZJkecF79FRnBt_k18C-252" style="edgeStyle=orthogonalEdgeStyle;rounded=0;orthogonalLoop=1;jettySize=auto;html=1;entryX=1;entryY=0.5;entryDx=0;entryDy=0;labelBackgroundColor=#FFF2CC;fontFamily=Helvetica;fontSize=16;fontColor=#FFF2CC;strokeColor=#000000;" parent="1" source="LSZJkecF79FRnBt_k18C-245" target="LSZJkecF79FRnBt_k18C-249" edge="1">
          <mxGeometry relative="1" as="geometry">
            <Array as="points">
              <mxPoint x="1660" y="3115" />
              <mxPoint x="1660" y="3180" />
            </Array>
          </mxGeometry>
        </mxCell>
        <mxCell id="LSZJkecF79FRnBt_k18C-253" style="edgeStyle=orthogonalEdgeStyle;rounded=0;orthogonalLoop=1;jettySize=auto;html=1;entryX=0.5;entryY=1;entryDx=0;entryDy=0;labelBackgroundColor=#FFF2CC;fontFamily=Helvetica;fontSize=16;fontColor=#FFF2CC;strokeColor=#000000;" parent="1" source="LSZJkecF79FRnBt_k18C-245" target="LSZJkecF79FRnBt_k18C-204" edge="1">
          <mxGeometry relative="1" as="geometry">
            <Array as="points">
              <mxPoint x="1630" y="3080" />
              <mxPoint x="1660" y="3080" />
              <mxPoint x="1660" y="2550" />
              <mxPoint x="1630" y="2550" />
            </Array>
          </mxGeometry>
        </mxCell>
        <mxCell id="LSZJkecF79FRnBt_k18C-245" value="" style="rounded=0;whiteSpace=wrap;html=1;labelBackgroundColor=none;labelBorderColor=none;fontFamily=Helvetica;fontSize=26;strokeColor=#000000;strokeWidth=1;fillColor=#FF0000;gradientColor=none;" parent="1" vertex="1">
          <mxGeometry x="1620" y="3095" width="20" height="40" as="geometry" />
        </mxCell>
        <mxCell id="LSZJkecF79FRnBt_k18C-246" value="" style="rounded=0;whiteSpace=wrap;html=1;labelBackgroundColor=none;labelBorderColor=none;fontFamily=Helvetica;fontSize=26;strokeColor=#000000;strokeWidth=1;fillColor=#FF0000;gradientColor=none;" parent="1" vertex="1">
          <mxGeometry x="700" y="3095" width="20" height="40" as="geometry" />
        </mxCell>
        <mxCell id="LSZJkecF79FRnBt_k18C-247" value="&lt;div style=&quot;text-align: center&quot;&gt;SAVE_TRUSTBADGE_CONFIGURATION&lt;/div&gt;" style="html=1;verticalAlign=bottom;startArrow=oval;startFill=1;endArrow=block;startSize=8;rounded=0;fontFamily=Helvetica;fontSize=20;entryX=0;entryY=0.5;entryDx=0;entryDy=0;fontStyle=1;align=right;labelPosition=left;verticalLabelPosition=top;exitX=1;exitY=0.5;exitDx=0;exitDy=0;labelBackgroundColor=none;" parent="1" source="LSZJkecF79FRnBt_k18C-246" target="LSZJkecF79FRnBt_k18C-245" edge="1">
          <mxGeometry x="-0.0889" width="60" relative="1" as="geometry">
            <mxPoint x="730" y="3115" as="sourcePoint" />
            <mxPoint x="1285" y="3115" as="targetPoint" />
            <mxPoint as="offset" />
          </mxGeometry>
        </mxCell>
        <mxCell id="LSZJkecF79FRnBt_k18C-249" value="" style="rounded=0;whiteSpace=wrap;html=1;labelBackgroundColor=none;labelBorderColor=none;fontFamily=Helvetica;fontSize=26;strokeColor=#000000;strokeWidth=1;fillColor=#FF0000;gradientColor=none;" parent="1" vertex="1">
          <mxGeometry x="1620" y="3160" width="20" height="40" as="geometry" />
        </mxCell>
        <mxCell id="LSZJkecF79FRnBt_k18C-250" value="&lt;b style=&quot;text-align: right&quot;&gt;NOTIFICATION&lt;br&gt;&lt;/b&gt;" style="html=1;verticalAlign=bottom;startArrow=oval;startFill=1;endArrow=block;startSize=8;rounded=0;labelBackgroundColor=none;fontFamily=Helvetica;fontSize=20;fontColor=#000000;exitX=0;exitY=0.5;exitDx=0;exitDy=0;entryX=1;entryY=0.5;entryDx=0;entryDy=0;" parent="1" source="LSZJkecF79FRnBt_k18C-249" edge="1">
          <mxGeometry x="-0.4" width="60" relative="1" as="geometry">
            <mxPoint x="1100" y="3200" as="sourcePoint" />
            <mxPoint x="720" y="3180" as="targetPoint" />
            <mxPoint as="offset" />
          </mxGeometry>
        </mxCell>
        <mxCell id="LSZJkecF79FRnBt_k18C-251" value="" style="rounded=0;whiteSpace=wrap;html=1;labelBackgroundColor=none;labelBorderColor=none;fontFamily=Helvetica;fontSize=26;strokeColor=#000000;strokeWidth=1;fillColor=#FF0000;gradientColor=none;" parent="1" vertex="1">
          <mxGeometry x="700" y="3160" width="20" height="40" as="geometry" />
        </mxCell>
        <mxCell id="LSZJkecF79FRnBt_k18C-254" style="edgeStyle=orthogonalEdgeStyle;rounded=0;orthogonalLoop=1;jettySize=auto;html=1;entryX=1;entryY=0.5;entryDx=0;entryDy=0;labelBackgroundColor=none;fontFamily=Helvetica;fontSize=20;fontColor=#000000;strokeColor=#000000;" parent="1" target="LSZJkecF79FRnBt_k18C-255" edge="1">
          <mxGeometry relative="1" as="geometry">
            <mxPoint x="700" y="3180" as="sourcePoint" />
          </mxGeometry>
        </mxCell>
        <mxCell id="LSZJkecF79FRnBt_k18C-255" value="&lt;font style=&quot;vertical-align: inherit ; font-size: 16px&quot;&gt;&lt;font style=&quot;vertical-align: inherit ; font-size: 16px&quot;&gt;Notification: data saved&lt;/font&gt;&lt;/font&gt;" style="rounded=0;whiteSpace=wrap;html=1;fontSize=16;" parent="1" vertex="1">
          <mxGeometry x="410" y="3160" width="205" height="40" as="geometry" />
        </mxCell>
        <mxCell id="g-a9l5bh9RtnpEigGKmV-10" style="edgeStyle=orthogonalEdgeStyle;rounded=0;orthogonalLoop=1;jettySize=auto;html=1;" parent="1" source="LSZJkecF79FRnBt_k18C-256" edge="1">
          <mxGeometry relative="1" as="geometry">
            <mxPoint x="50" y="2780.000000000001" as="targetPoint" />
          </mxGeometry>
        </mxCell>
        <mxCell id="LSZJkecF79FRnBt_k18C-256" value="" style="rounded=0;whiteSpace=wrap;html=1;labelBackgroundColor=none;labelBorderColor=none;fontFamily=Helvetica;fontSize=26;fillColor=#dae8fc;strokeColor=#6c8ebf;strokeWidth=4;opacity=40;" parent="1" vertex="1">
          <mxGeometry x="80" y="3310" width="1690" height="680" as="geometry" />
        </mxCell>
        <mxCell id="5D_WGOOgCdQyPNJXZ3vt-1" value="Authentication&amp;nbsp;page" style="rounded=0;whiteSpace=wrap;html=1;labelBackgroundColor=none;opacity=40;fontSize=29;align=left;fillColor=none;strokeColor=none;fontColor=#000000;fontStyle=1" parent="1" vertex="1">
          <mxGeometry x="111.25" y="240" width="520" height="60" as="geometry" />
        </mxCell>
        <mxCell id="5D_WGOOgCdQyPNJXZ3vt-4" value="&lt;span style=&quot;font-size: 29px; text-align: center;&quot;&gt;Channel Mapping&lt;/span&gt;" style="rounded=0;whiteSpace=wrap;html=1;labelBackgroundColor=none;opacity=40;fontSize=29;align=left;fillColor=none;strokeColor=none;fontColor=#000000;fontStyle=1" parent="1" vertex="1">
          <mxGeometry x="120" y="1220" width="520" height="60" as="geometry" />
        </mxCell>
        <mxCell id="5D_WGOOgCdQyPNJXZ3vt-8" value="&lt;div style=&quot;text-align: center&quot;&gt;&lt;span&gt;Trustbadge tab&lt;/span&gt;&lt;/div&gt;" style="rounded=0;whiteSpace=wrap;html=1;labelBackgroundColor=none;opacity=40;fontSize=29;align=left;fillColor=none;strokeColor=none;fontColor=#000000;fontStyle=1" parent="1" vertex="1">
          <mxGeometry x="110" y="2430" width="520" height="60" as="geometry" />
        </mxCell>
        <mxCell id="5D_WGOOgCdQyPNJXZ3vt-9" value="&lt;div style=&quot;text-align: center; font-size: 29px;&quot;&gt;&lt;span style=&quot;font-size: 29px;&quot;&gt;Widget tab&lt;/span&gt;&lt;br style=&quot;font-size: 29px;&quot;&gt;&lt;/div&gt;" style="rounded=0;whiteSpace=wrap;html=1;labelBackgroundColor=none;opacity=40;fontSize=29;align=left;fillColor=none;strokeColor=none;fontColor=#000000;fontStyle=1" parent="1" vertex="1">
          <mxGeometry x="110" y="3330" width="520" height="60" as="geometry" />
        </mxCell>
        <mxCell id="5D_WGOOgCdQyPNJXZ3vt-10" value="" style="rounded=0;whiteSpace=wrap;html=1;labelBackgroundColor=none;labelBorderColor=none;fontFamily=Helvetica;fontSize=26;strokeColor=#000000;strokeWidth=1;fillColor=#FF0000;gradientColor=none;" parent="1" vertex="1">
          <mxGeometry x="1620" y="3380" width="20" height="40" as="geometry" />
        </mxCell>
        <mxCell id="5D_WGOOgCdQyPNJXZ3vt-11" value="&lt;div style=&quot;text-align: right&quot;&gt;&lt;span style=&quot;font-weight: 700; text-align: center;&quot;&gt;SET_AVAILABLE_PRODUCT_IDENTIFIERS&lt;/span&gt;&lt;br&gt;&lt;/div&gt;" style="html=1;verticalAlign=bottom;startArrow=oval;startFill=1;endArrow=block;startSize=8;rounded=0;labelBackgroundColor=none;fontFamily=Helvetica;fontSize=20;fontColor=#000000;exitX=0;exitY=0.5;exitDx=0;exitDy=0;entryX=1;entryY=0.5;entryDx=0;entryDy=0;" parent="1" target="5D_WGOOgCdQyPNJXZ3vt-12" edge="1">
          <mxGeometry x="-0.5333" width="60" relative="1" as="geometry">
            <mxPoint x="1620" y="3400" as="sourcePoint" />
            <mxPoint x="730" y="3400" as="targetPoint" />
            <mxPoint as="offset" />
          </mxGeometry>
        </mxCell>
        <mxCell id="5D_WGOOgCdQyPNJXZ3vt-24" style="edgeStyle=orthogonalEdgeStyle;rounded=0;orthogonalLoop=1;jettySize=auto;html=1;labelBackgroundColor=none;fontSize=29;fontColor=#FFFFFF;" parent="1" source="5D_WGOOgCdQyPNJXZ3vt-12" target="5D_WGOOgCdQyPNJXZ3vt-22" edge="1">
          <mxGeometry relative="1" as="geometry" />
        </mxCell>
        <mxCell id="5D_WGOOgCdQyPNJXZ3vt-12" value="" style="rounded=0;whiteSpace=wrap;html=1;labelBackgroundColor=none;labelBorderColor=none;fontFamily=Helvetica;fontSize=26;strokeColor=#000000;strokeWidth=1;fillColor=#FF0000;gradientColor=none;" parent="1" vertex="1">
          <mxGeometry x="700" y="3380" width="20" height="40" as="geometry" />
        </mxCell>
        <mxCell id="5D_WGOOgCdQyPNJXZ3vt-13" value="" style="rounded=0;whiteSpace=wrap;html=1;labelBackgroundColor=none;labelBorderColor=none;fontFamily=Helvetica;fontSize=26;strokeColor=#000000;strokeWidth=1;fillColor=#FF0000;gradientColor=none;" parent="1" vertex="1">
          <mxGeometry x="1620" y="3450" width="20" height="40" as="geometry" />
        </mxCell>
        <mxCell id="5D_WGOOgCdQyPNJXZ3vt-14" value="&lt;div style=&quot;text-align: right&quot;&gt;&lt;span style=&quot;font-weight: 700 ; text-align: center&quot;&gt;SET_LOCATION_FOR_WIDGET&lt;/span&gt;&lt;br&gt;&lt;/div&gt;" style="html=1;verticalAlign=bottom;startArrow=oval;startFill=1;endArrow=block;startSize=8;rounded=0;labelBackgroundColor=none;fontFamily=Helvetica;fontSize=20;fontColor=#000000;exitX=0;exitY=0.5;exitDx=0;exitDy=0;entryX=1;entryY=0.5;entryDx=0;entryDy=0;" parent="1" target="5D_WGOOgCdQyPNJXZ3vt-15" edge="1">
          <mxGeometry x="-0.6444" width="60" relative="1" as="geometry">
            <mxPoint x="1620" y="3470" as="sourcePoint" />
            <mxPoint x="730" y="3470" as="targetPoint" />
            <mxPoint as="offset" />
          </mxGeometry>
        </mxCell>
        <mxCell id="5D_WGOOgCdQyPNJXZ3vt-25" style="edgeStyle=orthogonalEdgeStyle;rounded=0;orthogonalLoop=1;jettySize=auto;html=1;labelBackgroundColor=none;fontSize=29;fontColor=#FFFFFF;" parent="1" source="5D_WGOOgCdQyPNJXZ3vt-15" target="5D_WGOOgCdQyPNJXZ3vt-23" edge="1">
          <mxGeometry relative="1" as="geometry" />
        </mxCell>
        <mxCell id="5D_WGOOgCdQyPNJXZ3vt-15" value="" style="rounded=0;whiteSpace=wrap;html=1;labelBackgroundColor=none;labelBorderColor=none;fontFamily=Helvetica;fontSize=26;strokeColor=#000000;strokeWidth=1;fillColor=#FF0000;gradientColor=none;" parent="1" vertex="1">
          <mxGeometry x="700" y="3450" width="20" height="40" as="geometry" />
        </mxCell>
        <mxCell id="5D_WGOOgCdQyPNJXZ3vt-16" value="" style="rounded=0;whiteSpace=wrap;html=1;labelBackgroundColor=none;labelBorderColor=none;fontFamily=Helvetica;fontSize=26;strokeColor=#000000;strokeWidth=1;fillColor=#FF0000;gradientColor=none;" parent="1" vertex="1">
          <mxGeometry x="1620" y="3520" width="20" height="40" as="geometry" />
        </mxCell>
        <mxCell id="5D_WGOOgCdQyPNJXZ3vt-17" value="&lt;div style=&quot;text-align: right&quot;&gt;&lt;span style=&quot;font-weight: 700 ; text-align: center&quot;&gt;SET_WIDGET_PROVIDED&lt;/span&gt;&lt;br&gt;&lt;/div&gt;" style="html=1;verticalAlign=bottom;startArrow=oval;startFill=1;endArrow=block;startSize=8;rounded=0;labelBackgroundColor=none;fontFamily=Helvetica;fontSize=20;fontColor=#000000;exitX=0;exitY=0.5;exitDx=0;exitDy=0;entryX=1;entryY=0.5;entryDx=0;entryDy=0;" parent="1" target="5D_WGOOgCdQyPNJXZ3vt-18" edge="1">
          <mxGeometry x="-0.6667" width="60" relative="1" as="geometry">
            <mxPoint x="1620" y="3540" as="sourcePoint" />
            <mxPoint x="730" y="3540" as="targetPoint" />
            <mxPoint as="offset" />
          </mxGeometry>
        </mxCell>
        <mxCell id="5D_WGOOgCdQyPNJXZ3vt-27" style="edgeStyle=orthogonalEdgeStyle;rounded=0;orthogonalLoop=1;jettySize=auto;html=1;entryX=1;entryY=0.5;entryDx=0;entryDy=0;labelBackgroundColor=none;fontSize=29;fontColor=#FFFFFF;" parent="1" source="5D_WGOOgCdQyPNJXZ3vt-18" target="5D_WGOOgCdQyPNJXZ3vt-26" edge="1">
          <mxGeometry relative="1" as="geometry" />
        </mxCell>
        <mxCell id="5D_WGOOgCdQyPNJXZ3vt-18" value="" style="rounded=0;whiteSpace=wrap;html=1;labelBackgroundColor=none;labelBorderColor=none;fontFamily=Helvetica;fontSize=26;strokeColor=#000000;strokeWidth=1;fillColor=#FF0000;gradientColor=none;" parent="1" vertex="1">
          <mxGeometry x="700" y="3520" width="20" height="40" as="geometry" />
        </mxCell>
        <mxCell id="5D_WGOOgCdQyPNJXZ3vt-31" style="edgeStyle=orthogonalEdgeStyle;rounded=0;orthogonalLoop=1;jettySize=auto;html=1;entryX=0.5;entryY=0;entryDx=0;entryDy=0;labelBackgroundColor=none;fontSize=29;fontColor=#FFFFFF;" parent="1" source="5D_WGOOgCdQyPNJXZ3vt-22" target="5D_WGOOgCdQyPNJXZ3vt-28" edge="1">
          <mxGeometry relative="1" as="geometry" />
        </mxCell>
        <mxCell id="5D_WGOOgCdQyPNJXZ3vt-22" value="&lt;font style=&quot;vertical-align: inherit ; font-size: 16px&quot;&gt;&lt;font style=&quot;vertical-align: inherit ; font-size: 16px&quot;&gt;Mapping available product IDs&lt;/font&gt;&lt;/font&gt;" style="rounded=0;whiteSpace=wrap;html=1;fontSize=16;" parent="1" vertex="1">
          <mxGeometry x="410" y="3380" width="205" height="40" as="geometry" />
        </mxCell>
        <mxCell id="5D_WGOOgCdQyPNJXZ3vt-30" style="edgeStyle=orthogonalEdgeStyle;rounded=0;orthogonalLoop=1;jettySize=auto;html=1;labelBackgroundColor=none;fontSize=29;fontColor=#FFFFFF;" parent="1" source="5D_WGOOgCdQyPNJXZ3vt-23" target="5D_WGOOgCdQyPNJXZ3vt-28" edge="1">
          <mxGeometry relative="1" as="geometry" />
        </mxCell>
        <mxCell id="5D_WGOOgCdQyPNJXZ3vt-23" value="&lt;font style=&quot;vertical-align: inherit ; font-size: 16px&quot;&gt;&lt;font style=&quot;vertical-align: inherit ; font-size: 16px&quot;&gt;Rendering in dropdown location selection&lt;/font&gt;&lt;/font&gt;" style="rounded=0;whiteSpace=wrap;html=1;fontSize=16;" parent="1" vertex="1">
          <mxGeometry x="410" y="3450" width="205" height="40" as="geometry" />
        </mxCell>
        <mxCell id="5D_WGOOgCdQyPNJXZ3vt-29" style="edgeStyle=orthogonalEdgeStyle;rounded=0;orthogonalLoop=1;jettySize=auto;html=1;entryX=1;entryY=0.5;entryDx=0;entryDy=0;labelBackgroundColor=none;fontSize=29;fontColor=#FFFFFF;" parent="1" source="5D_WGOOgCdQyPNJXZ3vt-26" target="5D_WGOOgCdQyPNJXZ3vt-28" edge="1">
          <mxGeometry relative="1" as="geometry" />
        </mxCell>
        <mxCell id="5D_WGOOgCdQyPNJXZ3vt-26" value="&lt;font style=&quot;vertical-align: inherit ; font-size: 16px&quot;&gt;&lt;font style=&quot;vertical-align: inherit ; font-size: 16px&quot;&gt;Mapping widgets from the API and from the base layer&lt;/font&gt;&lt;/font&gt;" style="rounded=0;whiteSpace=wrap;html=1;fontSize=16;" parent="1" vertex="1">
          <mxGeometry x="410" y="3520" width="205" height="40" as="geometry" />
        </mxCell>
        <mxCell id="5D_WGOOgCdQyPNJXZ3vt-33" style="edgeStyle=orthogonalEdgeStyle;rounded=0;orthogonalLoop=1;jettySize=auto;html=1;entryX=0.5;entryY=0;entryDx=0;entryDy=0;labelBackgroundColor=none;fontSize=29;fontColor=#FFFFFF;" parent="1" source="5D_WGOOgCdQyPNJXZ3vt-28" target="5D_WGOOgCdQyPNJXZ3vt-32" edge="1">
          <mxGeometry relative="1" as="geometry" />
        </mxCell>
        <mxCell id="5D_WGOOgCdQyPNJXZ3vt-28" value="&lt;font style=&quot;vertical-align: inherit ; font-size: 16px&quot;&gt;&lt;font style=&quot;vertical-align: inherit ; font-size: 16px&quot;&gt;Rendering of widget table from base layer and API with filled in location and product ID&lt;/font&gt;&lt;/font&gt;" style="rounded=0;whiteSpace=wrap;html=1;fontSize=16;" parent="1" vertex="1">
          <mxGeometry x="167.5" y="3495" width="205" height="90" as="geometry" />
        </mxCell>
        <mxCell id="5D_WGOOgCdQyPNJXZ3vt-32" value="&lt;font style=&quot;vertical-align: inherit ; font-size: 16px&quot;&gt;&lt;font style=&quot;vertical-align: inherit ; font-size: 16px&quot;&gt;Changing the value of widget attributes&lt;/font&gt;&lt;/font&gt;" style="rounded=0;whiteSpace=wrap;html=1;fontSize=16;" parent="1" vertex="1">
          <mxGeometry x="167.5" y="3620" width="205" height="40" as="geometry" />
        </mxCell>
        <mxCell id="5D_WGOOgCdQyPNJXZ3vt-38" style="edgeStyle=orthogonalEdgeStyle;rounded=0;orthogonalLoop=1;jettySize=auto;html=1;entryX=0.5;entryY=0;entryDx=0;entryDy=0;labelBackgroundColor=none;fontSize=29;fontColor=#FFFFFF;" parent="1" source="5D_WGOOgCdQyPNJXZ3vt-34" target="5D_WGOOgCdQyPNJXZ3vt-35" edge="1">
          <mxGeometry relative="1" as="geometry" />
        </mxCell>
        <mxCell id="5D_WGOOgCdQyPNJXZ3vt-34" value="Save changes" style="rounded=0;whiteSpace=wrap;html=1;fontSize=16;" parent="1" vertex="1">
          <mxGeometry x="167.5" y="3660" width="205" height="40" as="geometry" />
        </mxCell>
        <mxCell id="5D_WGOOgCdQyPNJXZ3vt-35" value="Widget locale value defined" style="rhombus;whiteSpace=wrap;html=1;labelBackgroundColor=none;labelBorderColor=none;fontFamily=Helvetica;fontSize=15;" parent="1" vertex="1">
          <mxGeometry x="185.00000000000003" y="3730" width="170" height="130" as="geometry" />
        </mxCell>
        <mxCell id="5D_WGOOgCdQyPNJXZ3vt-36" value="no" style="edgeStyle=orthogonalEdgeStyle;html=1;align=left;verticalAlign=bottom;endArrow=open;endSize=8;strokeColor=#000000;rounded=0;labelBackgroundColor=none;fontFamily=Helvetica;fontSize=26;fontColor=#000000;exitX=1;exitY=0.5;exitDx=0;exitDy=0;entryX=0;entryY=0.5;entryDx=0;entryDy=0;" parent="1" source="5D_WGOOgCdQyPNJXZ3vt-35" target="5D_WGOOgCdQyPNJXZ3vt-43" edge="1">
          <mxGeometry x="-1" y="196" relative="1" as="geometry">
            <mxPoint x="433.73" y="3935" as="targetPoint" />
            <Array as="points" />
            <mxPoint x="-195" y="181" as="offset" />
          </mxGeometry>
        </mxCell>
        <mxCell id="5D_WGOOgCdQyPNJXZ3vt-37" value="yes" style="edgeStyle=orthogonalEdgeStyle;html=1;align=left;verticalAlign=top;endArrow=open;endSize=8;strokeColor=#000000;rounded=0;labelBackgroundColor=none;fontFamily=Helvetica;fontSize=26;fontColor=#000000;exitX=0;exitY=0.5;exitDx=0;exitDy=0;" parent="1" source="5D_WGOOgCdQyPNJXZ3vt-35" edge="1">
          <mxGeometry x="-1" y="-193" relative="1" as="geometry">
            <mxPoint x="130" y="3880" as="targetPoint" />
            <Array as="points">
              <mxPoint x="130" y="3795" />
              <mxPoint x="130" y="3880" />
            </Array>
            <mxPoint x="185" y="138" as="offset" />
          </mxGeometry>
        </mxCell>
        <mxCell id="5D_WGOOgCdQyPNJXZ3vt-53" style="edgeStyle=orthogonalEdgeStyle;rounded=0;orthogonalLoop=1;jettySize=auto;html=1;entryX=0.5;entryY=1;entryDx=0;entryDy=0;labelBackgroundColor=none;fontSize=15;fontColor=#FFFFFF;" parent="1" source="5D_WGOOgCdQyPNJXZ3vt-42" target="5D_WGOOgCdQyPNJXZ3vt-16" edge="1">
          <mxGeometry relative="1" as="geometry">
            <Array as="points">
              <mxPoint x="1629" y="3740" />
              <mxPoint x="1660" y="3740" />
              <mxPoint x="1660" y="3590" />
              <mxPoint x="1630" y="3590" />
            </Array>
          </mxGeometry>
        </mxCell>
        <mxCell id="5D_WGOOgCdQyPNJXZ3vt-42" value="" style="rounded=0;whiteSpace=wrap;html=1;labelBackgroundColor=none;labelBorderColor=none;fontFamily=Helvetica;fontSize=26;strokeColor=#000000;strokeWidth=1;fillColor=#FF0000;gradientColor=none;" parent="1" vertex="1">
          <mxGeometry x="1619" y="3775" width="20" height="40" as="geometry" />
        </mxCell>
        <mxCell id="5D_WGOOgCdQyPNJXZ3vt-43" value="" style="rounded=0;whiteSpace=wrap;html=1;labelBackgroundColor=none;labelBorderColor=none;fontFamily=Helvetica;fontSize=26;strokeColor=#000000;strokeWidth=1;fillColor=#FF0000;gradientColor=none;" parent="1" vertex="1">
          <mxGeometry x="699" y="3775" width="20" height="40" as="geometry" />
        </mxCell>
        <mxCell id="5D_WGOOgCdQyPNJXZ3vt-44" value="&lt;div style=&quot;text-align: center&quot;&gt;&lt;span&gt;SAVE_WIDGET_CHANGES&amp;nbsp;&lt;/span&gt;&lt;/div&gt;" style="html=1;verticalAlign=bottom;startArrow=oval;startFill=1;endArrow=block;startSize=8;rounded=0;fontFamily=Helvetica;fontSize=20;entryX=0;entryY=0.5;entryDx=0;entryDy=0;fontStyle=1;align=right;labelPosition=left;verticalLabelPosition=top;exitX=1;exitY=0.5;exitDx=0;exitDy=0;labelBackgroundColor=none;" parent="1" source="5D_WGOOgCdQyPNJXZ3vt-43" target="5D_WGOOgCdQyPNJXZ3vt-42" edge="1">
          <mxGeometry x="-0.3756" width="60" relative="1" as="geometry">
            <mxPoint x="729" y="3795" as="sourcePoint" />
            <mxPoint x="1284" y="3795" as="targetPoint" />
            <mxPoint as="offset" />
          </mxGeometry>
        </mxCell>
        <mxCell id="5D_WGOOgCdQyPNJXZ3vt-48" value="&lt;font style=&quot;vertical-align: inherit ; font-size: 16px&quot;&gt;&lt;font style=&quot;vertical-align: inherit ; font-size: 16px&quot;&gt;If the widget&#39;s locale value is not defined, then this item is not stored in the base layer&lt;/font&gt;&lt;/font&gt;" style="rounded=0;whiteSpace=wrap;html=1;fontSize=16;" parent="1" vertex="1">
          <mxGeometry x="90" y="3880" width="205" height="70" as="geometry" />
        </mxCell>
        <mxCell id="5D_WGOOgCdQyPNJXZ3vt-49" style="edgeStyle=orthogonalEdgeStyle;rounded=0;orthogonalLoop=1;jettySize=auto;html=1;entryX=1;entryY=0.5;entryDx=0;entryDy=0;labelBackgroundColor=#FFF2CC;fontFamily=Helvetica;fontSize=16;fontColor=#FFF2CC;strokeColor=#000000;" parent="1" target="5D_WGOOgCdQyPNJXZ3vt-50" edge="1">
          <mxGeometry relative="1" as="geometry">
            <Array as="points">
              <mxPoint x="1660" y="3795" />
              <mxPoint x="1660" y="3860" />
            </Array>
            <mxPoint x="1640" y="3795" as="sourcePoint" />
          </mxGeometry>
        </mxCell>
        <mxCell id="5D_WGOOgCdQyPNJXZ3vt-50" value="" style="rounded=0;whiteSpace=wrap;html=1;labelBackgroundColor=none;labelBorderColor=none;fontFamily=Helvetica;fontSize=26;strokeColor=#000000;strokeWidth=1;fillColor=#FF0000;gradientColor=none;" parent="1" vertex="1">
          <mxGeometry x="1620" y="3840" width="20" height="40" as="geometry" />
        </mxCell>
        <mxCell id="5D_WGOOgCdQyPNJXZ3vt-51" value="&lt;b style=&quot;text-align: right&quot;&gt;NOTIFICATION&lt;br&gt;&lt;/b&gt;" style="html=1;verticalAlign=bottom;startArrow=oval;startFill=1;endArrow=block;startSize=8;rounded=0;labelBackgroundColor=none;fontFamily=Helvetica;fontSize=20;fontColor=#000000;exitX=0;exitY=0.5;exitDx=0;exitDy=0;entryX=1;entryY=0.5;entryDx=0;entryDy=0;" parent="1" source="5D_WGOOgCdQyPNJXZ3vt-50" edge="1">
          <mxGeometry x="-0.4" width="60" relative="1" as="geometry">
            <mxPoint x="1100" y="3880" as="sourcePoint" />
            <mxPoint x="720" y="3860" as="targetPoint" />
            <mxPoint as="offset" />
          </mxGeometry>
        </mxCell>
        <mxCell id="5D_WGOOgCdQyPNJXZ3vt-55" style="edgeStyle=orthogonalEdgeStyle;rounded=0;orthogonalLoop=1;jettySize=auto;html=1;labelBackgroundColor=none;fontSize=15;fontColor=#FFFFFF;" parent="1" source="5D_WGOOgCdQyPNJXZ3vt-52" target="5D_WGOOgCdQyPNJXZ3vt-54" edge="1">
          <mxGeometry relative="1" as="geometry" />
        </mxCell>
        <mxCell id="5D_WGOOgCdQyPNJXZ3vt-52" value="" style="rounded=0;whiteSpace=wrap;html=1;labelBackgroundColor=none;labelBorderColor=none;fontFamily=Helvetica;fontSize=26;strokeColor=#000000;strokeWidth=1;fillColor=#FF0000;gradientColor=none;" parent="1" vertex="1">
          <mxGeometry x="700" y="3840" width="20" height="40" as="geometry" />
        </mxCell>
        <mxCell id="5D_WGOOgCdQyPNJXZ3vt-54" value="&lt;font style=&quot;vertical-align: inherit ; font-size: 16px&quot;&gt;&lt;font style=&quot;vertical-align: inherit ; font-size: 16px&quot;&gt;Notification: data saved&lt;/font&gt;&lt;/font&gt;" style="rounded=0;whiteSpace=wrap;html=1;fontSize=16;" parent="1" vertex="1">
          <mxGeometry x="410" y="3840" width="205" height="40" as="geometry" />
        </mxCell>
        <mxCell id="g-a9l5bh9RtnpEigGKmV-11" style="edgeStyle=orthogonalEdgeStyle;rounded=0;orthogonalLoop=1;jettySize=auto;html=1;" parent="1" source="g-a9l5bh9RtnpEigGKmV-1" edge="1">
          <mxGeometry relative="1" as="geometry">
            <mxPoint x="50" y="3646.6666666666665" as="targetPoint" />
          </mxGeometry>
        </mxCell>
        <mxCell id="g-a9l5bh9RtnpEigGKmV-1" value="" style="rounded=0;whiteSpace=wrap;html=1;labelBackgroundColor=none;labelBorderColor=none;fontFamily=Helvetica;fontSize=26;fillColor=#dae8fc;strokeColor=#6c8ebf;strokeWidth=4;opacity=40;" parent="1" vertex="1">
          <mxGeometry x="80" y="4100" width="1690" height="960" as="geometry" />
        </mxCell>
        <mxCell id="g-a9l5bh9RtnpEigGKmV-2" value="" style="rounded=0;whiteSpace=wrap;html=1;labelBackgroundColor=none;labelBorderColor=none;fontFamily=Helvetica;fontSize=26;strokeColor=#000000;strokeWidth=1;fillColor=#FF0000;gradientColor=none;" parent="1" vertex="1">
          <mxGeometry x="1619" y="4260" width="20" height="40" as="geometry" />
        </mxCell>
        <mxCell id="g-a9l5bh9RtnpEigGKmV-3" value="&lt;div style=&quot;text-align: center&quot;&gt;&lt;b&gt;SET_AVAILABLE_ORDER_STATUSES&lt;/b&gt;&lt;br&gt;&lt;/div&gt;" style="html=1;verticalAlign=bottom;startArrow=oval;startFill=1;endArrow=block;startSize=8;rounded=0;labelBackgroundColor=none;fontFamily=Helvetica;fontSize=20;fontColor=#000000;exitX=0;exitY=0.5;exitDx=0;exitDy=0;entryX=1;entryY=0.5;entryDx=0;entryDy=0;" parent="1" target="g-a9l5bh9RtnpEigGKmV-4" edge="1">
          <mxGeometry x="-0.5578" width="60" relative="1" as="geometry">
            <mxPoint x="1619" y="4280" as="sourcePoint" />
            <mxPoint x="729" y="4280" as="targetPoint" />
            <mxPoint as="offset" />
          </mxGeometry>
        </mxCell>
        <mxCell id="g-a9l5bh9RtnpEigGKmV-51" style="edgeStyle=orthogonalEdgeStyle;rounded=0;orthogonalLoop=1;jettySize=auto;html=1;entryX=0.5;entryY=0;entryDx=0;entryDy=0;entryPerimeter=0;" parent="1" source="g-a9l5bh9RtnpEigGKmV-4" target="g-a9l5bh9RtnpEigGKmV-50" edge="1">
          <mxGeometry relative="1" as="geometry">
            <Array as="points">
              <mxPoint x="709" y="4310" />
              <mxPoint x="198" y="4310" />
              <mxPoint x="198" y="4340" />
            </Array>
          </mxGeometry>
        </mxCell>
        <mxCell id="g-a9l5bh9RtnpEigGKmV-4" value="" style="rounded=0;whiteSpace=wrap;html=1;labelBackgroundColor=none;labelBorderColor=none;fontFamily=Helvetica;fontSize=26;strokeColor=#000000;strokeWidth=1;fillColor=#FF0000;gradientColor=none;" parent="1" vertex="1">
          <mxGeometry x="699" y="4260" width="20" height="40" as="geometry" />
        </mxCell>
        <mxCell id="g-a9l5bh9RtnpEigGKmV-6" value="" style="rounded=0;whiteSpace=wrap;html=1;labelBackgroundColor=none;labelBorderColor=none;fontFamily=Helvetica;fontSize=26;strokeColor=#000000;strokeWidth=1;fillColor=#FF0000;gradientColor=none;" parent="1" vertex="1">
          <mxGeometry x="1619" y="4340" width="20" height="40" as="geometry" />
        </mxCell>
        <mxCell id="g-a9l5bh9RtnpEigGKmV-7" value="&lt;div style=&quot;text-align: right&quot;&gt;&lt;span style=&quot;font-weight: 700 ; text-align: center&quot;&gt;SET_USED_ORDER_STATUSES&lt;/span&gt;&lt;br&gt;&lt;/div&gt;" style="html=1;verticalAlign=bottom;startArrow=oval;startFill=1;endArrow=block;startSize=8;rounded=0;labelBackgroundColor=none;fontFamily=Helvetica;fontSize=20;fontColor=#000000;exitX=0;exitY=0.5;exitDx=0;exitDy=0;entryX=1;entryY=0.5;entryDx=0;entryDy=0;" parent="1" target="g-a9l5bh9RtnpEigGKmV-8" edge="1">
          <mxGeometry x="-0.6022" width="60" relative="1" as="geometry">
            <mxPoint x="1619" y="4360" as="sourcePoint" />
            <mxPoint x="729" y="4360" as="targetPoint" />
            <mxPoint as="offset" />
          </mxGeometry>
        </mxCell>
        <mxCell id="g-a9l5bh9RtnpEigGKmV-8" value="" style="rounded=0;whiteSpace=wrap;html=1;labelBackgroundColor=none;labelBorderColor=none;fontFamily=Helvetica;fontSize=26;strokeColor=#000000;strokeWidth=1;fillColor=#FF0000;gradientColor=none;" parent="1" vertex="1">
          <mxGeometry x="699" y="4340" width="20" height="40" as="geometry" />
        </mxCell>
        <mxCell id="g-a9l5bh9RtnpEigGKmV-12" value="&lt;span style=&quot;text-align: center&quot;&gt;Review invites tab&lt;/span&gt;" style="rounded=0;whiteSpace=wrap;html=1;labelBackgroundColor=none;opacity=40;fontSize=29;align=left;fillColor=none;strokeColor=none;fontColor=#000000;fontStyle=1" parent="1" vertex="1">
          <mxGeometry x="110" y="4110" width="520" height="60" as="geometry" />
        </mxCell>
        <mxCell id="g-a9l5bh9RtnpEigGKmV-23" value="" style="rounded=0;whiteSpace=wrap;html=1;labelBackgroundColor=none;labelBorderColor=none;fontFamily=Helvetica;fontSize=26;strokeColor=#000000;strokeWidth=1;fillColor=#FF0000;gradientColor=none;" parent="1" vertex="1">
          <mxGeometry x="1621" y="4530" width="20" height="40" as="geometry" />
        </mxCell>
        <mxCell id="g-a9l5bh9RtnpEigGKmV-29" value="&lt;b style=&quot;text-align: right&quot;&gt;NOTIFICATION&lt;br&gt;&lt;/b&gt;" style="html=1;verticalAlign=bottom;startArrow=oval;startFill=1;endArrow=block;startSize=8;rounded=0;labelBackgroundColor=none;fontFamily=Helvetica;fontSize=20;fontColor=#000000;exitX=0;exitY=0.5;exitDx=0;exitDy=0;entryX=1;entryY=0.5;entryDx=0;entryDy=0;" parent="1" edge="1">
          <mxGeometry x="-0.4" width="60" relative="1" as="geometry">
            <mxPoint x="1618" y="4549.5" as="sourcePoint" />
            <mxPoint x="718" y="4549.5" as="targetPoint" />
            <mxPoint as="offset" />
          </mxGeometry>
        </mxCell>
        <mxCell id="g-a9l5bh9RtnpEigGKmV-30" style="edgeStyle=orthogonalEdgeStyle;rounded=0;orthogonalLoop=1;jettySize=auto;html=1;labelBackgroundColor=none;fontSize=15;fontColor=#FFFFFF;" parent="1" source="g-a9l5bh9RtnpEigGKmV-31" target="g-a9l5bh9RtnpEigGKmV-32" edge="1">
          <mxGeometry relative="1" as="geometry" />
        </mxCell>
        <mxCell id="g-a9l5bh9RtnpEigGKmV-31" value="" style="rounded=0;whiteSpace=wrap;html=1;labelBackgroundColor=none;labelBorderColor=none;fontFamily=Helvetica;fontSize=26;strokeColor=#000000;strokeWidth=1;fillColor=#FF0000;gradientColor=none;" parent="1" vertex="1">
          <mxGeometry x="699" y="4530" width="20" height="40" as="geometry" />
        </mxCell>
        <mxCell id="g-a9l5bh9RtnpEigGKmV-32" value="&lt;font style=&quot;vertical-align: inherit ; font-size: 16px&quot;&gt;&lt;font style=&quot;vertical-align: inherit ; font-size: 16px&quot;&gt;Notification: data saved&lt;/font&gt;&lt;/font&gt;" style="rounded=0;whiteSpace=wrap;html=1;fontSize=16;" parent="1" vertex="1">
          <mxGeometry x="420" y="4530" width="205" height="40" as="geometry" />
        </mxCell>
        <mxCell id="g-a9l5bh9RtnpEigGKmV-35" value="&lt;p style=&quot;line-height: 20%; font-size: 14px;&quot;&gt;&lt;font style=&quot;font-size: 14px;&quot;&gt;allowsEstimatedDeliveryDate&lt;/font&gt;&lt;/p&gt;&lt;p style=&quot;line-height: 20%; font-size: 14px;&quot;&gt;or&lt;/p&gt;&lt;p style=&quot;line-height: 0%; font-size: 14px;&quot;&gt;&lt;span style=&quot;&quot;&gt;&amp;nbsp;allowsEventsByOrderStatus&lt;/span&gt;&lt;/p&gt;" style="rhombus;whiteSpace=wrap;html=1;labelBackgroundColor=none;labelBorderColor=none;fontFamily=Helvetica;fontSize=15;" parent="1" vertex="1">
          <mxGeometry x="170" y="4170" width="305" height="130" as="geometry" />
        </mxCell>
        <mxCell id="g-a9l5bh9RtnpEigGKmV-36" value="true" style="edgeStyle=orthogonalEdgeStyle;html=1;align=left;verticalAlign=bottom;endArrow=open;endSize=8;strokeColor=#000000;rounded=0;labelBackgroundColor=none;fontFamily=Helvetica;fontSize=26;fontColor=#000000;exitX=1;exitY=0.5;exitDx=0;exitDy=0;entryX=0;entryY=0.5;entryDx=0;entryDy=0;" parent="1" source="g-a9l5bh9RtnpEigGKmV-35" target="g-a9l5bh9RtnpEigGKmV-47" edge="1">
          <mxGeometry x="-1" y="358" relative="1" as="geometry">
            <mxPoint x="424.5" y="4285" as="targetPoint" />
            <Array as="points" />
            <mxPoint x="-357" y="353" as="offset" />
          </mxGeometry>
        </mxCell>
        <mxCell id="g-a9l5bh9RtnpEigGKmV-38" value="allowsEstimatedDeliveryDate" style="rhombus;whiteSpace=wrap;html=1;labelBackgroundColor=none;labelBorderColor=none;fontFamily=Helvetica;fontSize=16;" parent="1" vertex="1">
          <mxGeometry x="719" y="1990" width="241.25" height="100" as="geometry" />
        </mxCell>
        <mxCell id="g-a9l5bh9RtnpEigGKmV-39" value="true" style="edgeStyle=orthogonalEdgeStyle;html=1;align=left;verticalAlign=bottom;endArrow=open;endSize=8;strokeColor=#000000;rounded=0;labelBackgroundColor=none;fontFamily=Helvetica;fontSize=26;fontColor=#000000;exitX=0.5;exitY=0;exitDx=0;exitDy=0;" parent="1" source="g-a9l5bh9RtnpEigGKmV-38" edge="1">
          <mxGeometry x="-0.4212" y="-30" relative="1" as="geometry">
            <mxPoint x="909" y="2000" as="targetPoint" />
            <Array as="points">
              <mxPoint x="909" y="1960" />
            </Array>
            <mxPoint as="offset" />
          </mxGeometry>
        </mxCell>
        <mxCell id="g-a9l5bh9RtnpEigGKmV-40" value="false" style="edgeStyle=orthogonalEdgeStyle;html=1;align=left;verticalAlign=top;endArrow=open;endSize=8;strokeColor=#000000;rounded=0;labelBackgroundColor=none;fontFamily=Helvetica;fontSize=26;fontColor=#000000;exitX=0.5;exitY=1;exitDx=0;exitDy=0;" parent="1" source="g-a9l5bh9RtnpEigGKmV-38" edge="1">
          <mxGeometry x="-1" y="10" relative="1" as="geometry">
            <mxPoint x="910" y="2090" as="targetPoint" />
            <Array as="points">
              <mxPoint x="840" y="2120" />
              <mxPoint x="910" y="2120" />
            </Array>
            <mxPoint x="-10" y="-10" as="offset" />
          </mxGeometry>
        </mxCell>
        <mxCell id="g-a9l5bh9RtnpEigGKmV-41" value="&lt;div style=&quot;text-align: center; font-size: 20px;&quot;&gt;&lt;div style=&quot;font-family: menlo, monaco, &amp;quot;courier new&amp;quot;, monospace; font-size: 20px; line-height: 21px;&quot;&gt;&lt;span style=&quot;font-size: 20px;&quot;&gt;SAVE_USE_ESTIMATED_DELIVERY_DATE_FOR_CHANNEL&lt;/span&gt;&lt;/div&gt;&lt;/div&gt;" style="html=1;verticalAlign=bottom;startArrow=oval;startFill=1;endArrow=block;startSize=8;rounded=0;fontFamily=Helvetica;fontSize=20;entryX=0;entryY=0.5;entryDx=0;entryDy=0;fontStyle=1;align=right;labelPosition=left;verticalLabelPosition=top;labelBackgroundColor=none;fontColor=#000000;" parent="1" edge="1">
          <mxGeometry x="0.6113" width="60" relative="1" as="geometry">
            <mxPoint x="908" y="2090" as="sourcePoint" />
            <mxPoint x="1618" y="2090" as="targetPoint" />
            <mxPoint as="offset" />
          </mxGeometry>
        </mxCell>
        <mxCell id="g-a9l5bh9RtnpEigGKmV-45" style="edgeStyle=orthogonalEdgeStyle;rounded=0;orthogonalLoop=1;jettySize=auto;html=1;" parent="1" source="g-a9l5bh9RtnpEigGKmV-42" edge="1">
          <mxGeometry relative="1" as="geometry">
            <mxPoint x="1800" y="2090" as="targetPoint" />
          </mxGeometry>
        </mxCell>
        <mxCell id="g-a9l5bh9RtnpEigGKmV-42" value="" style="rounded=0;whiteSpace=wrap;html=1;labelBackgroundColor=none;labelBorderColor=none;fontFamily=Helvetica;fontSize=26;strokeColor=#000000;strokeWidth=1;fillColor=#FF0000;gradientColor=none;" parent="1" vertex="1">
          <mxGeometry x="1618" y="2070" width="20" height="40" as="geometry" />
        </mxCell>
        <mxCell id="g-a9l5bh9RtnpEigGKmV-47" value="&lt;font style=&quot;vertical-align: inherit ; font-size: 16px&quot;&gt;&lt;font style=&quot;vertical-align: inherit ; font-size: 16px&quot;&gt;Do not display the section &quot;Send review invitations at the right time&quot;&lt;/font&gt;&lt;/font&gt;" style="rounded=0;whiteSpace=wrap;html=1;fontSize=16;" parent="1" vertex="1">
          <mxGeometry x="615" y="4180" width="205" height="65" as="geometry" />
        </mxCell>
        <mxCell id="g-a9l5bh9RtnpEigGKmV-54" style="edgeStyle=orthogonalEdgeStyle;rounded=0;orthogonalLoop=1;jettySize=auto;html=1;" parent="1" source="g-a9l5bh9RtnpEigGKmV-50" target="g-a9l5bh9RtnpEigGKmV-52" edge="1">
          <mxGeometry relative="1" as="geometry" />
        </mxCell>
        <mxCell id="g-a9l5bh9RtnpEigGKmV-50" value="Display the section &quot;Send review invitations at the right time&quot;" style="rounded=0;whiteSpace=wrap;html=1;fontSize=16;" parent="1" vertex="1">
          <mxGeometry x="95" y="4340" width="205" height="60" as="geometry" />
        </mxCell>
        <mxCell id="g-a9l5bh9RtnpEigGKmV-52" value="&lt;span style=&quot;font-family: roboto, robotodraft, helvetica, arial, sans-serif; background-color: rgb(245, 245, 245); font-size: 15px;&quot;&gt;Change the selected value&lt;/span&gt;" style="rounded=0;whiteSpace=wrap;html=1;fontSize=16;" parent="1" vertex="1">
          <mxGeometry x="95" y="4425" width="205" height="40" as="geometry" />
        </mxCell>
        <mxCell id="g-a9l5bh9RtnpEigGKmV-58" style="edgeStyle=orthogonalEdgeStyle;rounded=0;orthogonalLoop=1;jettySize=auto;html=1;entryX=0;entryY=0.5;entryDx=0;entryDy=0;" parent="1" source="g-a9l5bh9RtnpEigGKmV-53" target="g-a9l5bh9RtnpEigGKmV-56" edge="1">
          <mxGeometry relative="1" as="geometry">
            <Array as="points">
              <mxPoint x="198" y="4730" />
            </Array>
          </mxGeometry>
        </mxCell>
        <mxCell id="g-a9l5bh9RtnpEigGKmV-53" value="Save changes" style="rounded=0;whiteSpace=wrap;html=1;fontSize=16;" parent="1" vertex="1">
          <mxGeometry x="95" y="4465" width="205" height="40" as="geometry" />
        </mxCell>
        <mxCell id="g-a9l5bh9RtnpEigGKmV-55" value="" style="rounded=0;whiteSpace=wrap;html=1;labelBackgroundColor=none;labelBorderColor=none;fontFamily=Helvetica;fontSize=26;strokeColor=#000000;strokeWidth=1;fillColor=#FF0000;gradientColor=none;" parent="1" vertex="1">
          <mxGeometry x="1620" y="4710" width="20" height="40" as="geometry" />
        </mxCell>
        <mxCell id="g-a9l5bh9RtnpEigGKmV-56" value="" style="rounded=0;whiteSpace=wrap;html=1;labelBackgroundColor=none;labelBorderColor=none;fontFamily=Helvetica;fontSize=26;strokeColor=#000000;strokeWidth=1;fillColor=#FF0000;gradientColor=none;" parent="1" vertex="1">
          <mxGeometry x="700" y="4710" width="20" height="40" as="geometry" />
        </mxCell>
        <mxCell id="g-a9l5bh9RtnpEigGKmV-57" value="&lt;div style=&quot;text-align: center&quot;&gt;SAVE_USED_ORDER_STATUSES&lt;br&gt;&lt;/div&gt;" style="html=1;verticalAlign=bottom;startArrow=oval;startFill=1;endArrow=block;startSize=8;rounded=0;fontFamily=Helvetica;fontSize=20;entryX=0;entryY=0.5;entryDx=0;entryDy=0;fontStyle=1;align=right;labelPosition=left;verticalLabelPosition=top;exitX=1;exitY=0.5;exitDx=0;exitDy=0;labelBackgroundColor=none;" parent="1" source="g-a9l5bh9RtnpEigGKmV-56" target="g-a9l5bh9RtnpEigGKmV-55" edge="1">
          <mxGeometry x="0.3111" width="60" relative="1" as="geometry">
            <mxPoint x="730" y="4730" as="sourcePoint" />
            <mxPoint x="1285" y="4730" as="targetPoint" />
            <mxPoint as="offset" />
          </mxGeometry>
        </mxCell>
        <mxCell id="g-a9l5bh9RtnpEigGKmV-67" style="edgeStyle=orthogonalEdgeStyle;rounded=0;orthogonalLoop=1;jettySize=auto;html=1;entryX=0.5;entryY=0;entryDx=0;entryDy=0;" parent="1" source="g-a9l5bh9RtnpEigGKmV-61" target="g-a9l5bh9RtnpEigGKmV-66" edge="1">
          <mxGeometry relative="1" as="geometry" />
        </mxCell>
        <mxCell id="g-a9l5bh9RtnpEigGKmV-61" value="" style="rounded=0;whiteSpace=wrap;html=1;labelBackgroundColor=none;labelBorderColor=none;fontFamily=Helvetica;fontSize=26;strokeColor=#000000;strokeWidth=1;fillColor=#FF0000;gradientColor=none;" parent="1" vertex="1">
          <mxGeometry x="1620" y="4820" width="20" height="40" as="geometry" />
        </mxCell>
        <mxCell id="g-a9l5bh9RtnpEigGKmV-62" value="" style="rounded=0;whiteSpace=wrap;html=1;labelBackgroundColor=none;labelBorderColor=none;fontFamily=Helvetica;fontSize=26;strokeColor=#000000;strokeWidth=1;fillColor=#FF0000;gradientColor=none;" parent="1" vertex="1">
          <mxGeometry x="700" y="4820" width="20" height="40" as="geometry" />
        </mxCell>
        <mxCell id="g-a9l5bh9RtnpEigGKmV-63" value="&lt;div style=&quot;text-align: center&quot;&gt;EXPORT_PREVIOUS_ORDER&amp;nbsp;&lt;br&gt;&lt;/div&gt;" style="html=1;verticalAlign=bottom;startArrow=oval;startFill=1;endArrow=block;startSize=8;rounded=0;fontFamily=Helvetica;fontSize=20;entryX=0;entryY=0.5;entryDx=0;entryDy=0;fontStyle=1;align=right;labelPosition=left;verticalLabelPosition=top;exitX=1;exitY=0.5;exitDx=0;exitDy=0;labelBackgroundColor=none;" parent="1" source="g-a9l5bh9RtnpEigGKmV-62" target="g-a9l5bh9RtnpEigGKmV-61" edge="1">
          <mxGeometry x="-0.3111" width="60" relative="1" as="geometry">
            <mxPoint x="730" y="4840" as="sourcePoint" />
            <mxPoint x="1285" y="4840" as="targetPoint" />
            <mxPoint x="-1" as="offset" />
          </mxGeometry>
        </mxCell>
        <mxCell id="g-a9l5bh9RtnpEigGKmV-65" style="edgeStyle=orthogonalEdgeStyle;rounded=0;orthogonalLoop=1;jettySize=auto;html=1;entryX=0;entryY=0.5;entryDx=0;entryDy=0;" parent="1" source="g-a9l5bh9RtnpEigGKmV-64" target="g-a9l5bh9RtnpEigGKmV-62" edge="1">
          <mxGeometry relative="1" as="geometry" />
        </mxCell>
        <mxCell id="g-a9l5bh9RtnpEigGKmV-64" value="&lt;span style=&quot;color: rgb(0 , 10 , 18) ; font-family: &amp;#34;roboto&amp;#34; , sans-serif ; font-size: 14px ; background-color: rgb(255 , 255 , 255)&quot;&gt;Export a CSV file&lt;/span&gt;" style="rounded=0;whiteSpace=wrap;html=1;fontSize=16;" parent="1" vertex="1">
          <mxGeometry x="409" y="4820" width="205" height="40" as="geometry" />
        </mxCell>
        <mxCell id="g-a9l5bh9RtnpEigGKmV-71" style="edgeStyle=orthogonalEdgeStyle;rounded=0;orthogonalLoop=1;jettySize=auto;html=1;entryX=0.5;entryY=0;entryDx=0;entryDy=0;" parent="1" source="g-a9l5bh9RtnpEigGKmV-66" target="g-a9l5bh9RtnpEigGKmV-68" edge="1">
          <mxGeometry relative="1" as="geometry">
            <Array as="points">
              <mxPoint x="1630" y="4970" />
            </Array>
          </mxGeometry>
        </mxCell>
        <mxCell id="g-a9l5bh9RtnpEigGKmV-66" value="&lt;font color=&quot;#000a12&quot; face=&quot;roboto, sans-serif&quot;&gt;&lt;span style=&quot;font-size: 14px&quot;&gt;Start the process of downloading the generated file to the device&lt;/span&gt;&lt;/font&gt;" style="rounded=0;whiteSpace=wrap;html=1;fontSize=16;" parent="1" vertex="1">
          <mxGeometry x="1527.5" y="4890" width="205" height="60" as="geometry" />
        </mxCell>
        <mxCell id="g-a9l5bh9RtnpEigGKmV-68" value="" style="rounded=0;whiteSpace=wrap;html=1;labelBackgroundColor=none;labelBorderColor=none;fontFamily=Helvetica;fontSize=26;strokeColor=#000000;strokeWidth=1;fillColor=#FF0000;gradientColor=none;" parent="1" vertex="1">
          <mxGeometry x="1620" y="4970" width="20" height="40" as="geometry" />
        </mxCell>
        <mxCell id="g-a9l5bh9RtnpEigGKmV-69" value="&lt;div style=&quot;text-align: center&quot;&gt;&lt;b&gt;SET_EXPORT_PREVIOUS_ORDER&lt;/b&gt;&lt;br&gt;&lt;/div&gt;" style="html=1;verticalAlign=bottom;startArrow=oval;startFill=1;endArrow=block;startSize=8;rounded=0;labelBackgroundColor=none;fontFamily=Helvetica;fontSize=20;fontColor=#000000;exitX=0;exitY=0.5;exitDx=0;exitDy=0;entryX=1;entryY=0.5;entryDx=0;entryDy=0;" parent="1" source="g-a9l5bh9RtnpEigGKmV-68" target="g-a9l5bh9RtnpEigGKmV-70" edge="1">
          <mxGeometry x="-0.6004" width="60" relative="1" as="geometry">
            <mxPoint x="1619" y="4990" as="sourcePoint" />
            <mxPoint x="729" y="4990" as="targetPoint" />
            <mxPoint as="offset" />
          </mxGeometry>
        </mxCell>
        <mxCell id="g-a9l5bh9RtnpEigGKmV-73" style="edgeStyle=orthogonalEdgeStyle;rounded=0;orthogonalLoop=1;jettySize=auto;html=1;" parent="1" source="g-a9l5bh9RtnpEigGKmV-70" target="g-a9l5bh9RtnpEigGKmV-72" edge="1">
          <mxGeometry relative="1" as="geometry" />
        </mxCell>
        <mxCell id="g-a9l5bh9RtnpEigGKmV-70" value="" style="rounded=0;whiteSpace=wrap;html=1;labelBackgroundColor=none;labelBorderColor=none;fontFamily=Helvetica;fontSize=26;strokeColor=#000000;strokeWidth=1;fillColor=#FF0000;gradientColor=none;" parent="1" vertex="1">
          <mxGeometry x="699" y="4970" width="20" height="40" as="geometry" />
        </mxCell>
        <mxCell id="g-a9l5bh9RtnpEigGKmV-72" value="&lt;font style=&quot;vertical-align: inherit ; font-size: 16px&quot;&gt;&lt;font style=&quot;vertical-align: inherit ; font-size: 16px&quot;&gt;Notification: data saved&lt;/font&gt;&lt;/font&gt;" style="rounded=0;whiteSpace=wrap;html=1;fontSize=16;" parent="1" vertex="1">
          <mxGeometry x="409" y="4970" width="205" height="40" as="geometry" />
        </mxCell>
        <mxCell id="g-a9l5bh9RtnpEigGKmV-121" style="edgeStyle=orthogonalEdgeStyle;rounded=0;orthogonalLoop=1;jettySize=auto;html=1;fontSize=23;" parent="1" source="g-a9l5bh9RtnpEigGKmV-77" edge="1">
          <mxGeometry relative="1" as="geometry">
            <mxPoint x="49.99999999999909" y="4570" as="targetPoint" />
          </mxGeometry>
        </mxCell>
        <mxCell id="g-a9l5bh9RtnpEigGKmV-77" value="" style="rounded=0;whiteSpace=wrap;html=1;labelBackgroundColor=none;labelBorderColor=none;fontFamily=Helvetica;fontSize=26;fillColor=#dae8fc;strokeColor=#6c8ebf;strokeWidth=4;opacity=40;" parent="1" vertex="1">
          <mxGeometry x="80" y="5110" width="1690" height="810" as="geometry" />
        </mxCell>
        <mxCell id="g-a9l5bh9RtnpEigGKmV-78" value="&lt;span style=&quot;text-align: center&quot;&gt;Settings tab&lt;/span&gt;" style="rounded=0;whiteSpace=wrap;html=1;labelBackgroundColor=none;opacity=40;fontSize=29;align=left;fillColor=none;strokeColor=none;fontColor=#000000;fontStyle=1" parent="1" vertex="1">
          <mxGeometry x="110" y="5140" width="520" height="60" as="geometry" />
        </mxCell>
        <mxCell id="g-a9l5bh9RtnpEigGKmV-82" style="edgeStyle=orthogonalEdgeStyle;rounded=0;orthogonalLoop=1;jettySize=auto;html=1;" parent="1" source="g-a9l5bh9RtnpEigGKmV-79" target="g-a9l5bh9RtnpEigGKmV-84" edge="1">
          <mxGeometry relative="1" as="geometry">
            <Array as="points">
              <mxPoint x="10" y="1615" />
              <mxPoint x="10" y="5480" />
            </Array>
          </mxGeometry>
        </mxCell>
        <mxCell id="g-a9l5bh9RtnpEigGKmV-84" value="" style="rounded=0;whiteSpace=wrap;html=1;dashed=1;fillColor=#f8cecc;strokeColor=#000000;opacity=20;strokeWidth=3;" parent="1" vertex="1">
          <mxGeometry x="120" y="5260" width="530" height="440" as="geometry" />
        </mxCell>
        <mxCell id="g-a9l5bh9RtnpEigGKmV-86" value="&lt;div style=&quot;text-align: right&quot;&gt;&lt;b&gt;SET_MAPPED_CHANNELS&lt;/b&gt;&lt;br&gt;&lt;/div&gt;" style="html=1;verticalAlign=bottom;startArrow=oval;startFill=1;endArrow=block;startSize=8;rounded=0;labelBackgroundColor=none;fontFamily=Helvetica;fontSize=20;fontColor=#000000;entryX=1;entryY=0.5;entryDx=0;entryDy=0;" parent="1" target="g-a9l5bh9RtnpEigGKmV-88" edge="1">
          <mxGeometry width="60" relative="1" as="geometry">
            <mxPoint x="1180" y="5390" as="sourcePoint" />
            <mxPoint x="730" y="5390" as="targetPoint" />
            <mxPoint as="offset" />
          </mxGeometry>
        </mxCell>
        <mxCell id="g-a9l5bh9RtnpEigGKmV-87" style="edgeStyle=orthogonalEdgeStyle;rounded=0;orthogonalLoop=1;jettySize=auto;html=1;labelBackgroundColor=none;fontFamily=Helvetica;fontSize=26;fontColor=#000000;strokeColor=#000000;" parent="1" source="g-a9l5bh9RtnpEigGKmV-88" edge="1">
          <mxGeometry relative="1" as="geometry">
            <mxPoint x="370" y="5330" as="targetPoint" />
            <Array as="points">
              <mxPoint x="430" y="5390" />
              <mxPoint x="430" y="5330" />
            </Array>
          </mxGeometry>
        </mxCell>
        <mxCell id="g-a9l5bh9RtnpEigGKmV-88" value="" style="rounded=0;whiteSpace=wrap;html=1;labelBackgroundColor=none;labelBorderColor=none;fontFamily=Helvetica;fontSize=26;strokeColor=#000000;strokeWidth=1;fillColor=#FF0000;gradientColor=none;" parent="1" vertex="1">
          <mxGeometry x="700" y="5370" width="20" height="40" as="geometry" />
        </mxCell>
        <mxCell id="g-a9l5bh9RtnpEigGKmV-89" value="&lt;div style=&quot;text-align: right&quot;&gt;&lt;b&gt;SET_SALES_CHANNELS_PROVIDED&lt;/b&gt;&lt;br&gt;&lt;/div&gt;" style="html=1;verticalAlign=bottom;startArrow=oval;startFill=1;endArrow=block;startSize=8;rounded=0;labelBackgroundColor=none;fontFamily=Helvetica;fontSize=20;fontColor=#000000;entryX=1;entryY=0.5;entryDx=0;entryDy=0;" parent="1" target="g-a9l5bh9RtnpEigGKmV-90" edge="1">
          <mxGeometry width="60" relative="1" as="geometry">
            <mxPoint x="1180" y="5325" as="sourcePoint" />
            <mxPoint x="730" y="5325" as="targetPoint" />
            <mxPoint as="offset" />
          </mxGeometry>
        </mxCell>
        <mxCell id="g-a9l5bh9RtnpEigGKmV-116" style="edgeStyle=orthogonalEdgeStyle;rounded=0;orthogonalLoop=1;jettySize=auto;html=1;entryX=1;entryY=0.5;entryDx=0;entryDy=0;fontSize=23;" parent="1" source="g-a9l5bh9RtnpEigGKmV-90" target="g-a9l5bh9RtnpEigGKmV-115" edge="1">
          <mxGeometry relative="1" as="geometry" />
        </mxCell>
        <mxCell id="g-a9l5bh9RtnpEigGKmV-90" value="" style="rounded=0;whiteSpace=wrap;html=1;labelBackgroundColor=none;labelBorderColor=none;fontFamily=Helvetica;fontSize=26;strokeColor=#000000;strokeWidth=1;fillColor=#FF0000;gradientColor=none;" parent="1" vertex="1">
          <mxGeometry x="700" y="5305" width="20" height="40" as="geometry" />
        </mxCell>
        <mxCell id="g-a9l5bh9RtnpEigGKmV-97" value="" style="rounded=0;whiteSpace=wrap;html=1;labelBackgroundColor=none;labelBorderColor=none;fontFamily=Helvetica;fontSize=26;strokeColor=#000000;strokeWidth=1;fillColor=#FF0000;gradientColor=none;" parent="1" vertex="1">
          <mxGeometry x="1620" y="5580" width="20" height="40" as="geometry" />
        </mxCell>
        <mxCell id="g-a9l5bh9RtnpEigGKmV-98" value="&lt;b style=&quot;text-align: right&quot;&gt;NOTIFICATION&lt;br&gt;&lt;/b&gt;" style="html=1;verticalAlign=bottom;startArrow=oval;startFill=1;endArrow=block;startSize=8;rounded=0;labelBackgroundColor=none;fontFamily=Helvetica;fontSize=20;fontColor=#000000;exitX=0;exitY=0.5;exitDx=0;exitDy=0;entryX=1;entryY=0.5;entryDx=0;entryDy=0;" parent="1" source="g-a9l5bh9RtnpEigGKmV-97" edge="1">
          <mxGeometry x="-0.4" width="60" relative="1" as="geometry">
            <mxPoint x="1100" y="5620" as="sourcePoint" />
            <mxPoint x="720" y="5600" as="targetPoint" />
            <mxPoint as="offset" />
          </mxGeometry>
        </mxCell>
        <mxCell id="g-a9l5bh9RtnpEigGKmV-99" style="edgeStyle=orthogonalEdgeStyle;rounded=0;orthogonalLoop=1;jettySize=auto;html=1;entryX=1;entryY=0.5;entryDx=0;entryDy=0;labelBackgroundColor=none;fontFamily=Helvetica;fontSize=19;fontColor=#000000;strokeColor=#000000;" parent="1" target="g-a9l5bh9RtnpEigGKmV-105" edge="1">
          <mxGeometry relative="1" as="geometry">
            <Array as="points">
              <mxPoint x="1660" y="5490" />
              <mxPoint x="1660" y="5660" />
            </Array>
            <mxPoint x="1640" y="5490.0526315789475" as="sourcePoint" />
          </mxGeometry>
        </mxCell>
        <mxCell id="g-a9l5bh9RtnpEigGKmV-100" value="" style="rounded=0;whiteSpace=wrap;html=1;labelBackgroundColor=none;labelBorderColor=none;fontFamily=Helvetica;fontSize=26;strokeColor=#000000;strokeWidth=1;fillColor=#FF0000;gradientColor=none;" parent="1" vertex="1">
          <mxGeometry x="700" y="5470" width="20" height="40" as="geometry" />
        </mxCell>
        <mxCell id="g-a9l5bh9RtnpEigGKmV-101" value="" style="rounded=0;whiteSpace=wrap;html=1;labelBackgroundColor=none;labelBorderColor=none;fontFamily=Helvetica;fontSize=26;strokeColor=#000000;strokeWidth=1;fillColor=#FF0000;gradientColor=none;" parent="1" vertex="1">
          <mxGeometry x="700" y="5580" width="20" height="40" as="geometry" />
        </mxCell>
        <mxCell id="g-a9l5bh9RtnpEigGKmV-102" value="&lt;div style=&quot;text-align: center&quot;&gt;SAVE_MAPPED_CHANNEL&lt;/div&gt;" style="html=1;verticalAlign=bottom;startArrow=oval;startFill=1;endArrow=block;startSize=8;rounded=0;fontFamily=Helvetica;fontSize=20;entryX=0;entryY=0.5;entryDx=0;entryDy=0;fontStyle=1;align=right;labelPosition=left;verticalLabelPosition=top;exitX=1;exitY=0.5;exitDx=0;exitDy=0;labelBackgroundColor=none;" parent="1" source="g-a9l5bh9RtnpEigGKmV-100" edge="1">
          <mxGeometry x="-0.4" width="60" relative="1" as="geometry">
            <mxPoint x="730" y="5490" as="sourcePoint" />
            <mxPoint x="1620" y="5490" as="targetPoint" />
            <mxPoint as="offset" />
          </mxGeometry>
        </mxCell>
        <mxCell id="g-a9l5bh9RtnpEigGKmV-103" style="edgeStyle=orthogonalEdgeStyle;rounded=0;orthogonalLoop=1;jettySize=auto;html=1;labelBackgroundColor=none;fontFamily=Helvetica;fontSize=19;fontColor=#000000;strokeColor=#000000;entryX=0;entryY=0.5;entryDx=0;entryDy=0;" parent="1" source="g-a9l5bh9RtnpEigGKmV-104" target="g-a9l5bh9RtnpEigGKmV-100" edge="1">
          <mxGeometry relative="1" as="geometry">
            <mxPoint x="620" y="5490" as="targetPoint" />
          </mxGeometry>
        </mxCell>
        <mxCell id="g-a9l5bh9RtnpEigGKmV-104" value="&lt;font style=&quot;vertical-align: inherit ; font-size: 16px&quot;&gt;&lt;font style=&quot;vertical-align: inherit ; font-size: 16px&quot;&gt;&lt;font style=&quot;vertical-align: inherit ; font-size: 16px&quot;&gt;&lt;font style=&quot;vertical-align: inherit ; font-size: 16px&quot;&gt;Change selected channel values&lt;/font&gt;&lt;/font&gt;&lt;/font&gt;&lt;/font&gt;" style="rounded=0;whiteSpace=wrap;html=1;fontSize=16;" parent="1" vertex="1">
          <mxGeometry x="225" y="5470" width="145" height="40" as="geometry" />
        </mxCell>
        <mxCell id="g-a9l5bh9RtnpEigGKmV-105" value="" style="rounded=0;whiteSpace=wrap;html=1;labelBackgroundColor=none;labelBorderColor=none;fontFamily=Helvetica;fontSize=26;strokeColor=#000000;strokeWidth=1;fillColor=#FF0000;gradientColor=none;" parent="1" vertex="1">
          <mxGeometry x="1620" y="5640" width="20" height="40" as="geometry" />
        </mxCell>
        <mxCell id="g-a9l5bh9RtnpEigGKmV-106" value="&lt;div style=&quot;text-align: right ; font-size: 20px&quot;&gt;&lt;b&gt;SET_MAPPED_CHANNELS&lt;/b&gt;&lt;br&gt;&lt;/div&gt;" style="html=1;verticalAlign=bottom;startArrow=oval;startFill=1;endArrow=block;startSize=8;rounded=0;labelBackgroundColor=none;fontFamily=Helvetica;fontSize=20;fontColor=#000000;exitX=0;exitY=0.5;exitDx=0;exitDy=0;entryX=1;entryY=0.5;entryDx=0;entryDy=0;" parent="1" source="g-a9l5bh9RtnpEigGKmV-105" edge="1">
          <mxGeometry x="-0.5333" width="60" relative="1" as="geometry">
            <mxPoint x="1100" y="5680" as="sourcePoint" />
            <mxPoint x="720" y="5660" as="targetPoint" />
            <mxPoint as="offset" />
          </mxGeometry>
        </mxCell>
        <mxCell id="g-a9l5bh9RtnpEigGKmV-107" style="edgeStyle=orthogonalEdgeStyle;rounded=0;orthogonalLoop=1;jettySize=auto;html=1;entryX=1;entryY=0.5;entryDx=0;entryDy=0;labelBackgroundColor=none;fontFamily=Helvetica;fontSize=19;fontColor=#000000;strokeColor=#000000;" parent="1" source="g-a9l5bh9RtnpEigGKmV-108" target="g-a9l5bh9RtnpEigGKmV-111" edge="1">
          <mxGeometry relative="1" as="geometry" />
        </mxCell>
        <mxCell id="g-a9l5bh9RtnpEigGKmV-108" value="" style="rounded=0;whiteSpace=wrap;html=1;labelBackgroundColor=none;labelBorderColor=none;fontFamily=Helvetica;fontSize=26;strokeColor=#000000;strokeWidth=1;fillColor=#FF0000;gradientColor=none;" parent="1" vertex="1">
          <mxGeometry x="700" y="5640" width="20" height="40" as="geometry" />
        </mxCell>
        <mxCell id="g-a9l5bh9RtnpEigGKmV-109" style="edgeStyle=orthogonalEdgeStyle;rounded=0;orthogonalLoop=1;jettySize=auto;html=1;entryX=1;entryY=0.5;entryDx=0;entryDy=0;labelBackgroundColor=none;fontFamily=Helvetica;fontSize=20;fontColor=#000000;strokeColor=#000000;" parent="1" target="g-a9l5bh9RtnpEigGKmV-110" edge="1">
          <mxGeometry relative="1" as="geometry">
            <mxPoint x="700" y="5600" as="sourcePoint" />
          </mxGeometry>
        </mxCell>
        <mxCell id="g-a9l5bh9RtnpEigGKmV-110" value="&lt;font style=&quot;vertical-align: inherit ; font-size: 16px&quot;&gt;&lt;font style=&quot;vertical-align: inherit ; font-size: 16px&quot;&gt;Notification: data saved&lt;/font&gt;&lt;/font&gt;" style="rounded=0;whiteSpace=wrap;html=1;fontSize=16;" parent="1" vertex="1">
          <mxGeometry x="410" y="5580" width="205" height="40" as="geometry" />
        </mxCell>
        <mxCell id="g-a9l5bh9RtnpEigGKmV-111" value="&lt;font style=&quot;vertical-align: inherit ; font-size: 16px&quot;&gt;&lt;font style=&quot;vertical-align: inherit ; font-size: 16px&quot;&gt;&lt;font style=&quot;vertical-align: inherit ; font-size: 16px&quot;&gt;&lt;font style=&quot;vertical-align: inherit ; font-size: 16px&quot;&gt;Auto-select first matched element&lt;/font&gt;&lt;/font&gt;&lt;/font&gt;&lt;/font&gt;" style="rounded=0;whiteSpace=wrap;html=1;fontSize=16;" parent="1" vertex="1">
          <mxGeometry x="230" y="5640" width="145" height="40" as="geometry" />
        </mxCell>
        <mxCell id="g-a9l5bh9RtnpEigGKmV-112" value="" style="strokeWidth=2;html=1;shape=mxgraph.flowchart.document2;whiteSpace=wrap;size=0.10845481049562257;fillColor=#dae8fc;rotation=-90;strokeColor=#6c8ebf;" parent="1" vertex="1">
          <mxGeometry x="1242.5" y="5237.5" width="100" height="245" as="geometry" />
        </mxCell>
        <mxCell id="g-a9l5bh9RtnpEigGKmV-113" value="Event from Channel mapping" style="text;html=1;strokeColor=none;fillColor=none;align=center;verticalAlign=middle;whiteSpace=wrap;rounded=0;fontSize=23;fontStyle=1" parent="1" vertex="1">
          <mxGeometry x="1170" y="5345" width="230" height="30" as="geometry" />
        </mxCell>
        <mxCell id="g-a9l5bh9RtnpEigGKmV-118" style="edgeStyle=orthogonalEdgeStyle;rounded=0;orthogonalLoop=1;jettySize=auto;html=1;fontSize=23;" parent="1" source="g-a9l5bh9RtnpEigGKmV-115" target="g-a9l5bh9RtnpEigGKmV-104" edge="1">
          <mxGeometry relative="1" as="geometry">
            <mxPoint x="297.5" y="5435" as="targetPoint" />
          </mxGeometry>
        </mxCell>
        <mxCell id="g-a9l5bh9RtnpEigGKmV-115" value="&lt;span style=&quot;font-size: 19px&quot;&gt;Automatic mapping&lt;/span&gt;" style="rounded=0;whiteSpace=wrap;html=1;fontSize=16;" parent="1" vertex="1">
          <mxGeometry x="225" y="5287.5" width="145" height="75" as="geometry" />
        </mxCell>
        <mxCell id="g-a9l5bh9RtnpEigGKmV-120" style="edgeStyle=orthogonalEdgeStyle;rounded=0;orthogonalLoop=1;jettySize=auto;html=1;fontSize=23;" parent="1" source="g-a9l5bh9RtnpEigGKmV-119" target="g-a9l5bh9RtnpEigGKmV-97" edge="1">
          <mxGeometry relative="1" as="geometry" />
        </mxCell>
        <mxCell id="g-a9l5bh9RtnpEigGKmV-119" value="" style="rounded=0;whiteSpace=wrap;html=1;labelBackgroundColor=none;labelBorderColor=none;fontFamily=Helvetica;fontSize=26;strokeColor=#000000;strokeWidth=1;fillColor=#FF0000;gradientColor=none;" parent="1" vertex="1">
          <mxGeometry x="1620" y="5470" width="20" height="40" as="geometry" />
        </mxCell>
        <mxCell id="g-a9l5bh9RtnpEigGKmV-123" value="" style="rounded=0;whiteSpace=wrap;html=1;dashed=1;fillColor=none;" parent="1" vertex="1">
          <mxGeometry x="120" y="5720" width="1590" height="170" as="geometry" />
        </mxCell>
        <mxCell id="g-a9l5bh9RtnpEigGKmV-134" style="edgeStyle=orthogonalEdgeStyle;rounded=0;orthogonalLoop=1;jettySize=auto;html=1;entryX=1;entryY=0.5;entryDx=0;entryDy=0;fontSize=23;" parent="1" source="g-a9l5bh9RtnpEigGKmV-124" target="g-a9l5bh9RtnpEigGKmV-129" edge="1">
          <mxGeometry relative="1" as="geometry">
            <Array as="points">
              <mxPoint x="1660" y="5760" />
              <mxPoint x="1660" y="5830" />
            </Array>
          </mxGeometry>
        </mxCell>
        <mxCell id="g-a9l5bh9RtnpEigGKmV-124" value="" style="rounded=0;whiteSpace=wrap;html=1;labelBackgroundColor=none;labelBorderColor=none;fontFamily=Helvetica;fontSize=26;strokeColor=#000000;strokeWidth=1;fillColor=#FF0000;gradientColor=none;" parent="1" vertex="1">
          <mxGeometry x="1620" y="5740" width="20" height="40" as="geometry" />
        </mxCell>
        <mxCell id="g-a9l5bh9RtnpEigGKmV-125" value="" style="rounded=0;whiteSpace=wrap;html=1;labelBackgroundColor=none;labelBorderColor=none;fontFamily=Helvetica;fontSize=26;strokeColor=#000000;strokeWidth=1;fillColor=#FF0000;gradientColor=none;" parent="1" vertex="1">
          <mxGeometry x="700" y="5740" width="20" height="40" as="geometry" />
        </mxCell>
        <mxCell id="g-a9l5bh9RtnpEigGKmV-126" value="&lt;div style=&quot;text-align: center&quot;&gt;DISCONNECTED&lt;br&gt;&lt;/div&gt;" style="html=1;verticalAlign=bottom;startArrow=oval;startFill=1;endArrow=block;startSize=8;rounded=0;fontFamily=Helvetica;fontSize=20;entryX=0;entryY=0.5;entryDx=0;entryDy=0;fontStyle=1;align=right;labelPosition=left;verticalLabelPosition=top;exitX=1;exitY=0.5;exitDx=0;exitDy=0;labelBackgroundColor=none;" parent="1" source="g-a9l5bh9RtnpEigGKmV-125" target="g-a9l5bh9RtnpEigGKmV-124" edge="1">
          <mxGeometry x="-0.6" width="60" relative="1" as="geometry">
            <mxPoint x="730" y="5760" as="sourcePoint" />
            <mxPoint x="1285" y="5760" as="targetPoint" />
            <mxPoint as="offset" />
          </mxGeometry>
        </mxCell>
        <mxCell id="g-a9l5bh9RtnpEigGKmV-127" style="edgeStyle=orthogonalEdgeStyle;rounded=0;orthogonalLoop=1;jettySize=auto;html=1;entryX=0;entryY=0.5;entryDx=0;entryDy=0;" parent="1" source="g-a9l5bh9RtnpEigGKmV-128" target="g-a9l5bh9RtnpEigGKmV-125" edge="1">
          <mxGeometry relative="1" as="geometry" />
        </mxCell>
        <mxCell id="g-a9l5bh9RtnpEigGKmV-128" value="&lt;font color=&quot;#000a12&quot; face=&quot;roboto, sans-serif&quot;&gt;&lt;span style=&quot;font-size: 14px&quot;&gt;DISCONNECT&lt;/span&gt;&lt;/font&gt;" style="rounded=0;whiteSpace=wrap;html=1;fontSize=16;" parent="1" vertex="1">
          <mxGeometry x="409" y="5740" width="205" height="40" as="geometry" />
        </mxCell>
        <mxCell id="g-a9l5bh9RtnpEigGKmV-129" value="" style="rounded=0;whiteSpace=wrap;html=1;labelBackgroundColor=none;labelBorderColor=none;fontFamily=Helvetica;fontSize=26;strokeColor=#000000;strokeWidth=1;fillColor=#FF0000;gradientColor=none;" parent="1" vertex="1">
          <mxGeometry x="1620" y="5810" width="20" height="40" as="geometry" />
        </mxCell>
        <mxCell id="g-a9l5bh9RtnpEigGKmV-130" value="&lt;div style=&quot;text-align: center&quot;&gt;&lt;/div&gt;&lt;b&gt;SET_DISCONNECTED&lt;/b&gt;" style="html=1;verticalAlign=bottom;startArrow=oval;startFill=1;endArrow=block;startSize=8;rounded=0;labelBackgroundColor=none;fontFamily=Helvetica;fontSize=20;fontColor=#000000;entryX=1;entryY=0.5;entryDx=0;entryDy=0;" parent="1" source="g-a9l5bh9RtnpEigGKmV-129" target="g-a9l5bh9RtnpEigGKmV-132" edge="1">
          <mxGeometry x="-0.6004" width="60" relative="1" as="geometry">
            <mxPoint x="1619" y="5830" as="sourcePoint" />
            <mxPoint x="729" y="5830" as="targetPoint" />
            <mxPoint as="offset" />
          </mxGeometry>
        </mxCell>
        <mxCell id="g-a9l5bh9RtnpEigGKmV-131" style="edgeStyle=orthogonalEdgeStyle;rounded=0;orthogonalLoop=1;jettySize=auto;html=1;" parent="1" source="g-a9l5bh9RtnpEigGKmV-132" target="g-a9l5bh9RtnpEigGKmV-133" edge="1">
          <mxGeometry relative="1" as="geometry" />
        </mxCell>
        <mxCell id="g-a9l5bh9RtnpEigGKmV-132" value="" style="rounded=0;whiteSpace=wrap;html=1;labelBackgroundColor=none;labelBorderColor=none;fontFamily=Helvetica;fontSize=26;strokeColor=#000000;strokeWidth=1;fillColor=#FF0000;gradientColor=none;" parent="1" vertex="1">
          <mxGeometry x="699" y="5810" width="20" height="40" as="geometry" />
        </mxCell>
        <mxCell id="g-a9l5bh9RtnpEigGKmV-133" value="&lt;font style=&quot;vertical-align: inherit ; font-size: 16px&quot;&gt;&lt;font style=&quot;vertical-align: inherit ; font-size: 16px&quot;&gt;Logout&lt;/font&gt;&lt;/font&gt;" style="rounded=0;whiteSpace=wrap;html=1;fontSize=16;" parent="1" vertex="1">
          <mxGeometry x="409" y="5810" width="205" height="40" as="geometry" />
        </mxCell>
        <mxCell id="g-a9l5bh9RtnpEigGKmV-135" value="" style="rounded=0;whiteSpace=wrap;html=1;labelBackgroundColor=none;labelBorderColor=none;fontFamily=Helvetica;fontSize=26;fillColor=#dae8fc;strokeColor=#6c8ebf;strokeWidth=4;opacity=40;" parent="1" vertex="1">
          <mxGeometry x="80" y="5980" width="1690" height="460" as="geometry" />
        </mxCell>
        <mxCell id="g-a9l5bh9RtnpEigGKmV-136" value="" style="rounded=0;whiteSpace=wrap;html=1;labelBackgroundColor=none;labelBorderColor=none;fontFamily=Helvetica;fontSize=26;strokeColor=#000000;strokeWidth=1;fillColor=#FF0000;gradientColor=none;" parent="1" vertex="1">
          <mxGeometry x="701" y="6010" width="20" height="40" as="geometry" />
        </mxCell>
        <mxCell id="g-a9l5bh9RtnpEigGKmV-142" style="edgeStyle=orthogonalEdgeStyle;rounded=0;orthogonalLoop=1;jettySize=auto;html=1;entryX=1;entryY=0.5;entryDx=0;entryDy=0;fontSize=23;" parent="1" source="g-a9l5bh9RtnpEigGKmV-137" target="g-a9l5bh9RtnpEigGKmV-139" edge="1">
          <mxGeometry relative="1" as="geometry">
            <Array as="points">
              <mxPoint x="1661" y="6030" />
              <mxPoint x="1661" y="6120" />
            </Array>
          </mxGeometry>
        </mxCell>
        <mxCell id="g-a9l5bh9RtnpEigGKmV-137" value="" style="rounded=0;whiteSpace=wrap;html=1;labelBackgroundColor=none;labelBorderColor=none;fontFamily=Helvetica;fontSize=26;strokeColor=#000000;strokeWidth=1;fillColor=#FF0000;gradientColor=none;" parent="1" vertex="1">
          <mxGeometry x="1621" y="6010" width="20" height="40" as="geometry" />
        </mxCell>
        <mxCell id="g-a9l5bh9RtnpEigGKmV-138" value="GET_CREDENTIALS_PROVIDED" style="html=1;verticalAlign=bottom;startArrow=oval;startFill=1;endArrow=block;startSize=8;rounded=0;fontFamily=Helvetica;fontSize=20;entryX=0;entryY=0.5;entryDx=0;entryDy=0;fontStyle=1;exitX=1;exitY=0.5;exitDx=0;exitDy=0;labelBackgroundColor=none;" parent="1" source="g-a9l5bh9RtnpEigGKmV-136" target="g-a9l5bh9RtnpEigGKmV-137" edge="1">
          <mxGeometry x="-0.6207" y="1" width="60" relative="1" as="geometry">
            <mxPoint x="805.9999999999998" y="6029.62" as="sourcePoint" />
            <mxPoint x="1286" y="6030" as="targetPoint" />
            <mxPoint as="offset" />
          </mxGeometry>
        </mxCell>
        <mxCell id="g-a9l5bh9RtnpEigGKmV-139" value="" style="rounded=0;whiteSpace=wrap;html=1;labelBackgroundColor=none;labelBorderColor=none;fontFamily=Helvetica;fontSize=26;strokeColor=#000000;strokeWidth=1;fillColor=#FF0000;gradientColor=none;" parent="1" vertex="1">
          <mxGeometry x="1621" y="6100" width="20" height="40" as="geometry" />
        </mxCell>
        <mxCell id="g-a9l5bh9RtnpEigGKmV-147" style="edgeStyle=orthogonalEdgeStyle;rounded=0;orthogonalLoop=1;jettySize=auto;html=1;fontSize=16;" parent="1" source="g-a9l5bh9RtnpEigGKmV-140" target="g-a9l5bh9RtnpEigGKmV-150" edge="1">
          <mxGeometry relative="1" as="geometry">
            <mxPoint x="615" y="6120" as="targetPoint" />
          </mxGeometry>
        </mxCell>
        <mxCell id="g-a9l5bh9RtnpEigGKmV-140" value="" style="rounded=0;whiteSpace=wrap;html=1;labelBackgroundColor=none;labelBorderColor=none;fontFamily=Helvetica;fontSize=26;strokeColor=#000000;strokeWidth=1;fillColor=#FF0000;gradientColor=none;" parent="1" vertex="1">
          <mxGeometry x="701" y="6100" width="20" height="40" as="geometry" />
        </mxCell>
        <mxCell id="g-a9l5bh9RtnpEigGKmV-141" value="&lt;span style=&quot;font-weight: 700&quot;&gt;SET_CREDENTIALS_PROVIDED&lt;/span&gt;" style="html=1;verticalAlign=bottom;startArrow=oval;startFill=1;endArrow=block;startSize=8;rounded=0;labelBackgroundColor=none;fontFamily=Helvetica;fontSize=20;fontColor=#000000;exitX=0;exitY=0.5;exitDx=0;exitDy=0;entryX=1;entryY=0.5;entryDx=0;entryDy=0;" parent="1" source="g-a9l5bh9RtnpEigGKmV-139" target="g-a9l5bh9RtnpEigGKmV-140" edge="1">
          <mxGeometry x="-0.6" width="60" relative="1" as="geometry">
            <mxPoint x="1101" y="6140" as="sourcePoint" />
            <mxPoint x="1161" y="6140" as="targetPoint" />
            <mxPoint as="offset" />
          </mxGeometry>
        </mxCell>
        <mxCell id="g-a9l5bh9RtnpEigGKmV-143" value="&lt;div style=&quot;text-align: center&quot;&gt;&lt;span&gt;Refresh token&lt;/span&gt;&lt;/div&gt;" style="rounded=0;whiteSpace=wrap;html=1;labelBackgroundColor=none;opacity=40;fontSize=29;align=left;fillColor=none;strokeColor=none;fontColor=#000000;fontStyle=1" parent="1" vertex="1">
          <mxGeometry x="110" y="6010" width="520" height="60" as="geometry" />
        </mxCell>
        <mxCell id="g-a9l5bh9RtnpEigGKmV-145" style="edgeStyle=orthogonalEdgeStyle;rounded=0;orthogonalLoop=1;jettySize=auto;html=1;fontSize=23;" parent="1" source="g-a9l5bh9RtnpEigGKmV-144" target="g-a9l5bh9RtnpEigGKmV-136" edge="1">
          <mxGeometry relative="1" as="geometry" />
        </mxCell>
        <mxCell id="g-a9l5bh9RtnpEigGKmV-144" value="&lt;span style=&quot;&quot;&gt;Refresh token&lt;/span&gt;" style="rounded=0;whiteSpace=wrap;html=1;fontSize=16;fontStyle=0" parent="1" vertex="1">
          <mxGeometry x="410" y="6010" width="205" height="40" as="geometry" />
        </mxCell>
        <mxCell id="g-a9l5bh9RtnpEigGKmV-148" style="edgeStyle=orthogonalEdgeStyle;rounded=0;orthogonalLoop=1;jettySize=auto;html=1;labelBackgroundColor=none;fontFamily=Helvetica;fontSize=16;fontColor=default;strokeColor=#000000;exitX=0.5;exitY=1;exitDx=0;exitDy=0;entryX=0.5;entryY=0;entryDx=0;entryDy=0;" parent="1" source="g-a9l5bh9RtnpEigGKmV-150" target="g-a9l5bh9RtnpEigGKmV-152" edge="1">
          <mxGeometry relative="1" as="geometry">
            <Array as="points" />
          </mxGeometry>
        </mxCell>
        <mxCell id="g-a9l5bh9RtnpEigGKmV-149" style="edgeStyle=orthogonalEdgeStyle;rounded=0;orthogonalLoop=1;jettySize=auto;html=1;entryX=0.5;entryY=0;entryDx=0;entryDy=0;labelBackgroundColor=none;fontFamily=Helvetica;fontSize=26;fontColor=#000000;strokeColor=#000000;exitX=0;exitY=0.5;exitDx=0;exitDy=0;" parent="1" source="g-a9l5bh9RtnpEigGKmV-150" target="g-a9l5bh9RtnpEigGKmV-151" edge="1">
          <mxGeometry relative="1" as="geometry">
            <Array as="points">
              <mxPoint x="255" y="6120" />
            </Array>
          </mxGeometry>
        </mxCell>
        <mxCell id="g-a9l5bh9RtnpEigGKmV-150" value="&lt;font style=&quot;vertical-align: inherit&quot;&gt;&lt;font style=&quot;vertical-align: inherit&quot;&gt;Are credentials present?&lt;/font&gt;&lt;/font&gt;" style="rhombus;whiteSpace=wrap;html=1;labelBackgroundColor=none;labelBorderColor=none;fontFamily=Helvetica;fontSize=16;" parent="1" vertex="1">
          <mxGeometry x="306.25" y="6050" width="147.5" height="140" as="geometry" />
        </mxCell>
        <mxCell id="g-a9l5bh9RtnpEigGKmV-162" style="edgeStyle=orthogonalEdgeStyle;rounded=0;orthogonalLoop=1;jettySize=auto;html=1;entryX=0.5;entryY=0;entryDx=0;entryDy=0;fontSize=16;" parent="1" source="g-a9l5bh9RtnpEigGKmV-151" target="g-a9l5bh9RtnpEigGKmV-155" edge="1">
          <mxGeometry relative="1" as="geometry" />
        </mxCell>
        <mxCell id="g-a9l5bh9RtnpEigGKmV-151" value="&lt;font style=&quot;vertical-align: inherit ; font-size: 16px&quot;&gt;&lt;font style=&quot;vertical-align: inherit ; font-size: 16px&quot;&gt;&lt;font style=&quot;vertical-align: inherit ; font-size: 16px&quot;&gt;&lt;font style=&quot;vertical-align: inherit ; font-size: 16px&quot;&gt;Automatic r&lt;/font&gt;&lt;/font&gt;&lt;/font&gt;&lt;/font&gt;efresh token" style="rounded=0;whiteSpace=wrap;html=1;fontSize=16;" parent="1" vertex="1">
          <mxGeometry x="170" y="6205" width="170" height="50" as="geometry" />
        </mxCell>
        <mxCell id="g-a9l5bh9RtnpEigGKmV-152" value="&lt;font style=&quot;vertical-align: inherit ; font-size: 16px&quot;&gt;&lt;font style=&quot;vertical-align: inherit ; font-size: 16px&quot;&gt;&lt;font style=&quot;vertical-align: inherit ; font-size: 16px&quot;&gt;&lt;font style=&quot;vertical-align: inherit ; font-size: 16px&quot;&gt;Logout to page of authentication&lt;/font&gt;&lt;/font&gt;&lt;/font&gt;&lt;/font&gt;" style="rounded=0;whiteSpace=wrap;html=1;fontSize=16;" parent="1" vertex="1">
          <mxGeometry x="350" y="6290" width="145" height="40" as="geometry" />
        </mxCell>
        <mxCell id="g-a9l5bh9RtnpEigGKmV-153" value="no" style="text;html=1;strokeColor=none;fillColor=none;align=center;verticalAlign=middle;whiteSpace=wrap;rounded=0;labelBackgroundColor=none;labelBorderColor=none;fontFamily=Helvetica;fontSize=16;fontColor=default;" parent="1" vertex="1">
          <mxGeometry x="370" y="6205" width="60" height="30" as="geometry" />
        </mxCell>
        <mxCell id="g-a9l5bh9RtnpEigGKmV-154" value="yes" style="text;html=1;strokeColor=none;fillColor=none;align=center;verticalAlign=middle;whiteSpace=wrap;rounded=0;labelBackgroundColor=none;labelBorderColor=none;fontFamily=Helvetica;fontSize=16;fontColor=default;" parent="1" vertex="1">
          <mxGeometry x="260" y="6090" width="60" height="30" as="geometry" />
        </mxCell>
        <mxCell id="g-a9l5bh9RtnpEigGKmV-155" value="Successfully?" style="rhombus;whiteSpace=wrap;html=1;labelBackgroundColor=none;labelBorderColor=none;fontFamily=Helvetica;fontSize=16;" parent="1" vertex="1">
          <mxGeometry x="190" y="6270" width="130" height="80" as="geometry" />
        </mxCell>
        <mxCell id="g-a9l5bh9RtnpEigGKmV-161" value="yes" style="edgeStyle=orthogonalEdgeStyle;html=1;align=left;verticalAlign=top;endArrow=open;endSize=8;strokeColor=#000000;rounded=0;labelBackgroundColor=none;fontFamily=Helvetica;fontSize=16;fontColor=#000000;exitX=0;exitY=0.5;exitDx=0;exitDy=0;entryX=0;entryY=0.5;entryDx=0;entryDy=0;" parent="1" source="g-a9l5bh9RtnpEigGKmV-155" target="g-a9l5bh9RtnpEigGKmV-165" edge="1">
          <mxGeometry x="-0.828" relative="1" as="geometry">
            <mxPoint x="140" y="6510" as="targetPoint" />
            <mxPoint x="160" y="6310" as="sourcePoint" />
            <Array as="points">
              <mxPoint x="120" y="6310" />
              <mxPoint x="120" y="6400" />
            </Array>
            <mxPoint as="offset" />
          </mxGeometry>
        </mxCell>
        <mxCell id="g-a9l5bh9RtnpEigGKmV-164" value="no" style="edgeStyle=orthogonalEdgeStyle;html=1;align=left;verticalAlign=top;endArrow=open;endSize=8;strokeColor=#000000;rounded=0;labelBackgroundColor=none;fontFamily=Helvetica;fontSize=16;fontColor=#000000;" parent="1" edge="1">
          <mxGeometry x="-1" relative="1" as="geometry">
            <mxPoint x="350" y="6310" as="targetPoint" />
            <mxPoint x="320" y="6310" as="sourcePoint" />
            <Array as="points">
              <mxPoint x="330" y="6310" />
              <mxPoint x="330" y="6310" />
            </Array>
            <mxPoint as="offset" />
          </mxGeometry>
        </mxCell>
        <mxCell id="g-a9l5bh9RtnpEigGKmV-165" value="Update token in system" style="rounded=0;whiteSpace=wrap;html=1;fontSize=16;" parent="1" vertex="1">
          <mxGeometry x="185" y="6380" width="145" height="40" as="geometry" />
        </mxCell>
        <mxCell id="WD-JcjTtbrkivy11EwXg-4" value="false" style="edgeStyle=orthogonalEdgeStyle;html=1;align=left;verticalAlign=bottom;endArrow=open;endSize=8;strokeColor=none;rounded=0;labelBackgroundColor=none;fontFamily=Helvetica;fontSize=26;fontColor=#000000;exitX=1;exitY=0.5;exitDx=0;exitDy=0;entryX=0;entryY=0.5;entryDx=0;entryDy=0;" edge="1" parent="1">
          <mxGeometry x="-0.8116" y="77" relative="1" as="geometry">
            <mxPoint x="625" y="4272.25" as="targetPoint" />
            <Array as="points" />
            <mxPoint as="offset" />
            <mxPoint x="485" y="4287.25" as="sourcePoint" />
          </mxGeometry>
        </mxCell>
        <mxCell id="g-a9l5bh9RtnpEigGKmV-76" value="" style="rounded=0;whiteSpace=wrap;html=1;dashed=1;fillColor=none;shadow=1;" parent="1" vertex="1">
          <mxGeometry x="95" y="4790" width="1650" height="230" as="geometry" />
        </mxCell>
        <mxCell id="WD-JcjTtbrkivy11EwXg-17" style="edgeStyle=orthogonalEdgeStyle;rounded=0;orthogonalLoop=1;jettySize=auto;html=1;entryX=0.5;entryY=1;entryDx=0;entryDy=0;labelBackgroundColor=none;fontSize=15;fontColor=#FFFFFF;" edge="1" parent="1">
          <mxGeometry relative="1" as="geometry">
            <Array as="points">
              <mxPoint x="1629.77" y="4580" />
              <mxPoint x="1630.77" y="4580" />
            </Array>
            <mxPoint x="1629.27" y="4710" as="sourcePoint" />
            <mxPoint x="1630.77" y="4570" as="targetPoint" />
          </mxGeometry>
        </mxCell>
      </root>
    </mxGraphModel>
  </diagram>
</mxfile>
